<svg width="322" height="300" viewBox="0 0 322 300" fill="none" xmlns="http://www.w3.org/2000/svg">
<g clip-path="url(#clip0_28_2)">
<g filter="url(#filter0_dd_28_2)">
<path d="M172.756 275.117L297.253 203.238V195.189L29.5916 184.411V192.461L172.756 275.117Z" fill="#EAEAEA"/>
</g>
<path d="M29.5912 184.411L35.3259 187.723L159.823 26.9979L154.089 23.6865L29.5912 95.5652V184.411Z" fill="#9393A9"/>
<path d="M35.3259 187.723L159.823 115.844V26.998L35.3259 98.8767V187.723Z" fill="#A9A9BB"/>
<path d="M35.3259 143.944V150.389L38.9152 148.32V141.874L35.3259 143.944ZM56.6252 138.099L40.1152 147.631V141.176L56.6252 131.644V138.099ZM74.3386 127.872L57.8286 137.404V130.949L74.3386 121.417V127.872ZM92.0519 117.645L75.5419 127.177V120.723L92.0519 111.191V117.645ZM109.765 107.419L93.2552 116.951V110.496L109.765 100.964V107.419ZM127.479 97.192L110.969 106.724V100.269L127.479 90.7374V97.192ZM145.192 86.9647L128.682 96.4967V90.042L145.192 80.51V86.9647ZM159.823 72.0547L159.798 78.5267V78.552L146.384 86.2814V79.81L159.823 72.0547ZM47.7706 144.233V150.704L35.3259 157.883V151.411L47.7706 144.233ZM65.4819 140.47L48.9719 150.002V143.547L65.4819 134.015V140.47ZM83.1952 130.243L66.6853 139.775V133.32L83.1952 123.788V130.243ZM100.909 120.016L84.3986 129.548V123.093L100.909 113.561V120.016ZM118.622 109.789L102.112 119.321V112.867L118.622 103.335V109.789ZM136.335 99.5627L119.825 109.095V102.64L136.335 93.108V99.5627ZM154.049 89.336L137.539 98.868V92.4133L154.049 82.8814V89.336ZM159.798 79.574L159.771 86.0187L155.239 88.6387V82.194L159.798 79.574ZM38.9152 156.783V163.253L35.3259 165.323V158.853L38.9152 156.783ZM56.6252 153.021L40.1152 162.553V156.098L56.6252 146.566V153.021ZM74.3386 142.794L57.8286 152.326V145.871L74.3386 136.339V142.794ZM92.0519 132.567L75.5419 142.099V135.644L92.0519 126.112V132.567ZM109.765 122.34L93.2552 131.872V125.417L109.765 115.885V122.34ZM127.479 112.113L110.969 121.645V115.191L127.479 105.659V112.113ZM145.192 101.887L128.682 111.419V104.964L145.192 95.432V101.887ZM159.771 87.014V93.46L146.383 101.188V94.7434L159.771 87.014ZM47.7706 159.166V165.611L35.3259 172.79V166.345L47.7706 159.166ZM65.4819 155.391L48.9719 164.923V158.469L65.4819 148.937V155.391ZM83.1952 145.165L66.6853 154.697V148.242L83.1952 138.71V145.165ZM100.909 134.938L84.3986 144.47V138.015L100.909 128.483V134.938ZM118.622 124.711L102.112 134.243V127.789L118.622 118.257V124.711ZM136.335 114.485L119.825 124.017V117.562L136.335 108.03V114.485ZM154.049 104.257L137.539 113.789V107.335L154.049 97.8027V104.257ZM159.771 94.4807L159.745 100.978L155.239 103.573V97.1007L159.771 94.4807ZM38.9152 171.715V178.16L35.3259 180.23V173.785L38.9152 171.715ZM56.6252 167.942L40.1152 177.474V171.019L56.6252 161.487V167.942ZM74.3386 157.715L57.8286 167.247V160.793L74.3386 151.261V157.715ZM92.0519 147.489L75.5419 157.021V150.566L92.0519 141.034V147.489ZM109.765 137.262L93.2552 146.794V140.339L109.765 130.807V137.262ZM127.479 127.035L110.969 136.567V130.113L127.479 120.581V127.035ZM145.192 116.809L128.682 126.341V119.886L145.192 110.354V116.809ZM159.745 101.948L159.719 108.42L146.384 116.122V109.65L159.745 101.948ZM47.7706 174.073V180.544L35.3259 187.722V181.251L47.7706 174.073ZM65.4819 170.313L48.9719 179.845V173.391L65.4819 163.859V170.313ZM83.1952 160.087L66.6853 169.619V163.164L83.1952 153.632V160.087ZM100.909 149.86L84.3986 159.392V152.937L100.909 143.405V149.86ZM118.622 139.633L102.112 149.165V142.71L118.622 133.178V139.633ZM136.335 129.406L119.825 138.938V132.483L136.335 122.951V129.406ZM154.049 119.179L137.539 128.711V122.257L154.049 112.725V119.179ZM159.719 109.441L159.693 115.913L155.239 118.48V112.035L159.719 109.441Z" fill="#9D9DB2"/>
<path d="M35.3259 99.118V105.563L38.9152 103.494V97.048L35.3259 99.118ZM56.6252 93.2727L40.1152 102.805V96.35L56.6252 86.818V93.2727ZM74.3386 83.046L57.8286 92.578V86.1234L74.3386 76.5914V83.046ZM92.0519 72.8194L75.5419 82.3514V75.8967L92.0519 66.3647V72.8194ZM109.765 62.5927L93.2552 72.1247V65.67L109.765 56.138V62.5927ZM127.479 52.366L110.969 61.898V55.4434L127.479 45.9114V52.366ZM145.192 42.1387L128.682 51.6707V45.216L145.192 35.684V42.1387ZM159.823 27.228L159.798 33.7V33.7254L146.384 41.4547V34.9827L159.823 27.228ZM47.7706 99.4074V105.878L35.3259 113.057V106.585L47.7706 99.4074ZM65.4819 95.6434L48.9719 105.175V98.7207L65.4819 89.1887V95.6434ZM83.1952 85.4167L66.6853 94.9487V88.494L83.1952 78.962V85.4167ZM100.909 75.19L84.3986 84.722V78.2674L100.909 68.7354V75.19ZM118.622 64.9634L102.112 74.4954V68.0407L118.622 58.5087V64.9634ZM136.335 54.7367L119.825 64.2687V57.814L136.335 48.282V54.7367ZM154.049 44.51L137.539 54.042V47.5874L154.049 38.0554V44.51ZM159.798 34.748L159.771 41.1927L155.239 43.8127V37.368L159.798 34.748ZM38.9152 111.957V118.427L35.3259 120.497V114.027L38.9152 111.957ZM56.6252 108.195L40.1152 117.727V111.272L56.6252 101.74V108.195ZM74.3386 97.968L57.8286 107.5V101.045L74.3386 91.5134V97.968ZM92.0519 87.7407L75.5419 97.2727V90.818L92.0519 81.286V87.7407ZM109.765 77.514L93.2552 87.046V80.5914L109.765 71.0594V77.514ZM127.479 67.2874L110.969 76.8194V70.3647L127.479 60.8327V67.2874ZM145.192 57.0607L128.682 66.5927V60.138L145.192 50.606V57.0607ZM159.771 42.188V48.634L146.383 56.362V49.9174L159.771 42.188ZM47.7706 114.34V120.785L35.3259 127.964V121.519L47.7706 114.34ZM65.4819 110.565L48.9719 120.097V113.643L65.4819 104.111V110.565ZM83.1952 100.339L66.6853 109.871V103.416L83.1952 93.884V100.339ZM100.909 90.112L84.3986 99.644V93.1894L100.909 83.6574V90.112ZM118.622 79.8854L102.112 89.4174V82.9627L118.622 73.4307V79.8854ZM136.335 69.6587L119.825 79.1907V72.736L136.335 63.204V69.6587ZM154.049 59.4314L137.539 68.9634V62.5087L154.049 52.9767V59.4314ZM159.771 49.6547L159.745 56.152L155.239 58.746V52.2747L159.771 49.6547ZM38.9152 126.889V133.334L35.3259 135.404V128.959L38.9152 126.889ZM56.6252 123.116L40.1152 132.648V126.193L56.6252 116.661V123.116ZM74.3386 112.889L57.8286 122.421V115.967L74.3386 106.435V112.889ZM92.0519 102.663L75.5419 112.195V105.74L92.0519 96.208V102.663ZM109.765 92.436L93.2552 101.968V95.5134L109.765 85.9814V92.436ZM127.479 82.2094L110.969 91.7414V85.2867L127.479 75.7547V82.2094ZM145.192 71.9827L128.682 81.5147V75.06L145.192 65.528V71.9827ZM159.745 57.122L159.719 63.5934L146.384 71.296V64.824L159.745 57.122ZM47.7706 129.247V135.719L35.3259 142.897V136.426L47.7706 129.247ZM65.4819 125.487L48.9719 135.019V128.565L65.4819 119.033V125.487ZM83.1952 115.261L66.6853 124.793V118.338L83.1952 108.806V115.261ZM100.909 105.033L84.3986 114.565V108.111L100.909 98.5787V105.033ZM118.622 94.8067L102.112 104.339V97.884L118.622 88.352V94.8067ZM136.335 84.58L119.825 94.112V87.6574L136.335 78.1254V84.58ZM154.049 74.3534L137.539 83.8854V77.4307L154.049 67.8987V74.3534ZM159.719 64.6147L159.693 71.086L155.239 73.6534V67.2087L159.719 64.6147Z" fill="#9D9DB2"/>
<path d="M172.756 267.068L297.253 195.19L159.824 115.844L35.3263 187.723L172.756 267.068Z" fill="#F3F3F3"/>
<path d="M252.176 173.917L243.313 179.035L238.903 173.917L219.555 185.088L250.797 203.126H264.07L283.419 191.955L252.176 173.917Z" fill="#EAEAEA"/>
<path d="M262.307 199.367C262.307 198.671 262.798 197.824 263.404 197.474C263.69 197.309 263.95 197.285 264.145 197.379L264.146 197.377L265.136 197.941L263.669 200.661L262.63 200.073L262.628 200.071C262.43 199.957 262.307 199.713 262.307 199.367Z" fill="#0C100F"/>
<path d="M264.398 198.039C263.792 198.389 263.3 199.237 263.3 199.932C263.3 200.627 263.792 200.907 264.398 200.557C265.004 200.207 265.495 199.36 265.495 198.665C265.496 197.969 265.004 197.689 264.398 198.039Z" fill="#1F2022"/>
<path d="M264.911 199.002C264.911 199.327 264.681 199.723 264.398 199.887C264.114 200.051 263.884 199.92 263.884 199.595C263.884 199.269 264.114 198.873 264.398 198.709C264.682 198.546 264.911 198.677 264.911 199.002Z" fill="#8B98A4"/>
<path d="M236.68 184.559C236.68 183.863 237.171 183.016 237.777 182.666C238.063 182.501 238.323 182.477 238.518 182.571L238.519 182.569L239.509 183.133L238.042 185.853L237.003 185.265L237.001 185.263C236.803 185.149 236.68 184.905 236.68 184.559Z" fill="#0C100F"/>
<path d="M238.772 183.231C238.166 183.581 237.674 184.428 237.674 185.124C237.674 185.819 238.166 186.099 238.772 185.749C239.378 185.399 239.869 184.552 239.869 183.856C239.869 183.161 239.377 182.882 238.772 183.231Z" fill="#1F2022"/>
<path d="M239.284 184.194C239.284 184.519 239.054 184.915 238.771 185.079C238.488 185.243 238.258 185.112 238.258 184.787C238.258 184.461 238.487 184.065 238.771 183.901C239.055 183.738 239.284 183.869 239.284 184.194Z" fill="#8B98A4"/>
<path d="M277.047 190.856C277.047 190.161 277.539 189.313 278.145 188.963C278.43 188.798 278.69 188.775 278.885 188.868V188.867L279.876 189.431L278.409 192.15L277.371 191.562L277.368 191.561C277.169 191.447 277.047 191.203 277.047 190.856Z" fill="#0C100F"/>
<path d="M279.138 189.529C278.532 189.879 278.041 190.727 278.041 191.422C278.041 192.117 278.532 192.397 279.138 192.047C279.744 191.697 280.235 190.85 280.235 190.155C280.235 189.459 279.744 189.179 279.138 189.529Z" fill="#1F2022"/>
<path d="M279.651 190.492C279.651 190.817 279.421 191.213 279.138 191.377C278.855 191.541 278.625 191.41 278.625 191.085C278.625 190.759 278.854 190.363 279.138 190.199C279.421 190.036 279.651 190.167 279.651 190.492Z" fill="#8B98A4"/>
<path d="M234.646 178.463L262.815 194.727V198.796L234.646 182.533V178.463Z" fill="#047A8E"/>
<path d="M281.497 183.954L262.816 194.727V198.796L281.497 188.011V183.954Z" fill="#2C8F9F"/>
<path d="M281.497 180.894L263.981 194.127V198.123L281.497 188.011V180.894Z" fill="#2C8F9F"/>
<path d="M263.98 194.066L263.155 194.543L234.986 178.279L235.81 177.803L263.98 194.066Z" fill="#4CA0AE"/>
<path d="M235.811 177.803L253.328 167.69L281.497 183.953L263.981 194.066L235.811 177.803Z" fill="#FB6C2A"/>
<path d="M235.81 166.75L263.98 183.013V194.066L235.81 177.803V166.75Z" fill="#047A8E"/>
<path d="M281.497 172.9L263.981 183.013V194.066L281.497 183.953V172.9Z" fill="#D93B3A"/>
<path d="M234.646 167.422L262.815 183.686V194.739L234.646 178.476V167.422Z" fill="#047A8E"/>
<path d="M234.646 176.869L262.815 193.132V194.739L234.646 178.476V176.869Z" fill="#6A747D"/>
<path d="M263.641 183.21L262.815 183.687V194.739L263.641 194.263V183.21Z" fill="#2C8F9F"/>
<path d="M263.641 183.21L262.815 183.686L234.646 167.422L235.471 166.946L263.641 183.21Z" fill="#4CA0AE"/>
<path d="M253.328 156.637L281.497 172.9L263.981 183.013L235.811 166.75L253.328 156.637Z" fill="#0492C9"/>
<path d="M236.187 166.54L253.329 156.643L281.254 172.761L264.112 182.658L236.187 166.54Z" fill="#FB6363"/>
<path d="M262.455 194.947V194.377L234.285 178.113V178.683L262.455 194.947Z" fill="#84909C"/>
<path d="M262.815 194.169L262.455 194.377L234.285 178.113L234.646 177.905L262.815 194.169Z" fill="#C6C6CD"/>
<path d="M262.815 194.168L262.455 194.376V194.947L262.815 194.738V194.168Z" fill="#8B98A4"/>
<path d="M235.811 166.353L253.328 156.24L281.497 172.504L263.981 182.616L235.811 166.353Z" fill="#FB6C2A"/>
<path d="M235.81 155.3L263.98 171.564V183.044L235.81 166.78V155.3Z" fill="#047A8E"/>
<path d="M281.497 161.45L263.981 171.564V182.616L281.497 172.504V161.45Z" fill="#D93B3A"/>
<path d="M234.646 155.972L262.815 172.236V183.289L234.646 167.026V155.972Z" fill="#047A8E"/>
<path d="M234.646 165.419L262.815 181.682V183.289L234.646 167.026V165.419Z" fill="#6A747D"/>
<path d="M263.641 171.759L262.815 172.235V183.289L263.641 182.813V171.759Z" fill="#2C8F9F"/>
<path d="M263.641 171.759L262.815 172.236L234.646 155.972L235.471 155.496L263.641 171.759Z" fill="#4CA0AE"/>
<path d="M253.328 145.187L281.497 161.45L263.981 171.564L235.811 155.3L253.328 145.187Z" fill="#0492C9"/>
<path d="M236.187 155.09L253.329 145.193L281.254 161.31L264.112 171.208L236.187 155.09Z" fill="#FB6363"/>
<path d="M262.455 183.497V182.927L234.285 166.664V167.234L262.455 183.497Z" fill="#84909C"/>
<path d="M262.815 182.719L262.455 182.927L234.285 166.664L234.646 166.455L262.815 182.719Z" fill="#C6C6CD"/>
<path d="M262.815 182.719L262.455 182.927V183.497L262.815 183.289V182.719Z" fill="#8B98A4"/>
<path d="M235.811 154.903L253.328 144.79L281.497 161.054L263.981 171.166L235.811 154.903Z" fill="#FB6C2A"/>
<path d="M235.81 143.85L263.98 160.113V171.561L235.81 155.297V143.85Z" fill="#047A8E"/>
<path d="M281.497 150L263.981 160.113V194.066L281.497 183.953V150Z" fill="#2C8F9F"/>
<path d="M234.646 144.522L262.815 160.786V171.839L234.646 155.576V144.522Z" fill="#047A8E"/>
<path d="M234.646 153.969L262.815 170.232V171.839L234.646 155.575V153.969Z" fill="#6A747D"/>
<path d="M263.641 160.309L262.815 160.785V171.839L263.641 171.362V160.309Z" fill="#2C8F9F"/>
<path d="M263.641 160.309L262.815 160.785L234.646 144.522L235.471 144.045L263.641 160.309Z" fill="#4CA0AE"/>
<path d="M253.328 133.737L281.497 150L263.981 160.113L235.811 143.849L253.328 133.737Z" fill="#4CA0AE"/>
<path d="M262.455 172.047V171.476L234.285 155.213V155.784L262.455 172.047Z" fill="#84909C"/>
<path d="M262.815 171.268L262.455 171.476L234.285 155.213L234.646 155.005L262.815 171.268Z" fill="#C6C6CD"/>
<path d="M262.815 171.269L262.455 171.477V172.047L262.815 171.839V171.269Z" fill="#8B98A4"/>
<path d="M184.299 243.784L95.0448 192.254C88.5475 188.502 89.3622 181.95 96.8648 177.618L125.529 161.068C133.032 156.736 144.382 156.266 150.879 160.018L240.133 211.548C246.631 215.3 245.816 221.852 238.313 226.184L209.649 242.734C202.146 247.066 190.796 247.536 184.299 243.784Z" fill="#EAEAEA"/>
<path d="M170.288 225.593L212.4 200.503L190.554 174.916L132.845 146.815L97.6777 175.641L103.417 185.354L150.996 156.763L167.508 222.757L170.288 225.593Z" fill="#070407"/>
<path d="M186.384 237.911L228.766 213.491L213.916 189.954L172.162 216.801L186.384 237.911Z" fill="url(#paint0_linear_28_2)"/>
<path d="M120.121 199.653L162.502 175.233L147.653 151.697L105.898 178.543L120.121 199.653Z" fill="url(#paint1_linear_28_2)"/>
<path d="M139.578 139.85L135.814 147.58L150.847 150.819L146.135 151.025L152.172 147.583L160.71 152.512L161.874 154.52L166.744 162.924L171.457 168.911L212.399 197.991V189.283L212.402 189.285L218.436 185.841L226.974 190.77L233.009 201.181V202.985L235.682 204.529L239.025 207.523L239.948 196.402L190.555 150.045L161.541 134.324L140.67 132.653L139.578 139.85Z" fill="#6E727D"/>
<path d="M140.67 132.655L239.948 196.403L190.554 150.041L161.541 134.322L140.67 132.655Z" fill="#838690"/>
<path d="M221.488 183.223L155.412 139.697L149.524 133.845L162.17 135.815L190.35 151.096L218.668 177.086L221.488 183.223Z" fill="#1E232D"/>
<path d="M140.31 134.099L143.089 135.915L143.307 138.671L142.191 139.905L138.618 138.057L139.74 138.583L140.31 134.099Z" fill="#FE2739"/>
<path d="M216.614 182.718V183.33L215.374 183.511L212.968 180.983V180.47L216.614 182.718Z" fill="#FEB339"/>
<path d="M211.303 176.418L211.306 176.378L206.417 165.83L190.46 150.978L180.92 145.792L182.713 158.018L183.196 159.37L188.982 178.224L188.996 178.27L210.056 195.942L211.303 176.418ZM183.499 159.27L183.021 157.942L181.328 146.378L190.258 151.227L206.141 165.994L210.983 176.438L209.778 195.293L189.274 178.086L183.499 159.27Z" fill="#66686E"/>
<path d="M183.499 159.272L183.022 157.943L181.27 145.982L160.444 134.675L160.251 134.57L158.862 142.1L159.752 144.015L161.716 154.55L166.627 163.033L171.339 168.08L189.404 178.519L183.499 159.272ZM166.882 162.844L162.025 154.464L160.062 143.936L159.193 142.057L160.484 135.059L180.977 146.185L182.714 158.018L183.196 159.371L188.862 177.836L171.556 167.844L166.882 162.844Z" fill="#66686E"/>
<path d="M216.332 205.326C212.769 199.232 212.733 192.623 216.251 190.566C219.77 188.509 225.511 191.782 229.074 197.877C232.637 203.971 232.673 210.58 229.154 212.637C225.636 214.694 219.895 211.421 216.332 205.326Z" fill="#070407"/>
<path d="M233.009 202.987L235.681 204.529L239.61 206.913L240.315 207.32L239.892 210.693L238.073 212.472L233.009 210.978V202.987Z" fill="#171618"/>
<path d="M152.086 155.386C152.086 161.132 156.145 168.134 161.153 171.025C166.161 173.917 170.221 171.602 170.221 165.856C170.221 160.11 161.449 155.829 156.441 152.937C151.433 150.046 152.086 149.64 152.086 155.386Z" fill="#070407"/>
<path d="M210.035 230.417L235.751 215.571L240.315 207.32L233.117 200.563L189.537 228.086L192.481 230.181L197.053 231.602L210.035 230.417Z" fill="#535C5E"/>
<path d="M212.399 197.991V200.502L171.457 171.423L171.457 168.911L212.399 197.991Z" fill="#171618"/>
<path d="M150.995 156.763L149.457 155.875L135.813 147.581L150.846 150.819L150.995 156.763Z" fill="#171618"/>
<path d="M218.067 184.603L227.344 189.959L233.905 201.276V203.503L233.012 202.988V201.184L233.009 201.182L226.975 190.771L218.437 185.841L212.403 189.285L212.4 189.283V197.991L211.51 197.477V188.345L218.067 184.603Z" fill="#171618"/>
<path d="M151.799 146.343L161.075 151.699L167.637 163.016L172.349 169.427L171.455 168.911L166.743 162.925L160.705 152.511L152.171 147.584L146.133 151.026L150.846 150.819L149.953 150.304L145.24 150.087L151.799 146.343Z" fill="#171618"/>
<path d="M96.7934 164.552V174.643L103.351 178.241V175.727L109.388 172.285L117.926 177.214L119.09 179.222L123.96 187.626L124.631 196.721L170.09 222.967L169.599 216.385L175.653 210.543L184.191 215.472L190.225 225.884V227.687L192.898 229.231L197.164 230.557V221.104L151.567 172.555L122.553 156.834L97.8861 157.355L96.7934 164.552Z" fill="#BEC3C7"/>
<path d="M144.69 188.967L142.104 187.474C141.77 187.281 141.498 187.435 141.498 187.819V187.953C141.498 188.337 141.77 188.805 142.104 188.999L145.66 191.051C146.06 191.282 146.266 190.852 145.99 190.36C145.652 189.755 145.182 189.251 144.69 188.967Z" fill="#948D8E"/>
<path d="M169.354 218.719L169.552 222.851L124.633 196.917L124.632 192.899L169.354 218.719Z" fill="#AFB4B8"/>
<path d="M172.79 207.979V208.41L171.944 208.794L170.603 207.534L170.754 206.724L172.641 207.724L172.79 207.979Z" fill="#4E5056"/>
<path d="M97.8861 157.357L197.164 221.105L151.566 172.552L122.553 156.833L97.8861 157.357Z" fill="#CFD3D6"/>
<path d="M197.164 222.97L193.563 221.435L192.653 220.268L188.957 217.809L192.195 223.137L197.164 225.276V222.97Z" fill="url(#paint2_linear_28_2)"/>
<path d="M172.641 207.724V208.155L172.321 208.339L170.285 206.653L170.605 206.469L172.641 207.724Z" fill="#FE7F39"/>
<path d="M172.322 207.908V208.339L171.628 208.655L170.286 207.395V206.653L172.322 207.908Z" fill="#FEB339"/>
<path d="M189.539 228.086L192.483 230.181L197.055 231.602L196.631 234.974L194.603 237.571L190.21 236.465L189.539 232.608V228.086Z" fill="#3C4749"/>
<path d="M189.539 232.608L196.631 234.974L197.055 231.602L192.483 230.181L189.539 228.086V232.608Z" fill="#404B4D"/>
<path d="M197.163 221.104V230.557L209.715 229.411L210.201 219.678L197.163 221.104Z" fill="#BEC3C7"/>
<path d="M234.988 214.821L239.025 207.523L239.948 196.403L237.476 203.931L236.985 206.077V206.08L236.38 208.727L236.376 208.737L234.988 214.821Z" fill="#BEC3C7"/>
<path d="M210.202 219.678L209.716 229.411L234.987 214.821L237.478 203.93L210.202 219.678Z" fill="#CFD3D6"/>
<path d="M190.554 150.042L239.948 196.404L237.478 203.93L210.202 219.678L197.164 221.104L151.566 172.552L190.554 150.042Z" fill="#EAEAEA"/>
<path d="M151.905 172.356L197.054 220.43L209.904 219.024L237.044 203.354L239.43 196.084L190.437 150.109L190.554 150.042L239.948 196.404L237.478 203.93L210.202 219.678L197.164 221.104L151.566 172.552L151.905 172.356Z" fill="#CFD3D6"/>
<path d="M197.163 222.97V225.276L209.969 223.984L210.086 221.61L197.163 222.97Z" fill="#E5E6EA"/>
<path d="M197.054 231.602L196.63 234.974L209.552 233.615L209.976 230.242L197.054 231.602Z" fill="#42494D"/>
<path d="M194.602 237.571L196.63 234.974L209.553 233.615L207.525 236.212L194.602 237.571Z" fill="#3C4749"/>
<path d="M233.299 221.541L235.328 218.944L209.552 233.615L207.524 236.212L233.299 221.541Z" fill="#3C4749"/>
<path d="M235.752 215.571L235.329 218.944L209.553 233.615L209.976 230.242L235.752 215.571Z" fill="#42494D"/>
<path d="M235.751 215.572L235.328 218.944L239.892 210.693L240.315 207.32L235.751 215.572Z" fill="#42494D"/>
<path d="M236.38 208.727L239.521 201.55L239.75 198.79L236.985 206.077V206.08L236.38 208.727Z" fill="#E5E6EA"/>
<path d="M190.554 150.042L151.566 172.552L122.552 156.834L161.541 134.324L190.554 150.042Z" fill="#EAEAEA"/>
<path d="M167.373 201.937L168.583 200.072L169.677 194.411L151.483 173.501L144.366 169.625L141.377 182.529L140.058 184.53L142.159 206.085L167.279 220.589L167.373 201.937ZM140.386 184.612L141.659 182.681L144.582 170.105L151.261 173.733L169.334 194.504L168.299 199.925L167.054 201.842L166.963 220.037L142.459 205.891L140.386 184.612Z" fill="#D4D4D4"/>
<path d="M97.8857 157.354L101.835 153.463L129.111 137.715L140.67 132.653L161.541 134.324L122.552 156.834L97.8857 157.355L97.889 157.353L97.8857 157.354Z" fill="#BEC3C7"/>
<path d="M140.386 184.614L141.658 182.682L144.655 169.784L125.345 159.318L121.469 169.698L119.871 171.548L118.931 179.204L118.924 179.257L123.803 187.676L124.478 195.879L142.496 206.282L140.386 184.614ZM124.119 187.613L119.254 179.189L120.176 171.682L121.729 169.883L125.515 159.772L144.29 169.947L141.376 182.529L140.057 184.531L142.119 205.693L124.782 195.684L124.119 187.613Z" fill="#D4D4D4"/>
<path d="M152.673 173.162L181.861 204.181L222.576 180.673L190.958 151.057L152.673 173.162Z" fill="#1E1E1E"/>
<path d="M154.945 173.161L164.78 183.617L170.107 189.275L181.189 201.057L215.327 181.345L218.702 179.399L190.229 152.793L154.945 173.161Z" fill="#1E2329"/>
<path d="M181.493 157.832L212.068 179.634L215.214 177.82L189.237 153.364L181.493 157.832Z" fill="#313942"/>
<path d="M143.669 133.889L159.509 135.015L122.427 156.425L103.967 156.812L108.348 153.323L134.625 138.151L143.669 133.889Z" fill="#1E1E1E"/>
<path d="M108.789 155.805L110.449 153.926L137.005 138.474L144.054 135.443L156.464 136.077L149.48 140.108L149.407 140.151L123.023 155.359L108.789 155.805Z" fill="#272E36"/>
<path d="M116.177 155.427L108.786 155.805L110.449 153.926L137.005 138.473L144.055 135.445L147.118 137.185L116.177 155.427Z" fill="#272E36"/>
<path d="M113.524 155.548L120.295 155.413L150.062 138.958L147.118 137.184C147.118 137.184 142.752 139.232 139.751 140.498C138.672 140.956 137.082 141.769 135.262 142.752C132.032 144.487 128.084 146.747 125.047 148.411C124.246 148.851 123.384 149.363 122.51 149.929C122.504 149.929 122.504 149.929 122.504 149.929C119.323 151.972 113.524 155.548 113.524 155.548Z" fill="#272E36"/>
<path d="M121.03 150.76C121.06 150.76 122.421 150.15 122.496 150.119C122.872 149.966 124.4 150.988 125.698 150.739C126.149 150.652 133.08 146.603 133.207 146.309C133.427 145.798 131.97 144.838 131.97 144.838C132.082 144.739 132.757 144.12 133.124 143.921C133.178 143.897 133.209 143.831 133.215 143.746C129.985 145.481 126.605 147.578 123.567 149.241C122.765 149.681 121.904 150.194 121.03 150.76Z" fill="#272E36"/>
<path d="M121.993 194.409C121.993 200.155 117.934 202.469 112.926 199.579C107.919 196.687 103.86 189.685 103.86 183.939C103.86 178.193 107.919 175.879 112.926 178.77C117.934 181.661 121.993 188.663 121.993 194.409Z" fill="#2D2C37"/>
<path d="M121.993 194.409C121.993 200.155 117.934 202.469 112.926 199.578C107.919 196.687 103.86 189.685 103.86 183.939C103.86 178.193 107.919 175.879 112.926 178.769C117.934 181.661 121.993 188.663 121.993 194.409Z" fill="url(#paint3_linear_28_2)"/>
<path d="M121.428 194.305C121.428 199.832 117.523 202.058 112.706 199.278C107.888 196.496 103.984 189.761 103.984 184.234C103.984 178.706 107.888 176.48 112.706 179.261C117.522 182.042 121.428 188.777 121.428 194.305Z" fill="url(#paint4_linear_28_2)"/>
<path d="M120.196 193.62C120.196 198.327 116.871 200.224 112.769 197.855C108.667 195.486 105.342 189.751 105.342 185.044C105.342 180.336 108.667 178.44 112.769 180.809C116.87 183.178 120.196 188.913 120.196 193.62Z" fill="#504F58"/>
<path d="M119.965 193.13C119.965 197.591 116.813 199.388 112.925 197.143C109.037 194.898 105.886 189.462 105.886 185.001C105.886 180.54 109.037 178.742 112.925 180.988C116.813 183.232 119.965 188.669 119.965 193.13Z" fill="#BABABE"/>
<path d="M106.39 186.349C106.685 188.91 107.969 191.833 109.993 194.159C112.018 196.479 114.308 197.648 116.146 197.534C116.959 197.48 117.683 197.178 118.249 196.606C118.436 196.431 118.605 196.22 118.749 195.979C118.779 195.931 118.81 195.888 118.834 195.84C118.937 195.666 119.027 195.485 119.099 195.292C119.202 195.038 119.286 194.774 119.353 194.49C119.467 193.99 119.521 193.448 119.521 192.882C119.521 192.622 119.509 192.358 119.485 192.092C119.479 191.954 119.461 191.821 119.443 191.688C119.431 191.598 119.419 191.508 119.407 191.417C119.395 191.332 119.383 191.248 119.365 191.164C119.323 190.91 119.275 190.652 119.209 190.392C119.179 190.266 119.149 190.145 119.112 190.018C119.088 189.91 119.058 189.808 119.021 189.705C118.979 189.554 118.931 189.398 118.877 189.247C118.841 189.132 118.805 189.018 118.762 188.91C118.587 188.422 118.383 187.94 118.147 187.458C118.099 187.355 118.051 187.259 118.003 187.162C117.834 186.837 117.659 186.518 117.466 186.198C117.418 186.12 117.369 186.042 117.321 185.964C117.231 185.819 117.135 185.674 117.044 185.536C116.683 184.993 116.285 184.469 115.857 183.975C115.64 183.728 115.423 183.493 115.2 183.276C115.097 183.167 114.989 183.065 114.887 182.968C114.857 182.938 114.821 182.908 114.79 182.878C114.705 182.8 114.615 182.721 114.531 182.649C113.482 181.739 112.409 181.124 111.397 180.817C109.613 180.28 108.017 180.696 107.101 182.155C107.071 182.197 107.041 182.246 107.016 182.288C106.841 182.583 106.709 182.908 106.6 183.252C106.324 184.156 106.258 185.216 106.39 186.349Z" fill="url(#paint5_linear_28_2)"/>
<path d="M115.093 184.21L115.159 186.186C115.9 186.126 116.636 186.054 117.322 185.964C117.232 185.819 117.136 185.674 117.045 185.536C116.684 184.993 116.286 184.469 115.858 183.975C115.641 183.728 115.424 183.493 115.201 183.276C115.098 183.167 114.99 183.065 114.888 182.968C114.858 182.938 114.822 182.908 114.791 182.878C114.706 182.8 114.616 182.721 114.532 182.649C113.483 181.739 112.41 181.124 111.398 180.817C109.614 180.28 108.018 180.696 107.102 182.155C112.218 180.401 115.093 184.21 115.093 184.21Z" fill="#393843"/>
<path d="M106.813 186.319C106.813 186.319 108.518 188.579 110.272 189.176C112.025 189.772 115.418 193.876 115.418 193.876L115.159 186.187C111.151 186.488 106.813 186.319 106.813 186.319Z" fill="#393843"/>
<path d="M110.326 184.993C110.579 187.192 111.682 189.706 113.423 191.7C114.381 192.803 115.418 193.604 116.412 194.074V194.08C117.219 194.466 117.997 194.641 118.702 194.598C118.756 194.598 118.811 194.592 118.865 194.58C119.033 194.568 119.196 194.538 119.353 194.49C119.467 193.99 119.521 193.447 119.521 192.881C119.521 192.622 119.509 192.357 119.485 192.092C119.479 191.953 119.461 191.82 119.443 191.688C119.431 191.597 119.419 191.507 119.407 191.416C119.395 191.332 119.383 191.248 119.365 191.163C119.323 190.91 119.275 190.651 119.209 190.392C119.179 190.265 119.149 190.144 119.112 190.018C119.088 189.909 119.058 189.807 119.021 189.704C118.979 189.554 118.931 189.397 118.877 189.246C118.841 189.132 118.805 189.017 118.762 188.909C118.587 188.421 118.383 187.939 118.147 187.457C118.099 187.354 118.051 187.258 118.003 187.162C117.834 186.836 117.659 186.517 117.466 186.198C117.333 185.975 117.189 185.752 117.044 185.535C116.683 184.992 116.285 184.468 115.857 183.974C115.64 183.727 115.423 183.492 115.2 183.275C115.097 183.166 114.989 183.064 114.887 182.968C114.857 182.938 114.821 182.908 114.79 182.877C114.705 182.799 114.615 182.72 114.531 182.648C113.482 181.738 112.409 181.124 111.397 180.816C111.199 181.009 111.018 181.238 110.861 181.509C110.716 181.762 110.595 182.033 110.505 182.334C110.379 182.762 110.301 183.232 110.276 183.732C110.259 184.137 110.278 184.559 110.326 184.993Z" fill="url(#paint6_linear_28_2)"/>
<path d="M115.39 188.685L115.225 190.229V190.235L115.39 188.685L116.593 187.988L117.467 186.198C117.334 185.975 117.189 185.752 117.045 185.535C116.683 184.992 116.285 184.468 115.857 183.974C115.641 183.727 115.423 183.492 115.201 183.275C115.098 183.166 114.99 183.064 114.887 182.968C114.857 182.938 114.821 182.908 114.791 182.877C114.555 183.016 114.363 183.136 114.351 183.148L115.856 184.88L115.39 188.685Z" fill="url(#paint7_linear_28_2)"/>
<path d="M115.391 188.685L115.225 190.229V190.235L116.413 194.074L116.943 195.803C117.124 196.182 116.588 197.044 116.835 196.996C117.233 196.918 118.221 196.334 118.751 195.978C118.781 195.93 118.811 195.887 118.835 195.839C118.938 195.664 119.028 195.484 119.101 195.29C119.089 195.2 119.059 195.11 119.01 195.013L118.865 194.579L116.696 188.191L116.593 187.986L115.391 188.685Z" fill="url(#paint8_linear_28_2)"/>
<path d="M108.135 182.948C108.237 182.895 108.374 182.907 108.523 182.992L114.282 185.431L114.443 185.523L114.449 188.615L113.17 187.879L108.397 186.008C108.099 185.837 107.855 185.427 107.838 185.077C107.805 184.401 106.765 184.254 106.893 183.67C106.917 183.558 108.059 182.988 108.135 182.948Z" fill="url(#paint9_linear_28_2)"/>
<path d="M114.195 191.133L116.697 185.99C116.82 185.776 116.745 185.386 116.516 185.075C116.279 184.752 116.028 184.439 115.763 184.136C115.499 183.833 115.23 183.55 114.958 183.288C114.696 183.036 114.409 183.012 114.287 183.226L111.784 188.369L114.195 191.133Z" fill="#DFDFE3"/>
<path d="M113.244 189.311L113.238 186.219L113.077 186.127L107.317 183.688C107.057 183.539 106.831 183.614 106.774 183.873C106.645 184.457 106.6 185.097 106.633 185.772C106.649 186.123 106.893 186.532 107.191 186.703L111.965 188.575L113.244 189.311Z" fill="#DFDFE3"/>
<path d="M117.786 196.498C117.954 196.366 117.96 196.038 117.804 195.71L115.488 188.89L115.39 188.686L113.244 189.312L114.016 190.928L115.737 196.501C115.917 196.878 116.25 197.13 116.498 197.082C116.972 196.988 117.407 196.794 117.786 196.498Z" fill="#DFDFE3"/>
<path d="M116.5 196.319C116.472 196.288 116.438 196.242 116.408 196.18L114.643 190.515L112.443 187.993L107.562 186.059C107.49 186.019 107.38 185.842 107.374 185.737C107.355 185.336 107.366 184.955 107.406 184.597L113.349 187.141L114.67 184.049C114.851 184.233 115.03 184.426 115.202 184.625C115.45 184.909 115.69 185.208 115.917 185.516C115.968 185.585 115.995 185.655 116.006 185.7L114.647 188.859C114.647 188.859 117.136 196.041 117.138 196.045C116.944 196.167 116.73 196.259 116.5 196.319Z" fill="#4B4A4B"/>
<path d="M188.258 232.666C188.258 238.413 184.198 240.727 179.191 237.836C174.184 234.945 170.124 227.943 170.124 222.197C170.124 216.451 174.184 214.137 179.191 217.027C184.198 219.919 188.258 226.92 188.258 232.666Z" fill="#2D2C37"/>
<path d="M188.258 232.666C188.258 238.412 184.198 240.727 179.191 237.835C174.184 234.944 170.124 227.943 170.124 222.196C170.124 216.45 174.184 214.136 179.191 217.027C184.198 219.919 188.258 226.92 188.258 232.666Z" fill="url(#paint10_linear_28_2)"/>
<path d="M187.692 232.562C187.692 238.09 183.788 240.316 178.97 237.535C174.153 234.754 170.248 228.018 170.248 222.491C170.248 216.964 174.153 214.737 178.97 217.518C183.788 220.299 187.692 227.035 187.692 232.562Z" fill="url(#paint11_linear_28_2)"/>
<path d="M186.461 231.878C186.461 236.584 183.136 238.481 179.034 236.112C174.932 233.744 171.606 228.008 171.606 223.301C171.606 218.593 174.932 216.698 179.034 219.066C183.136 221.435 186.461 227.171 186.461 231.878Z" fill="#504F58"/>
<path d="M186.229 231.387C186.229 235.849 183.077 237.645 179.189 235.401C175.301 233.156 172.15 227.72 172.15 223.259C172.15 218.797 175.301 217 179.189 219.245C183.077 221.489 186.229 226.926 186.229 231.387Z" fill="#BABABE"/>
<path d="M172.655 224.606C172.95 227.168 174.233 230.09 176.259 232.416C178.283 234.736 180.573 235.906 182.411 235.791C183.225 235.737 183.948 235.436 184.515 234.863C184.701 234.688 184.87 234.478 185.015 234.236C185.045 234.188 185.075 234.146 185.099 234.098C185.201 233.923 185.291 233.742 185.364 233.549C185.467 233.296 185.551 233.031 185.617 232.748C185.732 232.248 185.786 231.705 185.786 231.138C185.786 230.879 185.774 230.614 185.75 230.349C185.744 230.21 185.726 230.078 185.708 229.945C185.696 229.854 185.684 229.764 185.672 229.674C185.66 229.59 185.648 229.505 185.63 229.42C185.588 229.167 185.54 228.908 185.473 228.649C185.443 228.522 185.413 228.402 185.377 228.276C185.353 228.167 185.323 228.065 185.287 227.962C185.245 227.812 185.196 227.655 185.142 227.504C185.106 227.39 185.07 227.275 185.027 227.167C184.853 226.679 184.647 226.197 184.413 225.715C184.365 225.612 184.316 225.516 184.268 225.42C184.099 225.094 183.925 224.775 183.732 224.456C183.684 224.377 183.635 224.299 183.587 224.22C183.497 224.076 183.401 223.931 183.31 223.792C182.949 223.25 182.551 222.726 182.123 222.232C181.905 221.984 181.689 221.75 181.466 221.532C181.363 221.424 181.255 221.322 181.153 221.225C181.123 221.195 181.087 221.165 181.056 221.134C180.971 221.056 180.881 220.978 180.797 220.905C179.748 219.995 178.675 219.38 177.663 219.073C175.879 218.537 174.283 218.952 173.367 220.411C173.337 220.453 173.307 220.502 173.282 220.544C173.107 220.839 172.975 221.164 172.866 221.508C172.589 222.413 172.522 223.474 172.655 224.606Z" fill="url(#paint12_linear_28_2)"/>
<path d="M181.357 222.467L181.423 224.444C182.164 224.384 182.899 224.311 183.586 224.221C183.495 224.076 183.399 223.932 183.309 223.793C182.947 223.25 182.549 222.726 182.121 222.232C181.904 221.985 181.687 221.75 181.465 221.533C181.362 221.424 181.254 221.322 181.151 221.226C181.121 221.196 181.085 221.166 181.055 221.135C180.97 221.057 180.88 220.978 180.795 220.906C179.747 219.996 178.674 219.381 177.662 219.074C175.878 218.538 174.281 218.953 173.365 220.412C178.482 218.658 181.357 222.467 181.357 222.467Z" fill="#393843"/>
<path d="M173.077 224.576C173.077 224.576 174.782 226.836 176.536 227.433C178.289 228.03 181.682 232.134 181.682 232.134L181.422 224.444C177.416 224.745 173.077 224.576 173.077 224.576Z" fill="#393843"/>
<path d="M176.59 223.25C176.843 225.449 177.946 227.963 179.687 229.957C180.645 231.06 181.682 231.861 182.676 232.331V232.337C183.483 232.723 184.26 232.898 184.966 232.855C185.02 232.855 185.074 232.849 185.128 232.837C185.297 232.825 185.46 232.795 185.616 232.747C185.731 232.247 185.785 231.705 185.785 231.138C185.785 230.879 185.773 230.614 185.749 230.349C185.743 230.21 185.725 230.077 185.707 229.945C185.695 229.854 185.683 229.764 185.671 229.673C185.659 229.589 185.647 229.505 185.629 229.42C185.587 229.167 185.539 228.908 185.472 228.649C185.442 228.522 185.412 228.401 185.376 228.275C185.352 228.167 185.322 228.065 185.286 227.962C185.244 227.811 185.195 227.655 185.141 227.504C185.105 227.389 185.069 227.275 185.026 227.167C184.852 226.679 184.646 226.197 184.412 225.715C184.364 225.612 184.315 225.516 184.267 225.419C184.098 225.094 183.924 224.775 183.731 224.455C183.598 224.232 183.454 224.009 183.309 223.793C182.948 223.25 182.55 222.726 182.122 222.232C181.904 221.985 181.688 221.75 181.465 221.533C181.362 221.424 181.254 221.322 181.152 221.225C181.122 221.195 181.086 221.165 181.055 221.135C180.97 221.057 180.88 220.978 180.796 220.905C179.747 219.995 178.674 219.381 177.662 219.073C177.464 219.266 177.283 219.495 177.126 219.766C176.981 220.019 176.86 220.29 176.77 220.591C176.644 221.019 176.566 221.489 176.541 221.989C176.523 222.394 176.541 222.816 176.59 223.25Z" fill="url(#paint13_linear_28_2)"/>
<path d="M181.654 226.943L181.488 228.487V228.493L181.654 226.943L182.856 226.245L183.73 224.455C183.598 224.232 183.453 224.009 183.308 223.793C182.947 223.25 182.549 222.726 182.121 222.232C181.904 221.985 181.687 221.75 181.464 221.533C181.362 221.424 181.254 221.322 181.151 221.225C181.121 221.195 181.085 221.165 181.054 221.135C180.819 221.273 180.626 221.394 180.614 221.406L182.12 223.137L181.654 226.943Z" fill="url(#paint14_linear_28_2)"/>
<path d="M181.654 226.943L181.489 228.487V228.493L182.676 232.331L183.206 234.061C183.387 234.44 182.851 235.302 183.097 235.254C183.495 235.175 184.483 234.591 185.014 234.235C185.044 234.187 185.074 234.145 185.098 234.097C185.201 233.922 185.291 233.741 185.363 233.548C185.351 233.457 185.321 233.367 185.273 233.271L185.128 232.837L182.959 226.449L182.856 226.244L181.654 226.943Z" fill="url(#paint15_linear_28_2)"/>
<path d="M174.4 221.205C174.501 221.152 174.639 221.164 174.787 221.249L180.547 223.688L180.708 223.781L180.714 226.873L179.435 226.137L174.661 224.265C174.363 224.094 174.119 223.685 174.103 223.334C174.07 222.659 173.029 222.511 173.158 221.927C173.182 221.815 174.324 221.245 174.4 221.205Z" fill="url(#paint16_linear_28_2)"/>
<path d="M180.46 229.391L182.962 224.248C183.085 224.034 183.009 223.644 182.781 223.333C182.543 223.01 182.292 222.697 182.028 222.394C181.764 222.091 181.495 221.808 181.223 221.546C180.961 221.294 180.674 221.27 180.551 221.484L178.049 226.628L180.46 229.391Z" fill="#DFDFE3"/>
<path d="M179.508 227.568L179.502 224.476L179.34 224.383L173.581 221.945C173.321 221.795 173.094 221.871 173.038 222.129C172.909 222.713 172.864 223.353 172.896 224.029C172.913 224.38 173.157 224.789 173.455 224.96L178.228 226.831L179.508 227.568Z" fill="#DFDFE3"/>
<path d="M184.05 234.756C184.218 234.624 184.224 234.296 184.067 233.967L181.751 227.148L181.653 226.943L179.508 227.569L180.28 229.185L182.001 234.758C182.181 235.135 182.514 235.388 182.761 235.339C183.237 235.246 183.671 235.052 184.05 234.756Z" fill="#DFDFE3"/>
<path d="M182.764 234.576C182.736 234.545 182.702 234.499 182.672 234.437L180.908 228.772L178.708 226.249L173.826 224.316C173.755 224.275 173.644 224.099 173.639 223.993C173.62 223.593 173.63 223.212 173.671 222.854L179.614 225.398L180.934 222.306C181.116 222.49 181.294 222.683 181.467 222.881C181.714 223.165 181.954 223.465 182.182 223.773C182.233 223.842 182.26 223.912 182.27 223.957L180.912 227.115C180.912 227.115 183.4 234.297 183.402 234.302C183.21 234.425 182.995 234.516 182.764 234.576Z" fill="#4B4A4B"/>
<path d="M193.563 221.436L192.195 223.138L197.164 225.276V222.97L193.563 221.436Z" fill="#EBFBFF"/>
<path d="M192.653 220.268L193.562 221.435L192.195 223.137L188.957 217.809L192.653 220.268Z" fill="#ACCCD5"/>
<path d="M192.653 220.268L193.563 221.435L194.602 223.137L197.164 224.49L202.069 224.114L202.685 224.718L197.164 225.276L192.195 223.137L188.957 217.809L192.653 220.268Z" fill="#FE6D39"/>
<path d="M202.068 224.114L201.128 223.496L197.164 223.806L195.203 222.693L194.886 222L193.562 221.436L194.602 223.138L197.164 224.49L202.068 224.114Z" fill="#FFA032"/>
<path d="M177.379 205.798L106.046 159.648L121.377 159.009L125.074 159.107L151.52 173.447L176.528 202.189L177.379 205.798Z" fill="#1E1E1E"/>
<path d="M110.519 161.143L121.107 167.983L124.234 170.002L124.777 170.351L131.857 174.931H131.863L140.39 180.439L140.457 180.481L174.498 202.47L174.1 201.265L150.737 174.425L147.73 172.798L143.162 170.315L139.028 168.074L133.207 164.916L126.15 161.089L125.735 160.86L125.699 160.842L124.698 160.3H121.504L110.519 161.143Z" fill="#1E2329"/>
<path d="M168.509 198.605L169.209 195.648L171.13 197.857L170.688 200.012L168.509 198.605Z" fill="#1E1E1E"/>
<path d="M141.469 181.137L144.125 170.835L146.429 172.085L143.647 182.545L141.469 181.137Z" fill="#1E1E1E"/>
<path d="M120.117 168.225L125.591 160.009L127.896 161.259L122.296 169.632L120.117 168.225Z" fill="#1E1E1E"/>
<path d="M103.416 184.237L94.7147 172.443L96.7927 170.127V171.629L103.148 175.5L103.35 177.125L103.416 184.237Z" fill="#535C5E"/>
<path d="M170.09 222.967L170.287 225.593L124.632 199.234L124.631 196.722L170.09 222.967Z" fill="#404B4D"/>
<path d="M103.416 185.354L94.7147 175.858V172.443L102.458 177.301L103.35 178.242L103.416 185.354Z" fill="#404B4D"/>
<path d="M175.283 209.305L184.56 214.661L191.713 227V228.547L190.35 228.664L190.43 227.988L183.868 216.671L174.592 211.315L169.598 216.384L170.088 222.966L169.394 222.565L168.704 215.445L169.394 213.434L174.591 209.701L175.283 209.305Z" fill="#535C5E"/>
<path d="M174.594 211.315L183.87 216.671L190.432 227.989L190.352 230.279L189.539 229.7V227.897L189.536 227.895L183.502 217.483L174.964 212.553L169.601 216.385L169.598 216.383L170.288 225.592L169.398 225.078L168.708 215.445L174.594 211.315Z" fill="#404B4D"/>
<path d="M109.016 171.045L118.292 176.401L124.853 187.719L125.524 197.237L124.797 198.511L124.163 189.519L117.602 178.202L108.326 172.847L104.042 176.441L103.35 178.243L102.458 177.302L103.148 175.502L109.016 171.045Z" fill="#535C5E"/>
<path d="M108.326 172.846L117.602 178.201L124.163 189.518L125.524 197.237L124.632 199.234L123.27 189.426L117.232 179.013L108.698 174.086L103.352 178.24V180.754L102.458 180.239V177.301L108.326 172.846Z" fill="#404B4D"/>
<path d="M238.307 204.325L238.451 203.085L239.603 200.563L239.521 201.55L238.307 204.325Z" fill="#FE6D39"/>
<path d="M238.307 204.325L237.847 204.207L238.065 203.23L238.658 201.668L239.354 200.299L239.448 199.885L239.679 199.651L239.603 200.563L238.452 203.085L238.307 204.325Z" fill="#FFA032"/>
<path d="M173.788 193.189L181.19 201.057L218.703 179.399L214.404 175.381L213.898 176.581L209.552 177.635L195.25 186.136L189.275 184.885L173.788 193.189Z" fill="#272E36"/>
<path d="M100.876 161.827L103.189 163.163C103.556 163.376 103.752 163.763 103.701 164.18L103.332 167.226C103.26 167.822 102.512 168.187 101.986 167.883L99.6744 166.546C99.3071 166.333 99.1117 165.946 99.1617 165.53L99.5311 162.484C99.6031 161.887 100.35 161.523 100.876 161.827Z" fill="#3C3E42"/>
<path d="M169.271 164.559C170.097 166.255 172.355 165.779 172.996 165.375C173.637 164.971 178.983 161.954 179.791 161.337C180.599 160.719 179.587 158.753 179.587 158.753C179.587 158.753 173.637 162.257 169.271 164.559Z" fill="#1E1E1E"/>
<path d="M176.986 163.405L174.922 164.596C173.766 165.264 172.628 166.01 171.514 166.832C171.151 167.1 170.95 167.645 171.046 168.099L171.302 169.3C171.399 169.754 171.763 169.973 172.149 169.808C173.331 169.304 174.502 168.718 175.658 168.05L177.722 166.859C178.877 166.192 180.015 165.446 181.129 164.624C181.492 164.356 181.694 163.81 181.597 163.356L181.341 162.155C181.244 161.7 180.88 161.482 180.494 161.646C179.312 162.151 178.141 162.738 176.986 163.405Z" fill="#272E36"/>
<path d="M177.439 164.936C177.415 164.347 177.288 162.72 177.288 162.72L175.235 162.763C175.235 162.763 175.463 165.07 175.489 165.154C175.605 165.53 176.105 165.945 176.321 165.922C176.825 165.87 177.463 165.573 177.439 164.936Z" fill="#272E36"/>
<path d="M177.117 162.223C177.431 162.655 177.303 163.227 176.832 163.501C176.36 163.775 175.723 163.647 175.409 163.215C175.095 162.783 175.223 162.211 175.694 161.938C176.166 161.663 176.803 161.791 177.117 162.223Z" fill="#272E36"/>
<path d="M177.628 158.753L208.789 188.633L186.751 201.36L154.362 172.234L177.628 158.753Z" fill="#0B0E0F"/>
<path d="M216.618 204.502L221.457 205.7L219.128 207.089L216.618 204.502Z" fill="#6FC2DE"/>
<path d="M222.886 209.408L220.028 206.412L218.037 207.615L222.886 209.408Z" fill="#6FC2DE"/>
<path d="M236.38 208.727L234.969 208.34L211.863 221.68L209.969 223.983L210.086 221.61L236.985 206.08L236.378 208.736L236.374 208.739L236.38 208.727Z" fill="#E5E6EA"/>
<path d="M234.485 207.993L236.116 208.415L237.848 204.207L238.308 204.325L236.379 208.736L234.97 208.34L211.864 221.68L211.233 221.509L234.485 207.993Z" fill="#DEE9EC"/>
<path d="M211.864 221.68L211.233 221.509L209.97 222.963L201.644 223.835L202.685 224.719L209.97 223.983L211.864 221.68Z" fill="#DEE9EC"/>
<path d="M78.4649 199.768C80.2782 199.768 82.0862 199.33 83.7309 198.464L89.7822 195.118C93.0009 193.424 95.1822 190.248 95.6109 186.628C96.1835 181.794 96.8662 175.634 96.8662 173.748H96.0609C96.0609 175.596 95.3809 181.72 94.8109 186.534C94.4135 189.891 92.3902 192.836 89.3989 194.41L83.3475 197.756C80.6535 199.175 77.4755 199.353 74.6375 198.238C68.8155 195.955 57.7102 189.494 58.2722 187.99C58.7695 186.661 61.5709 186.606 64.5369 186.548C68.4469 186.47 72.8782 186.383 74.1855 183.354C74.3629 182.944 74.3582 182.516 74.1722 182.086C73.6602 180.901 71.6729 179.673 68.2655 178.437C65.9642 177.602 64.4262 175.38 64.4389 172.908C64.4569 169.328 64.4775 164.372 64.4775 160.647V160.56C64.4775 153.991 64.4775 151.272 62.5422 150L62.1002 150.674C63.6722 151.707 63.6722 154.299 63.6722 160.56V160.647C63.6722 164.371 63.6515 169.326 63.6335 172.904C63.6195 175.716 65.3709 178.244 67.9909 179.194C71.0915 180.319 73.0242 181.459 73.4329 182.405C73.5302 182.63 73.5342 182.83 73.4462 183.035C72.3442 185.588 68.1882 185.67 64.5209 185.742C61.1322 185.809 58.2062 185.866 57.5175 187.708C56.4309 190.614 71.7269 197.962 74.3429 198.988C75.6729 199.509 77.0702 199.768 78.4649 199.768Z" fill="#3279D2"/>
<path d="M100.241 163.456C100.798 163.045 101.456 162.897 101.516 162.893C101.923 162.866 102.747 162.944 103.267 164.274C103.419 164.662 103.445 165.097 103.392 165.4C103.371 165.522 103.019 166.1 102.885 166.276C102.517 166.758 101.975 167.106 101.817 166.964C101.66 166.823 100.241 163.456 100.241 163.456Z" fill="#A1A1A1"/>
<path d="M95.3942 174.275C95.4649 174.567 96.0022 174.918 96.4195 175.028C96.5435 175.061 96.6575 175.072 96.7449 175.055C96.7655 175.051 96.7862 175.043 96.8075 175.033L97.5849 174.77C97.8509 174.68 98.0589 174.472 98.1482 174.206L99.6882 170.359C100.028 169.348 100.66 168.458 101.512 167.816C102.002 167.445 102.458 167.016 102.599 166.708C102.813 166.238 102.863 165.791 102.833 165.403C102.821 165.247 102.796 165.101 102.764 164.966C102.722 164.789 102.668 164.631 102.612 164.5C102.494 164.219 102.375 164.054 102.375 164.054C102.375 164.054 102.11 163.596 101.506 163.325C101.334 163.248 101.186 163.195 101.06 163.159C100.766 163.076 100.451 163.139 100.21 163.327L98.7609 164.458C97.6282 165.343 96.8535 166.607 96.5795 168.018C96.5795 168.018 95.6909 172.185 95.4495 173.738C95.4169 173.951 95.3962 174.115 95.3909 174.212C95.3909 174.242 95.3915 174.263 95.3942 174.275Z" fill="url(#paint17_linear_28_2)"/>
<path d="M98.9856 165.513C100.008 166.128 99.481 166.702 98.8683 167.747C98.2563 168.791 97.1403 170.153 96.7796 170.009C96.4196 169.865 96.633 168.048 97.085 166.901C97.537 165.753 98.0523 165.221 98.2583 165.221C98.4656 165.22 98.9856 165.513 98.9856 165.513Z" fill="#3279D2"/>
<path d="M95.3942 174.275C95.4649 174.567 96.0022 174.918 96.4195 175.028C96.5435 175.061 96.6575 175.072 96.7449 175.055C96.7655 175.051 96.7862 175.043 96.8075 175.033L97.5849 174.77C97.8509 174.68 98.0589 174.472 98.1482 174.206L99.6882 170.359C100.028 169.348 100.66 168.458 101.512 167.816C102.002 167.445 102.458 167.016 102.599 166.708C102.813 166.238 102.863 165.791 102.833 165.403C102.821 165.247 102.796 165.101 102.764 164.966C102.722 164.789 102.668 164.631 102.612 164.5C102.615 164.841 102.47 165.162 102.182 165.441C101.551 166.053 99.7869 167.044 99.3902 168.611C98.9942 170.177 99.0662 171.115 98.6335 172.285C98.2015 173.455 97.8689 173.924 97.4722 174.167C97.0762 174.411 96.7249 174.473 96.5182 174.437C96.3662 174.411 95.7255 174.216 95.4509 173.738C95.4182 173.951 95.3975 174.115 95.3922 174.212C95.3909 174.242 95.3915 174.263 95.3942 174.275Z" fill="#3279D2"/>
<path d="M100.805 163.159C101.251 163.221 101.832 163.559 101.895 163.677C101.246 164.091 99.3372 165.613 99.3372 165.613C99.3372 165.613 98.8692 165.289 98.5359 165.181C98.8512 164.766 100.805 163.159 100.805 163.159Z" fill="#EBECEB"/>
<path d="M102.112 162.971C102.112 162.971 102.539 163.167 102.714 163.415C102.471 163.59 102.227 163.766 102.227 163.766C102.227 163.766 101.948 163.443 101.552 163.316C101.697 163.203 102.112 162.971 102.112 162.971Z" fill="#C7C7C7"/>
<path d="M98.2839 165.477C98.8025 165.641 99.2832 165.954 99.2832 166.188C99.2832 166.412 98.2125 168.474 97.3012 169.236C97.1692 169.347 96.9625 169.276 96.9352 169.106C96.9285 169.062 96.9265 169.015 96.9239 168.97C96.9145 168.817 97.0652 167.376 97.5125 166.494C97.9599 165.612 98.1859 165.446 98.2839 165.477Z" fill="#EBEBEB"/>
<path d="M96.4364 171.083L96.5684 172.294L96.1897 172.093L96.4364 171.083Z" fill="#3279D2"/>
<path d="M96.3291 172.167L95.9618 171.966L96.1358 173.293L96.3291 172.167Z" fill="#3279D2"/>
<path d="M45.9582 120.286L70.1602 106.222L73.7969 108.322L49.5955 122.386L45.9582 120.286Z" fill="#5D5E60"/>
<path d="M49.5957 122.386L49.5057 163.902L45.8684 161.802L45.9584 120.286L49.5957 122.386Z" fill="#5D5E60"/>
<path d="M51.9292 166.419L57.8932 162.953L69.9532 155.943L74.0286 153.576C75.1199 152.942 75.7926 151.777 75.7959 150.513L75.8926 107.024L52.0292 120.889L51.9292 166.419Z" fill="#D7D2D2"/>
<path d="M50.5772 118.37L74.4379 104.503L75.8926 107.023L52.0319 120.889L50.5772 118.37Z" fill="#E9E5E4"/>
<path d="M47.2058 116.423L71.0665 102.557L74.4385 104.503L50.5778 118.37L47.2058 116.423Z" fill="#DED8D7"/>
<path d="M50.5776 118.37L52.0322 120.89L51.9309 166.418L51.3989 166.721L48.3476 164.959C47.5749 164.513 47.0996 163.688 47.1016 162.795L47.2062 116.423L50.5776 118.37Z" fill="#AEA4A4"/>
<path d="M54.9976 156.789V137.649C62.241 133.223 72.4436 127.156 72.4436 127.156C72.6056 127.063 72.7383 127.163 72.7383 127.379V146.519C72.7383 146.735 62.2416 152.795 54.9976 156.789Z" fill="#3B3F40"/>
<path d="M64.0469 122.715L62.2576 124.363L64.3789 118.449L64.0469 122.715Z" fill="#7EA82F"/>
<path d="M63.5565 126.295L63.7458 122.339L65.4805 120.653L63.5565 126.295Z" fill="#7EA82F"/>
<path d="M62.1274 127.651C62.7234 127.651 63.3787 127.455 64.054 127.065C66.3367 125.747 68.1934 122.544 68.1934 119.924C68.1934 118.606 67.7347 117.616 66.9027 117.135C66.064 116.652 64.9647 116.752 63.8067 117.421C61.524 118.739 59.6674 121.941 59.6674 124.561C59.6674 125.879 60.126 126.869 60.958 127.35C61.308 127.551 61.702 127.651 62.1274 127.651ZM65.7327 117.328C66.0727 117.328 66.384 117.406 66.6567 117.564C67.33 117.953 67.7007 118.791 67.7007 119.925C67.7007 122.387 65.954 125.399 63.808 126.638C62.81 127.213 61.886 127.317 61.206 126.923C60.5327 126.534 60.162 125.695 60.162 124.562C60.162 122.1 61.9087 119.088 64.0547 117.849C64.6527 117.503 65.224 117.328 65.7327 117.328Z" fill="#7EA82F"/>
<path d="M57.8951 157.45V162.953L69.9551 155.942V150.46L57.8951 157.45Z" fill="#3B3F40"/>
<path d="M72.7393 146.519L54.9986 156.789L57.8946 157.451L69.9559 150.46L72.7393 146.519Z" fill="#3B3F40"/>
<path d="M69.5176 132.875L58.3429 139.327V151.12L69.5176 144.667V132.875Z" fill="#0486B8"/>
<path d="M66.9971 140.777L60.8644 144.318V147.615L66.9971 144.074V140.777Z" fill="#29B8F0"/>
</g>
<defs>
<filter id="filter0_dd_28_2" x="17.5918" y="177.744" width="291.661" height="114.706" filterUnits="userSpaceOnUse" color-interpolation-filters="sRGB">
<feFlood flood-opacity="0" result="BackgroundImageFix"/>
<feColorMatrix in="SourceAlpha" type="matrix" values="0 0 0 0 0 0 0 0 0 0 0 0 0 0 0 0 0 0 127 0" result="hardAlpha"/>
<feOffset dy="2.66667"/>
<feGaussianBlur stdDeviation="1.33333"/>
<feColorMatrix type="matrix" values="0 0 0 0 0 0 0 0 0 0 0 0 0 0 0 0 0 0 0.3 0"/>
<feBlend mode="normal" in2="BackgroundImageFix" result="effect1_dropShadow_28_2"/>
<feColorMatrix in="SourceAlpha" type="matrix" values="0 0 0 0 0 0 0 0 0 0 0 0 0 0 0 0 0 0 127 0" result="hardAlpha"/>
<feMorphology radius="4" operator="dilate" in="SourceAlpha" result="effect2_dropShadow_28_2"/>
<feOffset dy="5.33333"/>
<feGaussianBlur stdDeviation="4"/>
<feColorMatrix type="matrix" values="0 0 0 0 0 0 0 0 0 0 0 0 0 0 0 0 0 0 0.15 0"/>
<feBlend mode="normal" in2="effect1_dropShadow_28_2" result="effect2_dropShadow_28_2"/>
<feBlend mode="normal" in="SourceGraphic" in2="effect2_dropShadow_28_2" result="shape"/>
</filter>
<linearGradient id="paint0_linear_28_2" x1="206.823" y1="226.16" x2="192.919" y2="202.077" gradientUnits="userSpaceOnUse">
<stop stop-color="#181818"/>
<stop offset="0.2721" stop-color="#262626"/>
<stop offset="0.7744" stop-color="#2E2E2E"/>
</linearGradient>
<linearGradient id="paint1_linear_28_2" x1="140.559" y1="187.902" x2="126.655" y2="163.82" gradientUnits="userSpaceOnUse">
<stop stop-color="#181818"/>
<stop offset="0.2721" stop-color="#262626"/>
<stop offset="0.7744" stop-color="#2E2E2E"/>
</linearGradient>
<linearGradient id="paint2_linear_28_2" x1="192.153" y1="223.113" x2="193.651" y2="220.519" gradientUnits="userSpaceOnUse">
<stop offset="0.0568" stop-color="#92A4A8"/>
<stop offset="0.5973" stop-color="#C5F2FF"/>
<stop offset="0.6568" stop-color="#C0EBF7"/>
<stop offset="0.7479" stop-color="#B4D8E2"/>
<stop offset="0.8587" stop-color="#A0B9BF"/>
<stop offset="0.9228" stop-color="#92A4A8"/>
</linearGradient>
<linearGradient id="paint3_linear_28_2" x1="108.421" y1="196.977" x2="117.431" y2="181.371" gradientUnits="userSpaceOnUse">
<stop stop-color="#141414"/>
<stop offset="0.4442" stop-color="#1E1E1E"/>
<stop offset="0.783" stop-color="#202020"/>
<stop offset="0.9805" stop-color="#292929"/>
<stop offset="1" stop-color="#2A2A2A"/>
</linearGradient>
<linearGradient id="paint4_linear_28_2" x1="108.372" y1="196.775" x2="117.039" y2="181.763" gradientUnits="userSpaceOnUse">
<stop stop-color="#161616"/>
<stop offset="0.3047" stop-color="#1A1A1A"/>
<stop offset="0.7902" stop-color="#1E1E1E"/>
<stop offset="0.8" stop-color="#1E1E1E"/>
</linearGradient>
<linearGradient id="paint5_linear_28_2" x1="117.575" y1="197.122" x2="108.274" y2="181.013" gradientUnits="userSpaceOnUse">
<stop offset="0.273" stop-color="#ECEEF7"/>
<stop offset="0.7703" stop-color="#9C9AA8"/>
</linearGradient>
<linearGradient id="paint6_linear_28_2" x1="112.792" y1="192.011" x2="117.38" y2="184.064" gradientUnits="userSpaceOnUse">
<stop offset="0.2622" stop-color="#393843"/>
<stop offset="0.7811" stop-color="#23222E"/>
</linearGradient>
<linearGradient id="paint7_linear_28_2" x1="113.498" y1="186.124" x2="117.185" y2="187.181" gradientUnits="userSpaceOnUse">
<stop stop-color="#ADAEB8"/>
<stop offset="0.0762" stop-color="#BABCC5"/>
<stop offset="0.1993" stop-color="#C9CBD4"/>
<stop offset="0.3421" stop-color="#D2D4DC"/>
<stop offset="0.5486" stop-color="#D5D7DF"/>
<stop offset="0.6619" stop-color="#C0C1CA"/>
<stop offset="1" stop-color="#868490"/>
</linearGradient>
<linearGradient id="paint8_linear_28_2" x1="115.213" y1="193.109" x2="118.195" y2="191.904" gradientUnits="userSpaceOnUse">
<stop stop-color="#ADAEB8"/>
<stop offset="0.0762" stop-color="#BABCC5"/>
<stop offset="0.1993" stop-color="#C9CBD4"/>
<stop offset="0.3421" stop-color="#D2D4DC"/>
<stop offset="0.5486" stop-color="#D5D7DF"/>
<stop offset="0.6619" stop-color="#C0C1CA"/>
<stop offset="1" stop-color="#868490"/>
</linearGradient>
<linearGradient id="paint9_linear_28_2" x1="110.16" y1="187.026" x2="111.882" y2="184.044" gradientUnits="userSpaceOnUse">
<stop stop-color="#8A8B93"/>
<stop offset="0.0719" stop-color="#96989F"/>
<stop offset="0.1962" stop-color="#A5A7AE"/>
<stop offset="0.3403" stop-color="#AEB0B7"/>
<stop offset="0.5486" stop-color="#B1B3BA"/>
<stop offset="0.6539" stop-color="#9E9FA7"/>
<stop offset="1" stop-color="#63626B"/>
</linearGradient>
<linearGradient id="paint10_linear_28_2" x1="174.686" y1="235.235" x2="183.696" y2="219.628" gradientUnits="userSpaceOnUse">
<stop stop-color="#141414"/>
<stop offset="0.4442" stop-color="#1E1E1E"/>
<stop offset="0.783" stop-color="#202020"/>
<stop offset="0.9805" stop-color="#292929"/>
<stop offset="1" stop-color="#2A2A2A"/>
</linearGradient>
<linearGradient id="paint11_linear_28_2" x1="174.637" y1="235.033" x2="183.304" y2="220.02" gradientUnits="userSpaceOnUse">
<stop stop-color="#161616"/>
<stop offset="0.3047" stop-color="#1A1A1A"/>
<stop offset="0.7902" stop-color="#1E1E1E"/>
<stop offset="0.8" stop-color="#1E1E1E"/>
</linearGradient>
<linearGradient id="paint12_linear_28_2" x1="183.839" y1="235.38" x2="174.539" y2="219.27" gradientUnits="userSpaceOnUse">
<stop offset="0.273" stop-color="#ECEEF7"/>
<stop offset="0.7703" stop-color="#9C9AA8"/>
</linearGradient>
<linearGradient id="paint13_linear_28_2" x1="179.056" y1="230.268" x2="183.644" y2="222.321" gradientUnits="userSpaceOnUse">
<stop offset="0.2622" stop-color="#393843"/>
<stop offset="0.7811" stop-color="#23222E"/>
</linearGradient>
<linearGradient id="paint14_linear_28_2" x1="179.762" y1="224.381" x2="183.449" y2="225.438" gradientUnits="userSpaceOnUse">
<stop stop-color="#ADAEB8"/>
<stop offset="0.0762" stop-color="#BABCC5"/>
<stop offset="0.1993" stop-color="#C9CBD4"/>
<stop offset="0.3421" stop-color="#D2D4DC"/>
<stop offset="0.5486" stop-color="#D5D7DF"/>
<stop offset="0.6619" stop-color="#C0C1CA"/>
<stop offset="1" stop-color="#868490"/>
</linearGradient>
<linearGradient id="paint15_linear_28_2" x1="181.477" y1="231.366" x2="184.459" y2="230.161" gradientUnits="userSpaceOnUse">
<stop stop-color="#ADAEB8"/>
<stop offset="0.0762" stop-color="#BABCC5"/>
<stop offset="0.1993" stop-color="#C9CBD4"/>
<stop offset="0.3421" stop-color="#D2D4DC"/>
<stop offset="0.5486" stop-color="#D5D7DF"/>
<stop offset="0.6619" stop-color="#C0C1CA"/>
<stop offset="1" stop-color="#868490"/>
</linearGradient>
<linearGradient id="paint16_linear_28_2" x1="176.425" y1="225.283" x2="178.146" y2="222.301" gradientUnits="userSpaceOnUse">
<stop stop-color="#ADAEB8"/>
<stop offset="0.0762" stop-color="#BABCC5"/>
<stop offset="0.1993" stop-color="#C9CBD4"/>
<stop offset="0.3421" stop-color="#D2D4DC"/>
<stop offset="0.5486" stop-color="#D5D7DF"/>
<stop offset="0.6619" stop-color="#C0C1CA"/>
<stop offset="1" stop-color="#868490"/>
</linearGradient>
<linearGradient id="paint17_linear_28_2" x1="101.743" y1="173.95" x2="94.0441" y2="161.092" gradientUnits="userSpaceOnUse">
<stop stop-color="#A6A6A6"/>
<stop offset="0.000477713" stop-color="#A6A6A6"/>
<stop offset="0.1968" stop-color="#C0C0C0"/>
<stop offset="0.3725" stop-color="#D0D0D0"/>
<stop offset="0.5091" stop-color="#D6D6D6"/>
<stop offset="0.6103" stop-color="#E4E4E4"/>
<stop offset="0.7346" stop-color="#EDEDED"/>
<stop offset="0.9162" stop-color="#F0F0F0"/>
</linearGradient>
<clipPath id="clip0_28_2">
<rect width="321.721" height="300" fill="white" transform="matrix(-1 0 0 1 322 0)"/>
</clipPath>
</defs>
</svg>
