<svg width="320" height="300" viewBox="0 0 320 300" fill="none" xmlns="http://www.w3.org/2000/svg">
<path d="M0 178.233C0 179.935 1.14651 181.636 3.3631 182.95L180.691 286.488C185.047 289.117 192.156 289.117 196.512 286.488L316.743 215.813C318.884 214.576 319.954 212.875 319.954 211.251V222.772C319.954 224.473 318.884 226.097 316.667 227.412L196.512 298.086C192.156 300.638 185.047 300.638 180.691 298.086L3.28667 194.472C1.07008 193.157 0 191.456 0 189.832V178.233Z" fill="#845E40"/>
<path d="M0 171.506C0 173.207 1.14651 174.909 3.3631 176.223L180.691 279.761C185.047 282.39 192.156 282.39 196.512 279.761L316.743 209.086C318.884 207.849 319.954 206.148 319.954 204.524V216.045C319.954 217.746 318.884 219.37 316.667 220.685L196.512 291.359C192.156 293.911 185.047 293.911 180.691 291.359L3.28667 187.745C1.07008 186.43 0 184.729 0 183.105V171.506Z" fill="#A37B60"/>
<path d="M3.3631 176.223L180.691 279.761C185.047 282.39 192.156 282.39 196.512 279.761L316.743 209.086C318.807 207.926 319.877 206.38 319.954 204.833V207.926C319.954 209.627 318.884 211.251 316.667 212.566L196.512 283.24C192.156 285.792 185.047 285.792 180.691 283.24L3.28667 179.625C1.22295 178.388 0.152868 176.842 0 175.218V171.506C0 173.207 1.14651 174.909 3.3631 176.223Z" fill="#BC8867"/>
<path d="M316.666 199.807C321.099 202.436 321.099 206.534 316.742 209.086L196.511 279.76C192.154 282.389 185.046 282.389 180.689 279.76L3.36185 176.223C-1.07134 173.671 -1.07134 169.496 3.28542 166.944L123.516 96.2693C127.873 93.7175 134.905 93.7175 139.338 96.2693L316.666 199.807Z" fill="#9AAA57"/>
<path d="M102.955 130.988V135.396L106.471 137.484L106.395 133.076L102.955 130.988Z" fill="#8EA164"/>
<g style="mix-blend-mode:multiply">
<path d="M186.576 299.865C184.436 299.633 182.372 299.015 180.691 298.087L3.28667 194.472C1.07008 193.157 0 191.456 0 189.832V183.337C0 183.234 0 183.157 0 183.105V171.506C0 173.207 1.14651 174.909 3.3631 176.223L180.691 279.761C182.372 280.766 184.436 281.385 186.576 281.617V299.865Z" fill="#EAE8E5"/>
</g>
<path d="M40.7399 125.884V157.278C40.7399 157.278 39.8227 157.819 39.1348 158.206V125.884H40.7399Z" fill="#996D4F"/>
<path d="M39.1364 125.884V158.206C38.4485 157.819 37.5312 157.278 37.5312 157.278V125.884H39.1364Z" fill="#845E40"/>
<path d="M47.0079 133.617C46.7786 134.003 45.0971 137.406 41.2753 138.102C38.218 138.72 35.0842 137.328 33.2498 134.699C28.6637 135.318 24.6127 132.534 23.7719 128.745C23.1604 125.962 24.3069 123.023 26.6764 121.013C23.2369 118.152 21.9375 113.744 23.2369 109.955C24.6891 106.089 28.358 104.62 28.9694 104.388C29.8866 100.908 32.6383 98.1248 36.0778 97.3516C39.7467 96.501 43.5684 97.8155 45.9378 100.754C48.8423 101.063 51.2882 103.074 52.129 105.78C53.2755 109.492 50.9061 112.507 50.7532 112.662C50.8296 112.739 53.5048 114.904 53.0462 118.307C52.8169 120.472 51.3647 122.327 49.3009 123.178C49.6831 123.333 51.8997 124.492 52.3583 126.735C52.8934 129.364 50.7532 132.612 47.0079 133.617Z" fill="#81B06E"/>
<g style="mix-blend-mode:multiply">
<path d="M53.0449 118.307C53.5035 114.904 50.8283 112.739 50.7518 112.662C50.9047 112.507 53.2742 109.492 52.1276 105.78C51.2869 103.074 48.841 101.063 45.9365 100.754C45.0193 99.6715 43.9492 98.7436 42.7262 98.125C45.0193 101.991 46.4715 106.785 46.4715 112.121C46.4715 124.261 39.0574 134.158 29.7324 134.468C30.8789 134.777 32.0254 134.854 33.2484 134.7C35.0828 137.329 38.2166 138.72 41.274 138.102C45.0957 137.406 46.7773 134.004 47.0066 133.617C50.7518 132.612 52.892 129.364 52.357 126.735C51.8983 124.493 49.6818 123.333 49.2996 123.178C51.3633 122.328 52.8156 120.472 53.0449 118.307Z" fill="#F1F2F2"/>
</g>
<path d="M139.112 144.442L209.661 102.919L209.431 170.269L138.959 211.792L139.112 144.442Z" fill="#B01065"/>
<path d="M139.111 137.251L209.66 95.8052V102.919L139.111 144.442V137.251Z" fill="#B01065"/>
<path d="M139.264 98.8981L209.737 57.4521L209.66 95.8051L139.111 137.251L139.264 98.8981Z" fill="#EF5F7A"/>
<path d="M58.3965 51.653L128.945 10.207L209.736 57.4523L139.264 98.8983L58.3965 51.653Z" fill="#C0156E"/>
<path d="M139.263 98.8981L139.11 137.251V144.442L138.957 211.792L58.0898 164.547L58.3956 51.6528L139.263 98.8981Z" fill="#D3506C"/>
<path d="M207.215 184.032L277.764 142.586L277.535 210.091L207.062 251.537L207.215 184.032Z" fill="#EF5F7A"/>
<path d="M207.215 184.033L207.062 251.537L138.959 211.792L139.112 144.442L207.215 184.033Z" fill="#D3506C"/>
<path d="M139.111 144.442L209.66 102.919L277.763 142.586L207.214 184.032L139.111 144.442Z" fill="#C0156E"/>
<path d="M139.111 137.251L209.66 95.8052L280.897 137.406L210.424 178.929L139.111 137.251Z" fill="#CCCCCC"/>
<path d="M210.424 178.929V186.043L207.214 184.187L139.111 144.287V137.251L210.424 178.929Z" fill="#6B6B6B"/>
<path d="M144.613 94.8776L215.162 53.4316L215.086 60.5455L144.613 101.991V94.8776Z" fill="#9B9B9B"/>
<path d="M53.123 41.446L123.672 0L215.164 53.4313L144.615 94.8772L53.123 41.446Z" fill="#CCCCCC"/>
<path d="M144.615 94.8771V101.991L139.264 98.898L58.397 51.6526L53.123 48.5597V41.4458L144.615 94.8771Z" fill="#6B6B6B"/>
<path d="M110.142 105.47V115.213L104.486 111.888L104.563 102.146L110.142 105.47Z" fill="#93B8C7"/>
<path d="M110.142 93.7174V103.46L104.562 100.213V90.4697L110.142 93.7174Z" fill="#93B8C7"/>
<path d="M88.3626 131.838V152.639L67.4961 140.421L67.5725 119.698L88.3626 131.838Z" fill="#7C431C"/>
<path fill-rule="evenodd" clip-rule="evenodd" d="M66.1939 116.992L89.7356 130.833L89.6592 182.563L66.041 168.722L66.1939 116.992ZM88.3598 152.639V131.839L67.5697 119.699L67.4933 140.422L88.3598 152.639ZM88.2834 179.934L88.3598 159.134L67.4933 146.994L67.4168 167.717L88.2834 179.934Z" fill="#552F13"/>
<path d="M116.869 97.6609V107.404L111.289 104.079V94.3359L116.869 97.6609Z" fill="#93B8C7"/>
<path fill-rule="evenodd" clip-rule="evenodd" d="M103.414 87.7637L118.013 96.3467L117.937 121.786L103.338 113.203L103.414 87.7637ZM116.867 119.08V109.337L111.287 106.09L111.211 115.832L116.867 119.08ZM116.943 107.327V97.5839L111.363 94.3363V104.079L116.943 107.327ZM110.141 115.137V105.394L104.561 102.146V111.889L110.141 115.137ZM110.141 103.383L110.217 93.6403L104.561 90.3927V100.136L110.141 103.383Z" fill="#D3CDD0"/>
<path d="M116.867 109.337V119.08L111.211 115.832L111.287 106.089L116.867 109.337Z" fill="#93B8C7"/>
<path d="M139.111 141.581V144.442L58.3203 97.738V94.4131L139.111 141.581Z" fill="#EF5F7A"/>
<path d="M88.2826 159.134V179.857L67.416 167.717L67.4924 146.917L88.2826 159.134Z" fill="#7C431C"/>
<path fill-rule="evenodd" clip-rule="evenodd" d="M95.926 135.241L110.525 143.824L110.449 172.047L95.8496 163.542L95.926 135.241ZM109.302 168.181L109.378 157.278L103.722 154.031V164.856L109.302 168.181ZM109.302 155.19L109.378 144.365L103.799 141.04L103.722 151.866L109.302 155.19ZM102.576 164.315V153.489L96.9961 150.242L96.9197 161.067L102.576 164.315ZM102.652 151.247V140.421L97.0726 137.174V147.999L102.652 151.247Z" fill="#D3CDD0"/>
<path d="M123.365 165.243V176.3L117.709 173.053L117.785 161.995L123.365 165.243Z" fill="#93B8C7"/>
<path d="M123.441 151.865L123.365 163L117.785 159.752V148.618L123.441 151.865Z" fill="#93B8C7"/>
<path fill-rule="evenodd" clip-rule="evenodd" d="M116.715 146.685L131.314 155.268L131.238 184.187L116.562 175.604L116.715 146.685ZM123.442 176.3V165.242L117.862 161.995L117.785 173.052L123.442 176.3ZM123.518 163V151.865L117.938 148.618V159.675L123.518 163ZM130.168 180.321L130.244 169.186L124.588 165.938V176.996L130.168 180.321ZM130.168 167.021L130.244 155.964L124.665 152.639L124.588 163.773L130.168 167.021Z" fill="#D3CDD0"/>
<path d="M109.381 157.356L109.304 168.181L103.725 164.933V154.108L109.381 157.356Z" fill="#93B8C7"/>
<path d="M109.379 144.365V155.19L103.799 151.865V141.04L109.379 144.365Z" fill="#93B8C7"/>
<path d="M102.652 140.422V151.247L96.9961 147.922L97.0725 137.097L102.652 140.422Z" fill="#93B8C7"/>
<path d="M102.652 153.412L102.576 164.237L96.9961 160.99V150.164L102.652 153.412Z" fill="#93B8C7"/>
<path fill-rule="evenodd" clip-rule="evenodd" d="M95.928 135.241L110.527 143.824L110.45 172.047L95.8516 163.542L95.928 135.241ZM109.304 168.181L109.38 157.278L103.724 154.031V164.856L109.304 168.181ZM109.304 155.19L109.38 144.365L103.801 141.04L103.724 151.866L109.304 155.19ZM102.578 164.315V153.489L96.9981 150.242L96.9216 161.067L102.578 164.315ZM102.654 151.247V140.421L97.0745 137.174V147.999L102.654 151.247Z" fill="#D3CDD0"/>
<path d="M130.091 169.186V180.244L124.512 176.996V165.938L130.091 169.186Z" fill="#93B8C7"/>
<path d="M130.168 155.809L130.091 166.944L124.512 163.619L124.588 152.562L130.168 155.809Z" fill="#93B8C7"/>
<path d="M123.365 165.243V176.3L117.709 173.053L117.785 161.995L123.365 165.243Z" fill="#93B8C7"/>
<path d="M123.441 151.865L123.365 163L117.785 159.752V148.618L123.441 151.865Z" fill="#93B8C7"/>
<path fill-rule="evenodd" clip-rule="evenodd" d="M116.715 146.685L131.314 155.268L131.238 184.187L116.562 175.604L116.715 146.685ZM123.442 176.3V165.242L117.862 161.995L117.785 173.052L123.442 176.3ZM123.518 163V151.865L117.938 148.618V159.675L123.518 163ZM130.168 180.321L130.244 169.186L124.588 165.938V176.996L130.168 180.321ZM130.168 167.021L130.244 155.964L124.665 152.639L124.588 163.773L130.168 167.021Z" fill="#D3CDD0"/>
<path d="M163.722 192.074V202.9L158.143 199.652V188.827L163.722 192.074Z" fill="#93B8C7"/>
<path d="M163.799 179.084L163.722 189.909L158.143 186.584V175.759L163.799 179.084Z" fill="#93B8C7"/>
<path d="M157.072 175.14L156.996 185.966L151.416 182.641V171.815L157.072 175.14Z" fill="#93B8C7"/>
<path d="M156.996 188.13V198.956L151.416 195.708V184.883L156.996 188.13Z" fill="#93B8C7"/>
<path fill-rule="evenodd" clip-rule="evenodd" d="M150.27 169.959L164.945 178.543L164.869 206.766L150.193 198.26L150.27 169.959ZM163.722 202.9V192.074L158.143 188.749V199.575L163.722 202.9ZM163.722 189.909V179.084L158.143 175.759V186.584L163.722 189.909ZM156.92 199.034L156.996 188.208L151.34 184.96V195.786L156.92 199.034ZM156.92 185.966L156.996 175.14L151.416 171.893L151.34 182.718L156.92 185.966Z" fill="#D3CDD0"/>
<path d="M184.516 203.905L184.439 214.962L178.859 211.715L178.936 200.657L184.516 203.905Z" fill="#93B8C7"/>
<path d="M184.515 190.528V201.663L178.936 198.338V187.28L184.515 190.528Z" fill="#93B8C7"/>
<path d="M177.789 199.961L177.713 211.019L172.133 207.771V196.714L177.789 199.961Z" fill="#93B8C7"/>
<path d="M177.789 186.661V197.719L172.133 194.471L172.209 183.336L177.789 186.661Z" fill="#93B8C7"/>
<path fill-rule="evenodd" clip-rule="evenodd" d="M171.063 181.403L185.662 189.986L185.585 218.906L170.986 210.323L171.063 181.403ZM177.713 211.019L177.789 199.961L172.133 196.714V207.771L177.713 211.019ZM177.713 197.719L177.789 186.584L172.209 183.336L172.133 194.394L177.713 197.719ZM184.439 215.04V203.905L178.859 200.657V211.715L184.439 215.04ZM184.439 201.74V190.682L178.859 187.357V198.492L184.439 201.74Z" fill="#D3CDD0"/>
<path d="M82.0136 89.0777V98.8979L76.3574 95.6503L76.4338 85.8301L82.0136 89.0777Z" fill="#93B8C7"/>
<path d="M82.0152 77.3245V87.1447L76.4355 83.8197V73.9995L82.0152 77.3245Z" fill="#93B8C7"/>
<path d="M88.7418 92.0162V101.836L83.1621 98.5888V88.7686L88.7418 92.0162Z" fill="#93B8C7"/>
<path fill-rule="evenodd" clip-rule="evenodd" d="M75.2913 71.3706L89.8902 79.8763V105.548L75.2148 96.965L75.2913 71.3706ZM88.7437 101.914V92.0936L83.164 88.7686V98.5889L88.7437 101.914ZM81.9411 98.9755L82.0175 89.1553L76.4378 85.9076L76.3614 95.7278L81.9411 98.9755ZM88.7437 91.0884V81.2682L83.164 78.0205V87.8407L88.7437 91.0884ZM81.9411 87.1448L82.0175 77.3246L76.4378 74.077L76.3614 83.8972L81.9411 87.1448Z" fill="#D3CDD0"/>
<path d="M88.8183 81.2683L88.7418 91.0112L83.1621 87.7636V77.9434L88.8183 81.2683Z" fill="#93B8C7"/>
<path d="M261.635 185.115V193.002L256.514 196.018L256.438 188.131L261.635 185.115Z" fill="#93B8C7"/>
<path d="M261.559 175.604L261.635 183.568L256.438 186.507V178.62L261.559 175.604Z" fill="#93B8C7"/>
<path d="M210.426 178.929L280.898 137.406V144.597L210.426 186.043V178.929Z" fill="#9B9B9B"/>
<path d="M181.76 117.765L210.27 100.986L239.085 117.843L210.575 134.622L181.76 117.765Z" fill="#6B6B6B"/>
<path d="M210.576 134.622V137.483L209.276 136.787L181.684 120.626L181.76 117.765L210.576 134.622Z" fill="#484848"/>
<path d="M210.576 134.622L239.086 117.843V120.704L210.576 137.483V134.622Z" fill="#585858"/>
<path d="M241.072 187.589V195.554L235.951 198.492V190.605L241.072 187.589Z" fill="#93B8C7"/>
<path d="M241.072 197.101V205.065L235.951 208.003V200.116L241.072 197.101Z" fill="#93B8C7"/>
<path fill-rule="evenodd" clip-rule="evenodd" d="M228.693 193.234L242.069 185.424L242.146 206.07L228.77 213.88L228.693 193.234ZM234.885 208.622V200.735L229.763 203.75V211.637L234.885 208.622ZM234.885 199.111L234.808 191.224L229.687 194.239V202.126L234.885 199.111ZM241.076 204.987V197.1L235.955 200.116V208.003L241.076 204.987ZM241.076 195.477V187.589L235.878 190.605L235.955 198.492L241.076 195.477Z" fill="#F6F1F4"/>
<path d="M234.883 200.734L234.959 208.621L229.762 211.637V203.75L234.883 200.734Z" fill="#93B8C7"/>
<path d="M234.883 191.224V199.111L229.762 202.126V194.239L234.883 191.224Z" fill="#93B8C7"/>
<path fill-rule="evenodd" clip-rule="evenodd" d="M249.178 181.249L262.63 173.439L262.707 194.085L249.254 201.894L249.178 181.249ZM255.445 196.636L255.369 188.749L250.248 191.765V199.652L255.445 196.636ZM261.637 193.002V185.115L256.515 188.131V196.018L261.637 193.002ZM255.445 187.125L255.369 179.238L250.248 182.254V190.141L255.445 187.125ZM261.637 183.491V175.604L256.515 178.62V186.507L261.637 183.491Z" fill="#F6F1F4"/>
<path d="M255.444 188.749V196.636L250.323 199.652L250.246 191.765L255.444 188.749Z" fill="#93B8C7"/>
<path d="M255.367 179.238L255.444 187.125L250.246 190.141V182.254L255.367 179.238Z" fill="#93B8C7"/>
<path d="M298.933 172.897V204.291C298.933 204.291 298.016 204.755 297.328 205.219V172.897H298.933Z" fill="#996D4F"/>
<path d="M297.33 172.897V205.219C296.565 204.755 295.725 204.291 295.725 204.291V172.897H297.33Z" fill="#845E40"/>
<path d="M305.201 180.63C304.971 181.017 303.29 184.419 299.468 185.115C296.411 185.734 293.277 184.342 291.442 181.713C286.856 182.331 282.805 179.47 281.965 175.759C281.353 172.975 282.5 169.959 284.793 167.949C281.43 165.165 280.13 160.68 281.43 156.969C282.805 153.025 286.551 151.633 287.162 151.402C288.079 147.845 290.831 145.138 294.271 144.365C297.939 143.437 301.761 144.829 304.131 147.767C307.035 148.077 309.481 150.087 310.322 152.793C311.468 156.505 309.099 159.443 308.946 159.675C309.022 159.753 311.698 161.84 311.239 165.243C310.933 167.485 309.557 169.341 307.494 170.114C307.876 170.346 310.092 171.506 310.551 173.748C311.01 176.377 308.946 179.625 305.201 180.63Z" fill="#81B06E"/>
<g style="mix-blend-mode:multiply">
<path d="M311.238 165.243C311.697 161.84 309.022 159.753 308.945 159.675C309.098 159.443 311.468 156.505 310.321 152.793C309.48 150.087 307.034 148.077 304.13 147.767C303.213 146.607 302.066 145.757 300.843 145.138C303.213 148.927 304.665 153.799 304.665 159.134C304.665 171.274 297.251 181.094 287.926 181.481C289.072 181.79 290.219 181.867 291.442 181.713C293.276 184.342 296.41 185.734 299.467 185.115C303.289 184.419 304.971 181.017 305.2 180.63C308.945 179.625 311.009 176.377 310.55 173.748C310.092 171.506 307.875 170.346 307.493 170.114C309.557 169.341 310.932 167.485 311.238 165.243Z" fill="#F1F2F2"/>
</g>
<path d="M274.474 194.935V226.328C274.474 226.328 273.557 226.792 272.869 227.256V194.935H274.474Z" fill="#996D4F"/>
<path d="M272.871 194.935V227.256C272.106 226.792 271.266 226.328 271.266 226.328V194.935H272.871Z" fill="#845E40"/>
<path d="M280.744 202.667C280.514 203.054 278.833 206.456 275.011 207.152C271.954 207.771 268.82 206.379 266.985 203.75C262.399 204.368 258.348 201.507 257.508 197.796C256.896 195.012 258.043 192.074 260.336 189.986C256.973 187.202 255.673 182.718 256.973 179.006C258.348 175.062 262.094 173.671 262.705 173.439C263.622 169.882 266.374 167.175 269.813 166.402C273.482 165.474 277.304 166.866 279.673 169.804C282.578 170.114 285.024 172.124 285.865 174.83C287.011 178.542 284.642 181.48 284.489 181.712C284.565 181.79 287.24 183.877 286.782 187.28C286.476 189.522 285.1 191.378 283.037 192.151C283.419 192.383 285.635 193.543 286.094 195.785C286.553 198.414 284.489 201.662 280.744 202.667Z" fill="#81B06E"/>
<g style="mix-blend-mode:multiply">
<path d="M286.781 187.28C287.24 183.877 284.565 181.79 284.488 181.712C284.641 181.48 287.01 178.542 285.864 174.83C285.023 172.124 282.577 170.114 279.673 169.804C278.756 168.644 277.609 167.794 276.386 167.175C278.756 171.042 280.208 175.836 280.208 181.171C280.208 193.311 272.794 203.131 263.469 203.518C264.615 203.827 265.762 203.904 266.985 203.75C268.819 206.379 271.953 207.771 275.01 207.152C278.832 206.456 280.514 203.054 280.743 202.667C284.488 201.662 286.552 198.414 286.093 195.785C285.635 193.543 283.418 192.383 283.036 192.151C285.1 191.378 286.475 189.522 286.781 187.28Z" fill="#F1F2F2"/>
</g>
<path d="M89.6574 182.563L66.0392 168.722L28.4336 190.837L52.0518 204.678L89.6574 182.563Z" fill="#BC8867"/>
<path d="M183.9 224.086V266.383C183.9 266.383 182.677 267.079 181.684 267.62V224.086H183.9Z" fill="#996D4F"/>
<path d="M181.685 224.086V267.62C180.692 267.079 179.469 266.383 179.469 266.383V224.086H181.685Z" fill="#845E40"/>
<path d="M203.391 220.452C205.684 217.282 205.073 214.112 201.71 212.101C202.627 208.235 200.869 205.606 197.047 204.987C196.436 201.044 193.761 199.265 190.015 200.193C187.952 196.868 184.818 196.25 181.684 198.492C178.55 196.25 175.416 196.868 173.353 200.193C169.607 199.265 166.932 201.044 166.321 204.987C162.499 205.606 160.741 208.235 161.658 212.101C158.295 214.112 157.684 217.282 159.977 220.452C157.684 223.7 158.295 226.793 161.658 228.881C160.741 232.747 162.499 235.376 166.321 235.995C166.932 239.861 169.607 241.717 173.353 240.789C175.416 244.114 178.55 244.732 181.684 242.413C184.818 244.732 187.952 244.114 190.015 240.789C193.761 241.717 196.436 239.861 197.047 235.995C200.869 235.376 202.627 232.747 201.71 228.881C205.073 226.793 205.684 223.7 203.391 220.452Z" fill="#B2AC60"/>
<path d="M201.71 212.101C202.627 208.235 200.869 205.606 197.047 204.987C196.436 201.044 193.761 199.265 190.015 200.193C187.952 196.868 184.818 196.25 181.684 198.492C178.55 196.25 175.416 196.868 173.353 200.193C169.607 199.265 166.932 201.044 166.321 204.987C162.499 205.606 160.741 208.235 161.658 212.101C158.295 214.112 157.684 217.282 159.977 220.452C157.684 223.7 158.295 226.793 161.658 228.881C160.741 232.747 162.499 235.376 166.321 235.995C166.372 236.098 166.397 236.201 166.397 236.304C167.06 236.304 167.798 236.227 168.614 236.072C170.83 239.706 174.193 240.402 177.633 237.85C181.072 240.402 184.512 239.706 186.729 236.072C190.856 237.077 193.684 235.067 194.372 230.891C198.576 230.195 200.487 227.257 199.493 223.081C203.086 220.839 203.773 217.437 201.328 213.957C201.684 213.442 201.965 212.926 202.168 212.411C202.015 212.308 201.863 212.204 201.71 212.101Z" fill="#BFBB68"/>
</svg>
