<svg width="300" height="419" viewBox="0 0 300 419" fill="none" xmlns="http://www.w3.org/2000/svg">
<g filter="url(#filter0_dd_28_1888)">
<g clip-path="url(#clip0_28_1888)">
<rect x="18" y="10" width="264" height="383" rx="12" fill="#20A2AF"/>
<rect x="14" y="275" width="271" height="118" fill="#127388"/>
<path d="M143.52 175L150 168.52L156.48 175L159 172.48L152.52 166L159 159.52L156.48 157L150 163.48L143.52 157L141 159.52L147.48 166L141 172.48L143.52 175ZM150 184C147.51 184 145.17 183.527 142.98 182.582C140.79 181.636 138.885 180.354 137.265 178.735C135.645 177.116 134.363 175.211 133.418 173.02C132.474 170.829 132.001 168.489 132 166C131.999 163.511 132.472 161.171 133.418 158.98C134.365 156.789 135.647 154.884 137.265 153.265C138.883 151.646 140.788 150.364 142.98 149.418C145.172 148.473 147.512 148 150 148C152.488 148 154.828 148.473 157.02 149.418C159.212 150.364 161.117 151.646 162.735 153.265C164.353 154.884 165.635 156.789 166.583 158.98C167.531 161.171 168.004 163.511 168 166C167.996 168.489 167.524 170.829 166.582 173.02C165.64 175.211 164.357 177.116 162.735 178.735C161.113 180.354 159.208 181.637 157.02 182.583C154.832 183.53 152.492 184.002 150 184ZM150 180.4C154.02 180.4 157.425 179.005 160.215 176.215C163.005 173.425 164.4 170.02 164.4 166C164.4 161.98 163.005 158.575 160.215 155.785C157.425 152.995 154.02 151.6 150 151.6C145.98 151.6 142.575 152.995 139.785 155.785C136.995 158.575 135.6 161.98 135.6 166C135.6 170.02 136.995 173.425 139.785 176.215C142.575 179.005 145.98 180.4 150 180.4Z" fill="white"/>
<path d="M140.338 324.545V342H137.917L129.045 329.199H128.883V342H126.25V324.545H128.687L137.568 337.364H137.73V324.545H140.338ZM149.617 342.264C148.327 342.264 147.216 341.989 146.284 341.438C145.358 340.881 144.642 340.099 144.137 339.094C143.637 338.082 143.387 336.898 143.387 335.54C143.387 334.199 143.637 333.017 144.137 331.994C144.642 330.972 145.347 330.173 146.25 329.599C147.159 329.026 148.222 328.739 149.438 328.739C150.176 328.739 150.892 328.861 151.586 329.105C152.279 329.349 152.901 329.733 153.452 330.256C154.003 330.778 154.438 331.457 154.756 332.293C155.074 333.122 155.233 334.131 155.233 335.318V336.222H144.827V334.312H152.736C152.736 333.642 152.6 333.048 152.327 332.531C152.054 332.009 151.671 331.597 151.176 331.295C150.688 330.994 150.114 330.844 149.455 330.844C148.739 330.844 148.114 331.02 147.58 331.372C147.051 331.719 146.642 332.173 146.353 332.736C146.069 333.293 145.926 333.898 145.926 334.551V336.043C145.926 336.918 146.08 337.662 146.387 338.276C146.699 338.889 147.134 339.358 147.691 339.682C148.248 340 148.898 340.159 149.642 340.159C150.125 340.159 150.566 340.091 150.963 339.955C151.361 339.812 151.705 339.602 151.995 339.324C152.284 339.045 152.506 338.702 152.659 338.293L155.071 338.727C154.878 339.437 154.532 340.06 154.032 340.594C153.537 341.122 152.915 341.534 152.165 341.83C151.421 342.119 150.571 342.264 149.617 342.264ZM158.061 342V328.909H160.609V342H158.061ZM159.348 326.889C158.904 326.889 158.524 326.741 158.206 326.446C157.893 326.145 157.737 325.787 157.737 325.372C157.737 324.952 157.893 324.594 158.206 324.298C158.524 323.997 158.904 323.847 159.348 323.847C159.791 323.847 160.169 323.997 160.481 324.298C160.799 324.594 160.958 324.952 160.958 325.372C160.958 325.787 160.799 326.145 160.481 326.446C160.169 326.741 159.791 326.889 159.348 326.889ZM166.586 334.227V342H164.037V328.909H166.483V331.04H166.645C166.946 330.347 167.418 329.79 168.06 329.369C168.708 328.949 169.523 328.739 170.506 328.739C171.398 328.739 172.179 328.926 172.85 329.301C173.52 329.67 174.04 330.222 174.409 330.955C174.779 331.687 174.963 332.594 174.963 333.673V342H172.415V333.98C172.415 333.031 172.168 332.29 171.674 331.756C171.179 331.216 170.5 330.946 169.637 330.946C169.046 330.946 168.52 331.074 168.06 331.33C167.605 331.585 167.245 331.96 166.978 332.455C166.716 332.943 166.586 333.534 166.586 334.227Z" fill="white"/>
</g>
<rect x="18.5" y="10.5" width="263" height="382" rx="11.5" stroke="white"/>
</g>
<defs>
<filter id="filter0_dd_28_1888" x="0" y="0" width="300" height="419" filterUnits="userSpaceOnUse" color-interpolation-filters="sRGB">
<feFlood flood-opacity="0" result="BackgroundImageFix"/>
<feColorMatrix in="SourceAlpha" type="matrix" values="0 0 0 0 0 0 0 0 0 0 0 0 0 0 0 0 0 0 127 0" result="hardAlpha"/>
<feOffset dy="4"/>
<feGaussianBlur stdDeviation="2"/>
<feColorMatrix type="matrix" values="0 0 0 0 0 0 0 0 0 0 0 0 0 0 0 0 0 0 0.3 0"/>
<feBlend mode="normal" in2="BackgroundImageFix" result="effect1_dropShadow_28_1888"/>
<feColorMatrix in="SourceAlpha" type="matrix" values="0 0 0 0 0 0 0 0 0 0 0 0 0 0 0 0 0 0 127 0" result="hardAlpha"/>
<feMorphology radius="6" operator="dilate" in="SourceAlpha" result="effect2_dropShadow_28_1888"/>
<feOffset dy="8"/>
<feGaussianBlur stdDeviation="6"/>
<feColorMatrix type="matrix" values="0 0 0 0 0 0 0 0 0 0 0 0 0 0 0 0 0 0 0.15 0"/>
<feBlend mode="normal" in2="effect1_dropShadow_28_1888" result="effect2_dropShadow_28_1888"/>
<feBlend mode="normal" in="SourceGraphic" in2="effect2_dropShadow_28_1888" result="shape"/>
</filter>
<clipPath id="clip0_28_1888">
<rect x="18" y="10" width="264" height="383" rx="12" fill="white"/>
</clipPath>
</defs>
</svg>
