<svg width="300" height="419" viewBox="0 0 300 419" fill="none" xmlns="http://www.w3.org/2000/svg">
<g filter="url(#filter0_dd_28_1884)">
<g clip-path="url(#clip0_28_1884)">
<rect x="14" y="275" width="271" height="118" fill="#1395B7"/>
<path d="M164 148H136C134.939 148 133.922 148.421 133.172 149.172C132.421 149.922 132 150.939 132 152V180C132 181.061 132.421 182.078 133.172 182.828C133.922 183.579 134.939 184 136 184H164C165.061 184 166.078 183.579 166.828 182.828C167.579 182.078 168 181.061 168 180V152C168 150.939 167.579 149.922 166.828 149.172C166.078 148.421 165.061 148 164 148ZM164 152V180H136V152H164ZM146 176L138 168L140.82 165.16L146 170.34L159.18 157.16L162 160" fill="white"/>
<path d="M144.749 324.545H147.374V336.92C147.374 338.04 147.152 338.997 146.709 339.793C146.271 340.588 145.655 341.196 144.859 341.616C144.064 342.031 143.132 342.239 142.064 342.239C141.081 342.239 140.197 342.06 139.413 341.702C138.635 341.344 138.018 340.824 137.564 340.142C137.115 339.455 136.891 338.619 136.891 337.636H139.507C139.507 338.119 139.618 338.537 139.839 338.889C140.067 339.241 140.376 339.517 140.768 339.716C141.166 339.909 141.621 340.006 142.132 340.006C142.689 340.006 143.161 339.889 143.547 339.656C143.939 339.418 144.237 339.068 144.442 338.608C144.646 338.148 144.749 337.585 144.749 336.92V324.545ZM154.812 342.29C153.982 342.29 153.232 342.136 152.562 341.83C151.891 341.517 151.36 341.065 150.968 340.474C150.582 339.884 150.388 339.159 150.388 338.301C150.388 337.562 150.531 336.955 150.815 336.477C151.099 336 151.482 335.622 151.965 335.344C152.448 335.065 152.988 334.855 153.585 334.713C154.181 334.571 154.789 334.463 155.408 334.389C156.192 334.298 156.829 334.224 157.317 334.168C157.806 334.105 158.161 334.006 158.383 333.869C158.604 333.733 158.715 333.511 158.715 333.205V333.145C158.715 332.401 158.505 331.824 158.085 331.415C157.67 331.006 157.05 330.801 156.227 330.801C155.369 330.801 154.692 330.991 154.198 331.372C153.71 331.747 153.371 332.165 153.184 332.625L150.789 332.08C151.073 331.284 151.488 330.642 152.033 330.153C152.585 329.659 153.218 329.301 153.934 329.08C154.65 328.852 155.403 328.739 156.192 328.739C156.715 328.739 157.269 328.801 157.854 328.926C158.445 329.045 158.996 329.267 159.508 329.591C160.025 329.915 160.448 330.378 160.778 330.98C161.107 331.577 161.272 332.352 161.272 333.307V342H158.783V340.21H158.681C158.516 340.54 158.269 340.864 157.94 341.182C157.61 341.5 157.187 341.764 156.67 341.974C156.153 342.185 155.533 342.29 154.812 342.29ZM155.366 340.244C156.07 340.244 156.673 340.105 157.173 339.827C157.678 339.548 158.062 339.185 158.323 338.736C158.59 338.281 158.724 337.795 158.724 337.278V335.591C158.633 335.682 158.457 335.767 158.195 335.847C157.94 335.92 157.647 335.986 157.317 336.043C156.988 336.094 156.667 336.142 156.354 336.188C156.042 336.227 155.781 336.261 155.57 336.29C155.076 336.352 154.624 336.457 154.215 336.605C153.812 336.753 153.488 336.966 153.244 337.244C153.005 337.517 152.886 337.881 152.886 338.335C152.886 338.966 153.119 339.443 153.585 339.767C154.05 340.085 154.644 340.244 155.366 340.244Z" fill="white"/>
</g>
<rect x="18.5" y="10.5" width="263" height="382" rx="11.5" stroke="white"/>
</g>
<defs>
<filter id="filter0_dd_28_1884" x="0" y="0" width="300" height="419" filterUnits="userSpaceOnUse" color-interpolation-filters="sRGB">
<feFlood flood-opacity="0" result="BackgroundImageFix"/>
<feColorMatrix in="SourceAlpha" type="matrix" values="0 0 0 0 0 0 0 0 0 0 0 0 0 0 0 0 0 0 127 0" result="hardAlpha"/>
<feOffset dy="4"/>
<feGaussianBlur stdDeviation="2"/>
<feColorMatrix type="matrix" values="0 0 0 0 0 0 0 0 0 0 0 0 0 0 0 0 0 0 0.3 0"/>
<feBlend mode="normal" in2="BackgroundImageFix" result="effect1_dropShadow_28_1884"/>
<feColorMatrix in="SourceAlpha" type="matrix" values="0 0 0 0 0 0 0 0 0 0 0 0 0 0 0 0 0 0 127 0" result="hardAlpha"/>
<feMorphology radius="6" operator="dilate" in="SourceAlpha" result="effect2_dropShadow_28_1884"/>
<feOffset dy="8"/>
<feGaussianBlur stdDeviation="6"/>
<feColorMatrix type="matrix" values="0 0 0 0 0 0 0 0 0 0 0 0 0 0 0 0 0 0 0.15 0"/>
<feBlend mode="normal" in2="effect1_dropShadow_28_1884" result="effect2_dropShadow_28_1884"/>
<feBlend mode="normal" in="SourceGraphic" in2="effect2_dropShadow_28_1884" result="shape"/>
</filter>
<clipPath id="clip0_28_1884">
<rect x="18" y="10" width="264" height="383" rx="12" fill="white"/>
</clipPath>
</defs>
</svg>
