<svg width="320" height="300" viewBox="0 0 320 300" fill="none" xmlns="http://www.w3.org/2000/svg">
<path fill-rule="evenodd" clip-rule="evenodd" d="M320 206.058L173.064 291.434L0.00195312 191.056L146.974 105.687L320 206.058Z" fill="#82B23A"/>
<path fill-rule="evenodd" clip-rule="evenodd" d="M0 191.055L173.066 291.434L173.056 300L0.0275171 199.622L0 191.055Z" fill="#6A8D2E"/>
<path fill-rule="evenodd" clip-rule="evenodd" d="M319.999 206.058L173.063 291.434L173.057 300L319.903 214.811L319.999 206.058Z" fill="#5F8025"/>
<path fill-rule="evenodd" clip-rule="evenodd" d="M195.86 246.334L140.16 145.709L186.044 128.352L319.999 206.058L251.183 246.043L195.86 246.334Z" fill="#547325"/>
<path fill-rule="evenodd" clip-rule="evenodd" d="M283.583 208.893L201.765 255.462C199.437 256.788 196.789 256.779 194.471 255.436L172.307 242.596C171.208 241.959 169.954 241.955 168.852 242.582L128.467 265.568L40.1504 214.343L76.8918 193.412C78.0082 192.776 78.651 191.67 78.6559 190.381C78.6608 189.092 78.0259 187.982 76.9134 187.337L64.7203 180.275C63.6079 179.631 62.973 178.522 62.9769 177.232C62.9809 175.942 63.6236 174.837 64.741 174.2L151.333 124.869L283.627 202.83C284.731 203.481 285.357 204.589 285.347 205.875C285.338 207.16 284.695 208.259 283.583 208.893Z" fill="#D9C593"/>
<path fill-rule="evenodd" clip-rule="evenodd" d="M283.583 208.893L218.007 246.218L195.86 246.335L140.16 145.709L168.504 134.987L283.628 202.831C284.732 203.482 285.358 204.59 285.348 205.875C285.338 207.16 284.695 208.259 283.583 208.893Z" fill="#B89F61"/>
<path fill-rule="evenodd" clip-rule="evenodd" d="M146.35 242.431L122.322 228.151L162.743 203.999L186.719 218.321L146.35 242.431Z" fill="#B89F61"/>
<path fill-rule="evenodd" clip-rule="evenodd" d="M195.813 246.316L78.7383 178.524V75.1885L195.814 143.047L195.813 246.316Z" fill="#B32D22"/>
<path fill-rule="evenodd" clip-rule="evenodd" d="M265.978 205.807V102.691C235.568 120.245 226.29 125.227 195.812 142.895V246.391C226.099 229.086 235.839 223.267 265.978 205.807Z" fill="#7E2926"/>
<path fill-rule="evenodd" clip-rule="evenodd" d="M195.813 241.744L78.7383 173.951V168.414L195.814 236.273L195.813 241.744Z" fill="#6E2A26"/>
<path fill-rule="evenodd" clip-rule="evenodd" d="M135.459 200.936H167.459V229.898L135.459 211.368V200.936Z" fill="#6E2A26"/>
<path fill-rule="evenodd" clip-rule="evenodd" d="M196.381 241.152L76.4727 171.719V65.8828L196.382 135.384L196.381 241.152Z" fill="#CCCCCC"/>
<path fill-rule="evenodd" clip-rule="evenodd" d="M76.4727 80.3348V65.6504L196.423 135.24L196.381 148.023L76.4727 80.3348Z" fill="#666666"/>
<path fill-rule="evenodd" clip-rule="evenodd" d="M268.244 199.586V94.0508C237.099 112.03 227.595 117.133 196.381 135.227V241.152C227.401 223.428 237.376 217.47 268.244 199.586Z" fill="#7F7F7F"/>
<path fill-rule="evenodd" clip-rule="evenodd" d="M163.202 166.925L168.113 224.777L114.876 195.827L107.512 133.734L163.202 166.925Z" fill="#666666"/>
<path fill-rule="evenodd" clip-rule="evenodd" d="M98.9541 176.349C98.9541 168.616 98.9541 147.531 98.9541 139.797C94.4648 137.228 89.9736 134.658 85.4824 132.091C85.4824 139.808 85.4824 160.876 85.4824 168.593C89.9736 171.18 94.4648 173.763 98.9541 176.349Z" fill="#7F7F7F"/>
<path fill-rule="evenodd" clip-rule="evenodd" d="M98.9541 176.349V160.819C94.4629 163.386 89.9717 165.956 85.4824 168.525V168.593C89.9736 171.18 94.4648 173.763 98.9541 176.349Z" fill="#363A3D"/>
<path fill-rule="evenodd" clip-rule="evenodd" d="M98.9539 174.925V139.798C94.8863 137.469 90.8167 135.14 86.7461 132.814V167.898C90.8157 170.241 94.8853 172.582 98.9539 174.925Z" fill="white"/>
<path fill-rule="evenodd" clip-rule="evenodd" d="M98.9557 140.132C95.2055 137.984 91.4543 135.837 87.7012 133.692V167.011C91.4533 169.171 95.2055 171.33 98.9557 173.491V140.132Z" fill="#00A1B3"/>
<path fill-rule="evenodd" clip-rule="evenodd" d="M94.5045 137.25V172.363L93.6309 171.86V136.75L94.5045 137.25Z" fill="white"/>
<path fill-rule="evenodd" clip-rule="evenodd" d="M98.8756 151.58C95.1264 149.434 91.3742 147.287 87.6211 145.142V146.091C91.3733 148.251 95.1254 150.41 98.8756 152.57V151.58Z" fill="white"/>
<path fill-rule="evenodd" clip-rule="evenodd" d="M98.8756 162.293C95.1264 160.146 91.3742 158 87.6211 155.855V156.804C91.3733 158.964 95.1254 161.123 98.8756 163.283V162.293Z" fill="white"/>
<path fill-rule="evenodd" clip-rule="evenodd" d="M195.992 232.629C195.992 224.892 195.992 203.81 195.992 196.075C191.502 193.508 178.125 185.856 173.633 183.29C173.633 191.007 173.633 212.075 173.633 219.792C178.125 222.378 191.502 230.041 195.992 232.629Z" fill="#7F7F7F"/>
<path fill-rule="evenodd" clip-rule="evenodd" d="M196.771 232.629C196.771 224.893 196.771 203.811 196.771 196.075C201.261 193.509 221.665 181.835 226.157 179.271C226.157 186.988 226.157 208.057 226.157 215.774C221.666 218.36 201.261 230.041 196.771 232.629Z" fill="#CCCCCC"/>
<path fill-rule="evenodd" clip-rule="evenodd" d="M196.384 232.878V217.348C192.804 219.394 180.817 215.937 175.599 218.737L173.633 219.794L196.384 232.878Z" fill="#363A3D"/>
<path fill-rule="evenodd" clip-rule="evenodd" d="M196.381 232.878V217.347C199.96 219.393 218.973 211.917 224.19 214.717L226.156 215.773L196.381 232.878Z" fill="#363A3D"/>
<path fill-rule="evenodd" clip-rule="evenodd" d="M195.99 231.202V196.074C191.923 193.745 178.965 186.339 174.895 184.012V219.096C178.965 221.439 191.923 228.859 195.99 231.202Z" fill="white"/>
<path fill-rule="evenodd" clip-rule="evenodd" d="M196.771 231.203V196.075C200.839 193.746 220.824 182.32 224.893 179.993V215.077C220.824 217.419 200.839 228.859 196.771 231.203Z" fill="#E5E5E5"/>
<path fill-rule="evenodd" clip-rule="evenodd" d="M195.99 196.34C192.24 194.193 179.601 187.038 175.848 184.893V218.213C179.6 220.372 192.24 227.539 195.99 229.7V196.34Z" fill="#00A1B3"/>
<path fill-rule="evenodd" clip-rule="evenodd" d="M196.771 196.339C200.521 194.193 220.189 183.018 223.941 180.872V214.192C220.189 216.351 200.521 227.539 196.771 229.698V196.339Z" fill="#006873"/>
<path fill-rule="evenodd" clip-rule="evenodd" d="M182.653 188.45V223.563L181.779 223.059V187.949L182.653 188.45Z" fill="white"/>
<path fill-rule="evenodd" clip-rule="evenodd" d="M210.109 188.45V223.563L210.983 223.059V187.949L210.109 188.45Z" fill="#E5E5E5"/>
<path fill-rule="evenodd" clip-rule="evenodd" d="M195.989 207.892C192.239 205.745 179.522 198.487 175.77 196.342V197.29C179.522 199.45 192.239 206.722 195.989 208.881V207.892Z" fill="white"/>
<path fill-rule="evenodd" clip-rule="evenodd" d="M196.773 207.892C200.524 205.745 220.701 194.173 224.453 192.028V192.976C220.701 195.137 200.524 206.721 196.773 208.88V207.892Z" fill="#E5E5E5"/>
<path fill-rule="evenodd" clip-rule="evenodd" d="M195.989 218.603C192.239 216.458 179.522 209.198 175.77 207.053V208.001C179.522 210.162 192.239 217.433 195.989 219.593V218.603Z" fill="white"/>
<path fill-rule="evenodd" clip-rule="evenodd" d="M196.773 218.604C200.524 216.458 220.701 204.886 224.453 202.741V203.689C220.701 205.85 200.524 217.433 196.773 219.594V218.604Z" fill="#E5E5E5"/>
<path fill-rule="evenodd" clip-rule="evenodd" d="M167.599 204.024C167.599 196.29 167.599 187.457 167.599 179.724C163.11 177.154 158.618 174.585 154.127 172.018C154.127 179.734 154.127 188.55 154.127 196.268C158.619 198.854 163.11 201.438 167.599 204.024Z" fill="#999999"/>
<path fill-rule="evenodd" clip-rule="evenodd" d="M167.599 204.024V188.493C163.106 191.062 158.616 193.63 154.127 196.199V196.267C158.619 198.853 163.11 201.438 167.599 204.024Z" fill="#363A3D"/>
<path fill-rule="evenodd" clip-rule="evenodd" d="M167.599 202.6V179.726C163.532 177.398 159.462 175.069 155.393 172.743V195.572C159.462 197.914 163.532 200.256 167.599 202.6Z" fill="#E5E5E5"/>
<path fill-rule="evenodd" clip-rule="evenodd" d="M167.601 180.244C163.851 178.096 160.1 175.949 156.348 173.806V194.687C160.099 196.848 163.852 199.006 167.601 201.167V180.244Z" fill="#00A1B3"/>
<path fill-rule="evenodd" clip-rule="evenodd" d="M129.227 247.735L129.205 247.747L71.5763 213.783L71.5586 211.196L129.206 245.161L129.227 247.735Z" fill="#B32D22"/>
<path fill-rule="evenodd" clip-rule="evenodd" d="M163.457 225.164L129.206 245.161L71.5586 211.196L105.181 191.312L163.457 225.164Z" fill="#D0541B"/>
<path fill-rule="evenodd" clip-rule="evenodd" d="M163.616 227.673L129.228 247.734L129.207 245.161L163.616 225.086V227.673Z" fill="#982724"/>
<path fill-rule="evenodd" clip-rule="evenodd" d="M143.179 237.007L133.682 231.496L154.243 219.561L163.615 225.086L143.179 237.007Z" fill="#7E2926"/>
<path fill-rule="evenodd" clip-rule="evenodd" d="M129.228 241.936L129.206 241.948L77.6632 211.74L77.6445 209.154L134.359 208.316L129.228 241.936Z" fill="#B32D22"/>
<path fill-rule="evenodd" clip-rule="evenodd" d="M160.811 220.963L129.207 239.362L77.6445 209.154L109.193 190.521L160.811 220.963Z" fill="#D0541B"/>
<path fill-rule="evenodd" clip-rule="evenodd" d="M160.919 223.496L129.227 241.936L129.239 239.343L160.921 220.867L160.919 223.496Z" fill="#982724"/>
<path fill-rule="evenodd" clip-rule="evenodd" d="M139.943 233.112L130.445 227.601L151.195 215.578L160.922 220.867L139.943 233.112Z" fill="#7E2926"/>
<path fill-rule="evenodd" clip-rule="evenodd" d="M129.164 236.142L129.144 236.154L83.7589 209.729L83.7402 207.143L129.179 233.548L129.164 236.142Z" fill="#B32D22"/>
<path fill-rule="evenodd" clip-rule="evenodd" d="M157.836 216.883L129.145 233.568L83.7402 207.143L112.102 190.363L157.836 216.883Z" fill="#D0541B"/>
<path fill-rule="evenodd" clip-rule="evenodd" d="M137.121 228.931L93.6426 203.707L114.389 191.688L158.088 216.74L137.121 228.931Z" fill="#7E2926"/>
<path fill-rule="evenodd" clip-rule="evenodd" d="M158.086 219.326L129.164 236.142L129.178 233.549L158.086 216.74V219.326Z" fill="#982724"/>
<path fill-rule="evenodd" clip-rule="evenodd" d="M243.715 205.258C243.715 197.524 243.715 120.233 243.715 112.498C248.204 109.929 252.695 107.358 257.187 104.792C257.187 112.509 257.187 189.784 257.187 197.502C252.694 200.089 248.203 202.672 243.715 205.258Z" fill="#B2B2B2"/>
<path fill-rule="evenodd" clip-rule="evenodd" d="M243.715 205.257V189.726C248.207 192.293 252.697 194.862 257.187 197.433V197.5C252.694 200.088 248.203 202.671 243.715 205.257Z" fill="#363A3D"/>
<path fill-rule="evenodd" clip-rule="evenodd" d="M243.715 203.832V112.499C247.782 110.17 251.852 107.842 255.923 105.516V196.804C251.852 199.148 247.781 201.489 243.715 203.832Z" fill="#D8E1E2"/>
<path fill-rule="evenodd" clip-rule="evenodd" d="M243.715 112.834C247.465 110.686 251.217 108.54 254.969 106.396V195.934C251.217 198.095 247.465 200.254 243.715 202.414V112.834Z" fill="#006873"/>
<path fill-rule="evenodd" clip-rule="evenodd" d="M248.166 109.953V200.234L249.04 199.732V109.452L248.166 109.953Z" fill="#D8E1E2"/>
<path fill-rule="evenodd" clip-rule="evenodd" d="M98.9541 121.945C98.9541 114.211 98.9541 93.1263 98.9541 85.3926C94.4648 82.8232 89.9736 80.2529 85.4824 77.6855C85.4824 85.4035 85.4824 106.472 85.4824 114.189C89.9736 116.775 94.4648 119.358 98.9541 121.945Z" fill="#7F7F7F"/>
<path fill-rule="evenodd" clip-rule="evenodd" d="M98.9541 121.945V106.415C94.4629 108.983 89.9717 111.551 85.4824 114.122V114.19C89.9736 116.775 94.4648 119.358 98.9541 121.945Z" fill="#363A3D"/>
<path fill-rule="evenodd" clip-rule="evenodd" d="M98.9559 120.52V85.3924C94.8882 83.064 90.8186 80.7356 86.748 78.4092V113.492C90.8177 115.835 94.8873 118.178 98.9559 120.52Z" fill="white"/>
<path fill-rule="evenodd" clip-rule="evenodd" d="M98.9557 85.7263C95.2055 83.5795 91.4543 81.4328 87.7012 79.2881V112.607C91.4533 114.767 95.2055 116.926 98.9557 119.085V85.7263Z" fill="#00A1B3"/>
<path fill-rule="evenodd" clip-rule="evenodd" d="M187.493 173.213C187.493 165.478 187.493 144.394 187.493 136.66C183.005 134.091 178.513 131.52 174.021 128.953C174.021 136.671 174.021 157.739 174.021 165.456C178.513 168.043 183.005 170.626 187.493 173.213Z" fill="#7F7F7F"/>
<path fill-rule="evenodd" clip-rule="evenodd" d="M187.493 173.212V157.682C183.001 160.25 178.51 162.818 174.021 165.389V165.457C178.513 168.042 183.005 170.626 187.493 173.212Z" fill="#363A3D"/>
<path fill-rule="evenodd" clip-rule="evenodd" d="M187.494 171.789V136.661C183.426 134.333 179.358 132.004 175.287 129.678V164.761C179.357 167.103 183.426 169.445 187.494 171.789Z" fill="white"/>
<path fill-rule="evenodd" clip-rule="evenodd" d="M187.493 136.995C183.743 134.848 179.991 132.701 176.238 130.557V163.875C179.99 166.036 183.743 168.194 187.493 170.354V136.995Z" fill="#00A1B3"/>
<path fill-rule="evenodd" clip-rule="evenodd" d="M243.795 124.281C247.545 122.135 251.296 119.988 255.049 117.843V118.792C251.296 120.952 247.545 123.111 243.795 125.271V124.281Z" fill="#D8E1E2"/>
<path fill-rule="evenodd" clip-rule="evenodd" d="M243.795 135.437C247.545 133.29 251.296 131.144 255.049 128.998C255.049 129.314 255.049 129.631 255.049 129.947C251.296 132.107 247.545 134.266 243.795 136.426C243.795 136.098 243.795 135.768 243.795 135.437Z" fill="#D8E1E2"/>
<path fill-rule="evenodd" clip-rule="evenodd" d="M243.795 146.594C247.545 144.448 251.296 142.301 255.049 140.156C255.049 140.472 255.049 140.789 255.049 141.105C251.296 143.265 247.545 145.424 243.795 147.584C243.795 147.254 243.795 146.924 243.795 146.594Z" fill="#D8E1E2"/>
<path fill-rule="evenodd" clip-rule="evenodd" d="M243.795 157.751C247.545 155.604 251.296 153.457 255.049 151.312C255.049 151.628 255.049 151.945 255.049 152.261C251.296 154.421 247.545 156.581 243.795 158.74C243.795 158.41 243.795 158.08 243.795 157.751Z" fill="#D8E1E2"/>
<path fill-rule="evenodd" clip-rule="evenodd" d="M243.795 168.907C247.545 166.76 251.296 164.613 255.049 162.469C255.049 162.785 255.049 163.102 255.049 163.418C251.296 165.577 247.545 167.737 243.795 169.897C243.795 169.567 243.795 169.237 243.795 168.907Z" fill="#D8E1E2"/>
<path fill-rule="evenodd" clip-rule="evenodd" d="M243.795 180.063C247.545 177.916 251.296 175.77 255.049 173.625C255.049 173.941 255.049 174.258 255.049 174.574C251.296 176.733 247.545 178.893 243.795 181.054C243.795 180.723 243.795 180.393 243.795 180.063Z" fill="#D8E1E2"/>
<path fill-rule="evenodd" clip-rule="evenodd" d="M243.795 191.219C247.545 189.073 251.296 186.926 255.049 184.78V185.729C251.296 187.889 247.545 190.048 243.795 192.209V191.219Z" fill="#D8E1E2"/>
<path fill-rule="evenodd" clip-rule="evenodd" d="M189.501 192.276V227.389L188.627 226.885V191.776L189.501 192.276Z" fill="white"/>
<path fill-rule="evenodd" clip-rule="evenodd" d="M203.262 192.276V227.389L204.135 226.885V191.776L203.262 192.276Z" fill="#E5E5E5"/>
<path fill-rule="evenodd" clip-rule="evenodd" d="M196.381 196.294V231.407L195.508 230.903V195.794L196.381 196.294Z" fill="white"/>
<path fill-rule="evenodd" clip-rule="evenodd" d="M196.381 196.294V231.407L197.256 230.903V195.794L196.381 196.294Z" fill="#E5E5E5"/>
<path fill-rule="evenodd" clip-rule="evenodd" d="M217.025 184.762V219.591L217.899 219.087V184.263L217.025 184.762Z" fill="#E5E5E5"/>
<path fill-rule="evenodd" clip-rule="evenodd" d="M150.218 151.482C150.218 143.745 150.218 122.663 150.218 114.926C145.73 112.36 125.325 100.686 120.834 98.123C120.834 105.84 120.834 126.908 120.834 134.625C125.325 137.211 145.73 148.893 150.218 151.482Z" fill="#7F7F7F"/>
<path fill-rule="evenodd" clip-rule="evenodd" d="M150.218 151.482V135.95C146.639 137.997 128.017 130.768 122.8 133.568L120.834 134.625L150.218 151.482Z" fill="#363A3D"/>
<path fill-rule="evenodd" clip-rule="evenodd" d="M150.221 150.055V114.926C146.154 112.598 126.169 101.171 122.1 98.8447V133.929C126.168 136.271 146.153 147.711 150.221 150.055Z" fill="white"/>
<path fill-rule="evenodd" clip-rule="evenodd" d="M150.218 115.191C146.468 113.044 126.801 101.869 123.049 99.7246V133.043C126.8 135.203 146.469 146.39 150.218 148.55V115.191Z" fill="#00A1B3"/>
<path fill-rule="evenodd" clip-rule="evenodd" d="M89.4766 210.482L92.9103 204.583L107.207 204.708L109.944 210.458L89.4766 210.482Z" fill="#7E2926"/>
<path fill-rule="evenodd" clip-rule="evenodd" d="M95.1992 207.17L89.4766 210.482V154.565L95.1992 157.209V207.17Z" fill="#7F7F7F"/>
<path fill-rule="evenodd" clip-rule="evenodd" d="M129.174 233.545L131.409 227.637L139.228 227.705L129.186 233.545H129.174Z" fill="#7E2926"/>
<path fill-rule="evenodd" clip-rule="evenodd" d="M141.719 228.84L142.784 231.454L137.388 234.596L131.809 234.602L141.719 228.84Z" fill="#7E2926"/>
<path fill-rule="evenodd" clip-rule="evenodd" d="M147.287 231.414L148.351 234.028L142.956 237.17L137.377 237.176L147.287 231.414Z" fill="#7E2926"/>
<path fill-rule="evenodd" clip-rule="evenodd" d="M165.738 179.174L167.601 201.127V201.166C163.851 199.005 160.099 196.847 156.348 194.686V173.805L165.738 179.174Z" fill="#006873"/>
<path fill-rule="evenodd" clip-rule="evenodd" d="M163.151 177.694V200.037L162.277 199.535V177.194L163.151 177.694Z" fill="#E5E5E5"/>
<path fill-rule="evenodd" clip-rule="evenodd" d="M167.522 189.967C163.772 187.821 160.021 185.674 156.268 183.529V184.478C160.02 186.638 163.772 188.797 167.522 190.957V189.967Z" fill="#E5E5E5"/>
<path fill-rule="evenodd" clip-rule="evenodd" d="M187.493 140.688L176.238 134.336V130.557C179.99 132.701 183.743 134.848 187.493 136.995V140.688Z" fill="#006873"/>
<path fill-rule="evenodd" clip-rule="evenodd" d="M150.218 119.646L123.049 104.308V99.7236C126.801 101.868 146.469 113.043 150.218 115.19V119.646Z" fill="#006873"/>
<path fill-rule="evenodd" clip-rule="evenodd" d="M98.9547 90.706L87.7012 84.3537V79.2881C91.4524 81.4328 95.2045 83.5795 98.9547 85.7272V90.706Z" fill="#006873"/>
<path fill-rule="evenodd" clip-rule="evenodd" d="M94.5045 82.8458V117.958L93.6309 117.455V82.3462L94.5045 82.8458Z" fill="white"/>
<path fill-rule="evenodd" clip-rule="evenodd" d="M98.8756 97.1755C95.1264 95.0288 91.3742 92.8821 87.6211 90.7363V91.6843C91.3733 93.8448 95.1254 96.0034 98.8756 98.1639V97.1755Z" fill="white"/>
<path fill-rule="evenodd" clip-rule="evenodd" d="M98.8756 107.887C95.1264 105.741 91.3742 103.594 87.6211 101.448V102.397C91.3733 104.557 95.1254 106.715 98.8756 108.876V107.887Z" fill="white"/>
<path fill-rule="evenodd" clip-rule="evenodd" d="M136.881 107.301V142.414L136.008 141.91V106.8L136.881 107.301Z" fill="white"/>
<path fill-rule="evenodd" clip-rule="evenodd" d="M150.217 126.743C146.466 124.596 126.289 113.024 122.537 110.879V111.827C126.289 113.988 146.466 125.572 150.217 127.731V126.743Z" fill="white"/>
<path fill-rule="evenodd" clip-rule="evenodd" d="M150.217 137.456C146.466 135.309 126.289 123.737 122.537 121.592V122.54C126.289 124.701 146.466 136.285 150.217 138.445V137.456Z" fill="white"/>
<path fill-rule="evenodd" clip-rule="evenodd" d="M143.728 111.128V146.24L142.854 145.737V110.628L143.728 111.128Z" fill="white"/>
<path fill-rule="evenodd" clip-rule="evenodd" d="M129.965 103.614V138.442L129.092 137.94V103.114L129.965 103.614Z" fill="white"/>
<path fill-rule="evenodd" clip-rule="evenodd" d="M183.046 134.113V169.226L182.172 168.724V133.614L183.046 134.113Z" fill="white"/>
<path fill-rule="evenodd" clip-rule="evenodd" d="M187.417 148.443C183.666 146.296 179.914 144.15 176.162 142.005V142.953C179.914 145.113 183.666 147.272 187.417 149.432V148.443Z" fill="white"/>
<path fill-rule="evenodd" clip-rule="evenodd" d="M187.417 159.156C183.666 157.009 179.914 154.863 176.162 152.718V153.667C179.914 155.826 183.666 157.986 187.417 160.146V159.156Z" fill="white"/>
<path fill-rule="evenodd" clip-rule="evenodd" d="M136.296 203.851C136.296 196.117 136.296 175.237 136.296 167.503C131.807 164.933 127.316 162.363 122.824 159.797C122.824 167.514 122.824 188.582 122.824 196.299C127.316 198.885 131.808 201.265 136.296 203.851Z" fill="#999999"/>
<path fill-rule="evenodd" clip-rule="evenodd" d="M147.524 211.316L147.481 201.693C143.691 203.861 134.582 189.523 129.09 192.678L122.227 196.621L147.524 211.316Z" fill="#7E2926"/>
<path fill-rule="evenodd" clip-rule="evenodd" d="M136.251 168.147C132.5 166 128.749 163.853 124.996 161.708V195.028C128.748 197.188 132.5 199.347 136.251 201.507V168.147Z" fill="#0B573C"/>
<path fill-rule="evenodd" clip-rule="evenodd" d="M135.214 189.65C132.155 187.898 129.094 186.146 126.033 184.397V191.384C129.094 193.146 132.155 194.907 135.214 196.669V189.65Z" fill="#127351"/>
<path fill-rule="evenodd" clip-rule="evenodd" d="M135.215 189.649C132.302 187.983 129.389 186.315 126.473 184.648V191.109C129.388 192.787 132.302 194.463 135.215 196.142V189.649Z" fill="#05402B"/>
<path fill-rule="evenodd" clip-rule="evenodd" d="M147.479 174.613C143.729 172.467 139.978 170.32 136.225 168.175V201.495C139.977 203.655 143.729 205.814 147.479 207.973V174.613Z" fill="#0B573C"/>
<path fill-rule="evenodd" clip-rule="evenodd" d="M146.446 196.117C143.386 194.365 140.326 192.614 137.264 190.864V197.705C140.325 199.467 143.386 201.229 146.446 202.99V196.117Z" fill="#127351"/>
<path fill-rule="evenodd" clip-rule="evenodd" d="M146.445 196.116C143.531 194.448 140.617 192.782 137.701 191.115V197.502C140.616 199.18 143.53 200.856 146.445 202.535V196.116Z" fill="#05402B"/>
<path d="M136.43 168.249V201.608L136.215 201.484V168.125L136.43 168.249Z" fill="#05402B"/>
<path fill-rule="evenodd" clip-rule="evenodd" d="M135.214 181.108C132.155 179.356 129.094 177.605 126.033 175.856V182.842C129.094 184.605 132.155 186.365 135.214 188.128V181.108Z" fill="#127351"/>
<path fill-rule="evenodd" clip-rule="evenodd" d="M135.214 172.568C132.155 170.816 129.094 169.064 126.033 167.315V174.302C129.094 176.064 132.155 177.824 135.214 179.587V172.568Z" fill="#127351"/>
<path fill-rule="evenodd" clip-rule="evenodd" d="M135.215 181.108C132.302 179.441 129.389 177.773 126.473 176.106V182.567C129.388 184.246 132.302 185.923 135.215 187.6V181.108Z" fill="#05402B"/>
<path fill-rule="evenodd" clip-rule="evenodd" d="M135.215 172.568C132.302 170.9 129.389 169.233 126.473 167.566V174.027C129.388 175.706 132.302 177.383 135.215 179.06V172.568Z" fill="#05402B"/>
<path fill-rule="evenodd" clip-rule="evenodd" d="M146.446 187.576C143.386 185.824 140.326 184.074 137.264 182.323V189.164C140.325 190.925 143.386 192.686 146.446 194.449V187.576Z" fill="#127351"/>
<path fill-rule="evenodd" clip-rule="evenodd" d="M146.446 179.034C143.386 177.283 140.326 175.532 137.264 173.782V180.623C140.325 182.385 143.386 184.146 146.446 185.909V179.034Z" fill="#127351"/>
<path fill-rule="evenodd" clip-rule="evenodd" d="M146.445 187.576C143.531 185.908 140.617 184.241 137.701 182.574V188.96C140.616 190.639 143.53 192.315 146.445 193.993V187.576Z" fill="#05402B"/>
<path fill-rule="evenodd" clip-rule="evenodd" d="M146.445 179.035C143.531 177.367 140.617 175.7 137.701 174.033V180.42C140.616 182.099 143.53 183.774 146.445 185.453V179.035Z" fill="#05402B"/>
<path fill-rule="evenodd" clip-rule="evenodd" d="M136.892 189.346C137.11 189.461 137.288 189.798 137.288 190.095C137.288 190.393 137.11 190.54 136.892 190.424C136.673 190.308 136.496 189.973 136.496 189.674C136.496 189.377 136.673 189.23 136.892 189.346Z" fill="#E8A611"/>
<path fill-rule="evenodd" clip-rule="evenodd" d="M136.841 189.379C137.06 189.495 137.237 189.831 137.237 190.129C137.237 190.426 137.06 190.574 136.841 190.457C136.623 190.342 136.445 190.006 136.445 189.708C136.445 189.411 136.622 189.263 136.841 189.379Z" fill="#BA7823"/>
<path fill-rule="evenodd" clip-rule="evenodd" d="M136.739 189.71C136.835 189.76 136.912 189.908 136.912 190.037C136.912 190.167 136.835 190.231 136.739 190.18C136.644 190.13 136.566 189.983 136.566 189.853C136.567 189.724 136.644 189.66 136.739 189.71Z" fill="#934E26"/>
<path fill-rule="evenodd" clip-rule="evenodd" d="M136.257 190.671C136.553 190.671 136.794 190.429 136.794 190.131C136.794 189.834 136.553 189.592 136.257 189.592C135.961 189.592 135.721 189.835 135.721 190.131C135.721 190.429 135.961 190.671 136.257 190.671Z" fill="#E8A611"/>
<path fill-rule="evenodd" clip-rule="evenodd" d="M129.155 233.566L129.153 233.567L123.418 230.237L123.416 182.85L128.78 180.761H129.523L129.189 180.206L129.155 233.566Z" fill="#E5E5E5"/>
<path fill-rule="evenodd" clip-rule="evenodd" d="M89.4747 210.482L83.7373 207.253L83.7363 159.953L89.0992 157.864H89.8422L89.5071 157.309L89.4747 210.482Z" fill="#E5E5E5"/>
<path fill-rule="evenodd" clip-rule="evenodd" d="M134.849 230.263L129.156 233.566V177.461L134.879 180.105L134.849 230.263Z" fill="#7F7F7F"/>
<path fill-rule="evenodd" clip-rule="evenodd" d="M83.7363 170.923V159.953L89.0992 157.864H89.8422L89.5071 157.309L89.4973 174.264L83.7363 170.923Z" fill="#666666"/>
<path fill-rule="evenodd" clip-rule="evenodd" d="M123.416 193.939V182.711L128.779 180.621H129.523L129.19 180.066L129.178 197.281L123.416 193.939Z" fill="#666666"/>
<path fill-rule="evenodd" clip-rule="evenodd" d="M163.229 163.089L126.375 188.337L70.5371 155.949L107.4 130.704L163.229 163.089Z" fill="#0B573C"/>
<path fill-rule="evenodd" clip-rule="evenodd" d="M70.5352 155.949L126.375 188.337L126.373 192.125L70.542 159.738L70.5352 155.949Z" fill="#E5E5E5"/>
<path fill-rule="evenodd" clip-rule="evenodd" d="M163.228 163.089L126.375 188.337L126.373 192.125L163.205 166.925L163.228 163.089Z" fill="#B2B2B2"/>
<path fill-rule="evenodd" clip-rule="evenodd" d="M34.2246 178.698C29.3511 178.698 25.3984 180.803 25.3984 183.4C25.3984 185.996 29.3501 188.102 34.2246 188.102C39.0981 188.102 43.0507 185.997 43.0507 183.4C43.0507 180.804 39.0981 178.698 34.2246 178.698Z" fill="#547325"/>
<path fill-rule="evenodd" clip-rule="evenodd" d="M34.0076 176.063C34.499 176.063 34.9009 176.467 34.9009 176.961V182.875C34.9009 183.368 34.499 183.773 34.0076 183.773C33.5172 183.773 33.1133 183.369 33.1133 182.875V176.961C33.1143 176.467 33.5162 176.063 34.0076 176.063Z" fill="#5D3627"/>
<path fill-rule="evenodd" clip-rule="evenodd" d="M31.4555 175.497C31.7985 177.345 31.8623 179.194 33.3208 181.043C33.649 181.459 34.2052 183.661 33.1134 182.253C31.2009 179.785 31.1331 177.48 30.6496 175.57C30.3528 174.4 31.2471 174.377 31.4555 175.497Z" fill="#5D3627"/>
<path fill-rule="evenodd" clip-rule="evenodd" d="M36.5879 174.497C36.2449 176.346 36.1801 178.194 34.7217 180.044C34.3934 180.459 33.8372 182.661 34.929 181.253C36.8415 178.786 36.9103 176.481 37.3928 174.571C37.6896 173.402 36.7953 173.377 36.5879 174.497Z" fill="#5D3627"/>
<path fill-rule="evenodd" clip-rule="evenodd" d="M34.0908 131.052C41.0477 131.052 47.474 178.416 34.0908 178.416C19.4555 178.416 27.1338 131.052 34.0908 131.052Z" fill="#2E450C"/>
<path fill-rule="evenodd" clip-rule="evenodd" d="M34.9055 132.638C40.4463 132.638 45.5655 173.965 34.9055 173.965C23.249 173.965 29.3637 132.638 34.9055 132.638Z" fill="#3A5413"/>
<path fill-rule="evenodd" clip-rule="evenodd" d="M35.3116 134.187C37.9523 134.187 41.6082 158.663 36.5283 158.663C30.9728 158.662 32.671 134.187 35.3116 134.187Z" fill="#456319"/>
<path fill-rule="evenodd" clip-rule="evenodd" d="M47.7812 185.654C42.9077 185.654 38.9551 187.76 38.9551 190.357C38.9551 192.954 42.9077 195.058 47.7812 195.058C52.6547 195.058 56.6074 192.953 56.6074 190.357C56.6064 187.76 52.6547 185.654 47.7812 185.654Z" fill="#547325"/>
<path fill-rule="evenodd" clip-rule="evenodd" d="M47.5652 183.019C48.0566 183.019 48.4585 183.422 48.4585 183.916V189.83C48.4585 190.324 48.0566 190.728 47.5652 190.728C47.0738 190.728 46.6719 190.324 46.6719 189.83V183.916C46.6719 183.422 47.0738 183.019 47.5652 183.019Z" fill="#5D3627"/>
<path fill-rule="evenodd" clip-rule="evenodd" d="M45.0118 182.452C45.3548 184.301 45.4187 186.149 46.8781 187.999C47.2063 188.414 47.7625 190.617 46.6707 189.209C44.7583 186.742 44.6895 184.437 44.2059 182.526C43.9101 181.357 44.8035 181.333 45.0118 182.452Z" fill="#5D3627"/>
<path fill-rule="evenodd" clip-rule="evenodd" d="M50.1437 181.452C49.8008 183.301 49.7359 185.149 48.2785 186.999C47.9502 187.415 47.394 189.617 48.4848 188.208C50.3973 185.742 50.4661 183.436 50.9496 181.525C51.2454 180.357 50.3511 180.334 50.1437 181.452Z" fill="#5D3627"/>
<path fill-rule="evenodd" clip-rule="evenodd" d="M47.647 138.009C54.603 138.009 61.0302 185.373 47.647 185.373C33.0127 185.373 40.69 138.009 47.647 138.009Z" fill="#2E450C"/>
<path fill-rule="evenodd" clip-rule="evenodd" d="M48.4606 139.594C54.0014 139.594 59.1206 180.92 48.4606 180.92C36.8031 180.92 42.9188 139.594 48.4606 139.594Z" fill="#3A5413"/>
<path fill-rule="evenodd" clip-rule="evenodd" d="M48.866 141.142C51.5066 141.142 55.1625 165.618 50.0826 165.618C44.5271 165.618 46.2263 141.142 48.866 141.142Z" fill="#456319"/>
<path fill-rule="evenodd" clip-rule="evenodd" d="M176.417 257.995C171.543 257.995 167.592 260.101 167.592 262.697C167.592 265.294 171.543 267.4 176.417 267.4C181.29 267.4 185.243 265.294 185.243 262.697C185.243 260.101 181.29 257.995 176.417 257.995Z" fill="#547325"/>
<path fill-rule="evenodd" clip-rule="evenodd" d="M176.202 255.36C176.693 255.36 177.095 255.764 177.095 256.258V262.172C177.095 262.665 176.693 263.069 176.202 263.069C175.711 263.069 175.309 262.665 175.309 262.172V256.258C175.309 255.764 175.711 255.36 176.202 255.36Z" fill="#5D3627"/>
<path fill-rule="evenodd" clip-rule="evenodd" d="M173.648 254.793C173.992 256.642 174.056 258.49 175.514 260.34C175.842 260.755 176.399 262.958 175.307 261.55C173.394 259.083 173.326 256.778 172.843 254.867C172.546 253.698 173.44 253.674 173.648 254.793Z" fill="#5D3627"/>
<path fill-rule="evenodd" clip-rule="evenodd" d="M178.782 253.794C178.439 255.642 178.375 257.491 176.917 259.34C176.589 259.756 176.032 261.959 177.124 260.551C179.036 258.084 179.104 255.778 179.588 253.868C179.884 252.698 178.989 252.675 178.782 253.794Z" fill="#5D3627"/>
<path fill-rule="evenodd" clip-rule="evenodd" d="M176.284 210.35C183.241 210.35 189.667 257.714 176.284 257.714C161.649 257.714 169.327 210.35 176.284 210.35Z" fill="#2E450C"/>
<path fill-rule="evenodd" clip-rule="evenodd" d="M177.097 211.936C182.638 211.936 187.757 253.262 177.097 253.262C165.44 253.261 171.555 211.936 177.097 211.936Z" fill="#3A5413"/>
<path fill-rule="evenodd" clip-rule="evenodd" d="M177.503 213.484C180.143 213.484 183.8 237.96 178.719 237.96C173.164 237.96 174.863 213.484 177.503 213.484Z" fill="#456319"/>
<path fill-rule="evenodd" clip-rule="evenodd" d="M189.969 264.951C185.095 264.951 181.143 267.056 181.143 269.653C181.143 272.25 185.095 274.355 189.969 274.355C194.842 274.355 198.795 272.25 198.795 269.653C198.795 267.056 194.842 264.951 189.969 264.951Z" fill="#547325"/>
<path fill-rule="evenodd" clip-rule="evenodd" d="M189.757 262.315C190.248 262.315 190.65 262.719 190.65 263.213V269.127C190.65 269.621 190.248 270.025 189.757 270.025C189.265 270.025 188.863 269.621 188.863 269.127V263.213C188.863 262.719 189.265 262.315 189.757 262.315Z" fill="#5D3627"/>
<path fill-rule="evenodd" clip-rule="evenodd" d="M187.203 261.748C187.546 263.597 187.61 265.445 189.068 267.295C189.397 267.711 189.953 269.914 188.862 268.504C186.95 266.037 186.881 263.732 186.397 261.821C186.101 260.654 186.996 260.63 187.203 261.748Z" fill="#5D3627"/>
<path fill-rule="evenodd" clip-rule="evenodd" d="M192.336 260.749C191.993 262.598 191.928 264.447 190.469 266.296C190.142 266.711 189.585 268.914 190.677 267.505C192.589 265.039 192.658 262.733 193.141 260.823C193.437 259.654 192.544 259.63 192.336 260.749Z" fill="#5D3627"/>
<path fill-rule="evenodd" clip-rule="evenodd" d="M189.838 217.306C196.795 217.306 203.221 264.669 189.838 264.669C175.204 264.669 182.882 217.306 189.838 217.306Z" fill="#2E450C"/>
<path fill-rule="evenodd" clip-rule="evenodd" d="M190.652 218.89C196.193 218.89 201.312 260.217 190.652 260.217C178.995 260.218 185.11 218.89 190.652 218.89Z" fill="#3A5413"/>
<path fill-rule="evenodd" clip-rule="evenodd" d="M191.058 220.439C193.698 220.439 197.354 244.916 192.274 244.916C186.719 244.915 188.417 220.439 191.058 220.439Z" fill="#456319"/>
<path fill-rule="evenodd" clip-rule="evenodd" d="M300.61 198.313C301.102 198.313 301.503 198.717 301.503 199.211V205.126C301.503 205.62 301.102 206.023 300.61 206.023C300.119 206.023 299.717 205.62 299.717 205.126V199.211C299.717 198.716 300.119 198.313 300.61 198.313Z" fill="#5D3627"/>
<path fill-rule="evenodd" clip-rule="evenodd" d="M298.056 197.746C298.4 199.595 298.464 201.443 299.922 203.293C300.251 203.708 300.807 205.911 299.715 204.502C297.803 202.036 297.734 199.73 297.251 197.82C296.954 196.651 297.849 196.627 298.056 197.746Z" fill="#5D3627"/>
<path fill-rule="evenodd" clip-rule="evenodd" d="M303.189 196.747C302.846 198.595 302.781 200.444 301.323 202.293C300.996 202.709 300.438 204.912 301.53 203.503C303.443 201.035 303.511 198.73 303.995 196.821C304.291 195.652 303.397 195.628 303.189 196.747Z" fill="#5D3627"/>
<path fill-rule="evenodd" clip-rule="evenodd" d="M300.692 153.303C307.649 153.303 314.075 200.667 300.692 200.667C286.058 200.667 293.735 153.303 300.692 153.303Z" fill="#2E450C"/>
<path fill-rule="evenodd" clip-rule="evenodd" d="M301.505 154.889C307.046 154.889 312.165 196.215 301.505 196.215C289.848 196.214 295.964 154.889 301.505 154.889Z" fill="#3A5413"/>
<path fill-rule="evenodd" clip-rule="evenodd" d="M301.911 156.436C304.552 156.436 308.208 180.912 303.127 180.912C297.572 180.913 299.271 156.436 301.911 156.436Z" fill="#456319"/>
<path fill-rule="evenodd" clip-rule="evenodd" d="M161.182 161.903L124.548 187.279L123.982 186.95L160.619 161.575L161.182 161.903Z" fill="#127351"/>
<path fill-rule="evenodd" clip-rule="evenodd" d="M161.747 162.231L125.112 187.606L124.547 187.279L161.184 161.904L161.747 162.231Z" fill="#033624"/>
<path fill-rule="evenodd" clip-rule="evenodd" d="M150.885 155.929L114.25 181.304L113.686 180.977L150.324 155.604L150.885 155.929Z" fill="#127351"/>
<path fill-rule="evenodd" clip-rule="evenodd" d="M151.451 156.257L114.818 181.633L114.25 181.304L150.883 155.927L151.451 156.257Z" fill="#033624"/>
<path fill-rule="evenodd" clip-rule="evenodd" d="M140.586 149.953L103.951 175.328L103.387 175.001L140.023 149.626L140.586 149.953Z" fill="#127351"/>
<path fill-rule="evenodd" clip-rule="evenodd" d="M141.151 150.28L104.513 175.655L103.947 175.328L140.585 149.952L141.151 150.28Z" fill="#033624"/>
<path fill-rule="evenodd" clip-rule="evenodd" d="M130.285 143.979L93.6501 169.357L93.082 169.026L129.718 143.65L130.285 143.979Z" fill="#127351"/>
<path fill-rule="evenodd" clip-rule="evenodd" d="M130.849 144.306L94.2135 169.682L93.6465 169.354L130.284 143.979L130.849 144.306Z" fill="#033624"/>
<path fill-rule="evenodd" clip-rule="evenodd" d="M119.985 138.005L83.3463 163.38L82.7812 163.052L119.42 137.677L119.985 138.005Z" fill="#127351"/>
<path fill-rule="evenodd" clip-rule="evenodd" d="M120.547 138.331L83.9098 163.706L83.3438 163.378L119.982 138.003L120.547 138.331Z" fill="#033624"/>
<path fill-rule="evenodd" clip-rule="evenodd" d="M109.688 132.031L73.0475 157.405L72.4844 157.078L109.121 131.701L109.688 132.031Z" fill="#127351"/>
<path fill-rule="evenodd" clip-rule="evenodd" d="M110.247 132.355L73.611 157.731L73.0449 157.402L109.682 132.027L110.247 132.355Z" fill="#033624"/>
<path fill-rule="evenodd" clip-rule="evenodd" d="M199.943 141.875L65.5391 63.9598V58.834L199.945 136.593L199.943 141.875Z" fill="#E5E5E5"/>
<path fill-rule="evenodd" clip-rule="evenodd" d="M282.005 94.4104V89.6973L199.945 136.593V141.876L282.005 94.4104Z" fill="#B2B2B2"/>
<path fill-rule="evenodd" clip-rule="evenodd" d="M201.188 52.8997L199.965 136.854L65.5078 58.8461L154.23 25.6362L201.188 52.8997Z" fill="#0B573C"/>
<path fill-rule="evenodd" clip-rule="evenodd" d="M201.188 52.8994L199.965 136.853L282.101 89.6414L201.188 52.8994Z" fill="#05402B"/>
<path fill-rule="evenodd" clip-rule="evenodd" d="M154.279 25.7834L147.18 11.4199L282.099 89.6417L201.187 52.8997L154.279 25.7834Z" fill="#033624"/>
<path fill-rule="evenodd" clip-rule="evenodd" d="M147.182 11.4209L65.5078 58.8451L154.28 25.7814L147.182 11.4209Z" fill="#05402B"/>
<path fill-rule="evenodd" clip-rule="evenodd" d="M201.897 13.9021L188.389 21.7573L181.428 17.6969L194.643 9.75781L201.897 13.9021Z" fill="#D0541B"/>
<path fill-rule="evenodd" clip-rule="evenodd" d="M203.246 45.5805L187.979 42.6073L187.991 22.3468L203.246 13.4746V45.5805Z" fill="#7F7F7F"/>
<path fill-rule="evenodd" clip-rule="evenodd" d="M204.251 11.8614L187.634 21.5256L179.07 16.5291L195.328 6.76318L204.251 11.8614Z" fill="#D0541B"/>
<path fill-rule="evenodd" clip-rule="evenodd" d="M200.621 12.0007L188.163 19.2466L182.883 16.1628L195.072 8.84082L200.621 12.0007Z" fill="#7E2926"/>
<path fill-rule="evenodd" clip-rule="evenodd" d="M195.104 15.2087L195.104 8.8584L200.622 12.0005L195.104 15.2087Z" fill="#B32D22"/>
<path d="M201.963 11.9719C201.8 11.9719 201.668 11.8396 201.668 11.6757V6.66342C201.668 6.50049 201.8 6.36719 201.963 6.36719C202.126 6.36719 202.258 6.4995 202.258 6.66342V11.6757C202.258 11.8396 202.126 11.9719 201.963 11.9719Z" fill="#1A1D1F"/>
<path d="M188.064 20.389C187.901 20.389 187.77 20.2566 187.77 20.0927V15.0794C187.77 14.9155 187.901 14.7832 188.064 14.7832C188.227 14.7832 188.359 14.9155 188.359 15.0794V20.0927C188.359 20.2566 188.227 20.389 188.064 20.389Z" fill="#1A1D1F"/>
<path d="M181.146 16.8411C180.983 16.8411 180.852 16.7088 180.852 16.5449V11.5326C180.852 11.3686 180.983 11.2363 181.146 11.2363C181.31 11.2363 181.441 11.3686 181.441 11.5326V16.5449C181.441 16.7088 181.31 16.8411 181.146 16.8411Z" fill="#1A1D1F"/>
<path fill-rule="evenodd" clip-rule="evenodd" d="M187.77 5.45949L187.482 16.7687L205.627 6.24155L193.951 1.87109L187.77 5.45949Z" fill="#05402B"/>
<path fill-rule="evenodd" clip-rule="evenodd" d="M187.772 5.45996L187.483 16.7692L176.674 10.5562L187.772 5.45996Z" fill="#0B573C"/>
<path fill-rule="evenodd" clip-rule="evenodd" d="M193.945 1.89097L194.879 0L176.674 10.5558L187.771 5.45961L193.945 1.89097Z" fill="#05402B"/>
<path fill-rule="evenodd" clip-rule="evenodd" d="M194.88 0L205.628 6.24167L193.945 1.88998L194.88 0Z" fill="#033624"/>
<path d="M200.254 117.1L190.426 131.319L189.914 131.022L200.268 116.038L200.254 117.1Z" fill="#127351"/>
<path d="M200.239 118.165L190.942 131.618L190.43 131.32L200.254 117.104L200.239 118.165Z" fill="#033624"/>
<path fill-rule="evenodd" clip-rule="evenodd" d="M200.532 97.7685L181.09 125.904L180.578 125.607L200.548 96.707L200.532 97.7685Z" fill="#127351"/>
<path fill-rule="evenodd" clip-rule="evenodd" d="M200.518 98.8301L181.604 126.201L181.092 125.904L200.534 97.7686L200.518 98.8301Z" fill="#033624"/>
<path fill-rule="evenodd" clip-rule="evenodd" d="M200.811 78.436L171.753 120.488L171.24 120.191L200.826 77.3745L200.811 78.436Z" fill="#127351"/>
<path fill-rule="evenodd" clip-rule="evenodd" d="M200.797 79.4995L172.269 120.786L171.756 120.489L200.813 78.439L200.797 79.4995Z" fill="#033624"/>
<path fill-rule="evenodd" clip-rule="evenodd" d="M201.094 59.1035L162.419 115.071L161.906 114.774L201.109 58.043L201.094 59.1035Z" fill="#127351"/>
<path fill-rule="evenodd" clip-rule="evenodd" d="M201.08 60.163L162.932 115.368L162.42 115.072L201.094 59.1035L201.08 60.163Z" fill="#033624"/>
<path fill-rule="evenodd" clip-rule="evenodd" d="M194.847 49.2201L153.084 109.656L152.572 109.359L194.335 48.9229L194.847 49.2201Z" fill="#127351"/>
<path fill-rule="evenodd" clip-rule="evenodd" d="M195.36 49.5165L153.596 109.952L153.084 109.655L194.848 49.2202L195.36 49.5165Z" fill="#033624"/>
<path fill-rule="evenodd" clip-rule="evenodd" d="M185.516 43.8011L143.75 104.241L143.238 103.944L185.004 43.5039L185.516 43.8011Z" fill="#127351"/>
<path fill-rule="evenodd" clip-rule="evenodd" d="M186.028 44.0985L144.262 104.537L143.75 104.239L185.516 43.8013L186.028 44.0985Z" fill="#033624"/>
<path fill-rule="evenodd" clip-rule="evenodd" d="M176.183 38.3832L134.415 98.8249L133.902 98.5277L175.671 38.0859L176.183 38.3832Z" fill="#127351"/>
<path fill-rule="evenodd" clip-rule="evenodd" d="M176.694 38.6795L134.926 99.1213L134.414 98.8241L176.182 38.3823L176.694 38.6795Z" fill="#033624"/>
<path fill-rule="evenodd" clip-rule="evenodd" d="M166.851 32.9642L125.08 93.4089L124.568 93.1127L166.339 32.668L166.851 32.9642Z" fill="#127351"/>
<path fill-rule="evenodd" clip-rule="evenodd" d="M167.359 33.2601L125.59 93.7049L125.078 93.4076L166.847 32.9629L167.359 33.2601Z" fill="#033624"/>
<path fill-rule="evenodd" clip-rule="evenodd" d="M157.519 27.5458L115.746 87.9935L115.234 87.6962L157.007 27.2485L157.519 27.5458Z" fill="#127351"/>
<path fill-rule="evenodd" clip-rule="evenodd" d="M158.028 27.8412L116.257 88.2879L115.744 87.9916L157.517 27.5439L158.028 27.8412Z" fill="#033624"/>
<path fill-rule="evenodd" clip-rule="evenodd" d="M142.806 29.9116L106.411 82.5782L105.898 82.28L141.839 30.273L142.806 29.9116Z" fill="#127351"/>
<path fill-rule="evenodd" clip-rule="evenodd" d="M143.767 29.5513L106.92 82.8726L106.408 82.5743L142.799 29.9147L143.767 29.5513Z" fill="#033624"/>
<path fill-rule="evenodd" clip-rule="evenodd" d="M125.159 36.5156L97.0755 77.161L96.5625 76.8638L124.193 36.877L125.159 36.5156Z" fill="#127351"/>
<path fill-rule="evenodd" clip-rule="evenodd" d="M126.123 36.1562L97.5843 77.4563L97.0723 77.1591L125.155 36.5186L126.123 36.1562Z" fill="#033624"/>
<path fill-rule="evenodd" clip-rule="evenodd" d="M107.524 43.1167L87.7405 71.7448L87.2285 71.4486L106.556 43.4791L107.524 43.1167Z" fill="#127351"/>
<path fill-rule="evenodd" clip-rule="evenodd" d="M108.485 42.7583L88.2503 72.0401L87.7383 71.7429L107.518 43.1197L108.485 42.7583Z" fill="#033624"/>
<path d="M89.8842 49.7207L78.4065 66.3296L77.8945 66.0334L88.9162 50.0831L89.8842 49.7207Z" fill="#127351"/>
<path d="M90.8431 49.3613L78.9144 66.6239L78.4023 66.3277L89.8761 49.7237L90.8431 49.3613Z" fill="#033624"/>
<path fill-rule="evenodd" clip-rule="evenodd" d="M188.342 53.6284L154.969 102.293L154.895 78.6474L188.342 53.6284Z" fill="#7F7F7F"/>
<path fill-rule="evenodd" clip-rule="evenodd" d="M128.387 62.229L154.892 77.73L154.969 102.293L128.34 86.6032L128.387 62.229Z" fill="#CCCCCC"/>
<path fill-rule="evenodd" clip-rule="evenodd" d="M187.978 42.6083L180.097 38.0246L180.078 17.771L187.991 22.3468L187.978 42.6083Z" fill="#CCCCCC"/>
<path fill-rule="evenodd" clip-rule="evenodd" d="M187.656 27.5171L179.09 22.5345L179.07 16.5288L187.671 21.5036L187.656 27.5171Z" fill="#B32D22"/>
<path fill-rule="evenodd" clip-rule="evenodd" d="M204.251 17.867L187.656 27.5164L187.672 21.5038L204.251 11.8604V17.867Z" fill="#982724"/>
<path fill-rule="evenodd" clip-rule="evenodd" d="M200.229 118.691L209.151 131.573L209.665 131.277L200.243 117.675L200.229 118.691Z" fill="#033624"/>
<path fill-rule="evenodd" clip-rule="evenodd" d="M200.213 119.709L208.637 131.868L209.15 131.573L200.228 118.691L200.213 119.709Z" fill="#0B573C"/>
<path fill-rule="evenodd" clip-rule="evenodd" d="M200.496 100.157L218.51 126.193L219.024 125.897L200.511 99.1406L200.496 100.157Z" fill="#033624"/>
<path fill-rule="evenodd" clip-rule="evenodd" d="M200.48 101.175L217.995 126.489L218.508 126.193L200.496 100.158L200.48 101.175Z" fill="#0B573C"/>
<path fill-rule="evenodd" clip-rule="evenodd" d="M200.768 81.5898L227.871 120.811L228.385 120.517L200.782 80.5718L200.768 81.5898Z" fill="#033624"/>
<path fill-rule="evenodd" clip-rule="evenodd" d="M200.754 82.6059L227.359 121.108L227.872 120.811L200.769 81.5889L200.754 82.6059Z" fill="#0B573C"/>
<path fill-rule="evenodd" clip-rule="evenodd" d="M201.039 63.0576L237.231 115.433L237.745 115.138L201.054 62.0425L201.039 63.0576Z" fill="#033624"/>
<path fill-rule="evenodd" clip-rule="evenodd" d="M201.023 64.0727L236.718 115.727L237.231 115.432L201.038 63.0557L201.023 64.0727Z" fill="#0B573C"/>
<path fill-rule="evenodd" clip-rule="evenodd" d="M209.797 56.8091L246.59 110.053L247.104 109.757L210.843 57.285L209.797 56.8091Z" fill="#033624"/>
<path fill-rule="evenodd" clip-rule="evenodd" d="M208.754 56.3369L246.077 110.346L246.589 110.051L209.798 56.8109L208.754 56.3369Z" fill="#0B573C"/>
<path fill-rule="evenodd" clip-rule="evenodd" d="M228.855 65.4648L255.95 104.673L256.463 104.377L229.903 65.9398L228.855 65.4648Z" fill="#033624"/>
<path fill-rule="evenodd" clip-rule="evenodd" d="M227.816 64.9912L255.441 104.967L255.954 104.672L228.862 65.4662L227.816 64.9912Z" fill="#0B573C"/>
<path fill-rule="evenodd" clip-rule="evenodd" d="M247.91 74.1172L265.308 99.2932L265.821 98.998L248.955 74.5922L247.91 74.1172Z" fill="#033624"/>
<path fill-rule="evenodd" clip-rule="evenodd" d="M246.871 73.646L264.798 99.5863L265.311 99.291L247.916 74.12L246.871 73.646Z" fill="#0B573C"/>
<path fill-rule="evenodd" clip-rule="evenodd" d="M266.971 82.772L274.67 93.9124L275.183 93.6171L268.016 83.246L266.971 82.772Z" fill="#033624"/>
<path fill-rule="evenodd" clip-rule="evenodd" d="M265.93 82.2998L274.157 94.2065L274.669 93.9102L266.975 82.7738L265.93 82.2998Z" fill="#0B573C"/>
<path fill-rule="evenodd" clip-rule="evenodd" d="M154.907 82.6574L128.377 67.269L128.387 62.3229L128.453 62.2676L154.892 77.7301L154.907 82.6574Z" fill="#666666"/>
<path fill-rule="evenodd" clip-rule="evenodd" d="M193.312 48.3425L155.78 78.909L124.975 61.0411L162.511 30.4756L193.312 48.3425Z" fill="#127351"/>
<path fill-rule="evenodd" clip-rule="evenodd" d="M193.31 48.3428L155.779 78.9093L155.777 80.9987L190.409 52.8031L193.31 48.3428Z" fill="#033624"/>
<path fill-rule="evenodd" clip-rule="evenodd" d="M188.141 45.3424L150.602 75.9049L150.055 75.588L187.593 45.0244L188.141 45.3424Z" fill="#139165"/>
<path fill-rule="evenodd" clip-rule="evenodd" d="M188.687 45.6592L151.151 76.2228L150.605 75.9068L188.144 45.3442L188.687 45.6592Z" fill="#033624"/>
<path fill-rule="evenodd" clip-rule="evenodd" d="M178.176 39.5621L140.639 70.1266L140.092 69.8096L177.629 39.2461L178.176 39.5621Z" fill="#139165"/>
<path fill-rule="evenodd" clip-rule="evenodd" d="M178.724 39.8799L141.185 70.4435L140.639 70.1265L178.179 39.564L178.724 39.8799Z" fill="#033624"/>
<path fill-rule="evenodd" clip-rule="evenodd" d="M168.219 33.7862L130.676 64.3478L130.129 64.0298L167.668 33.4663L168.219 33.7862Z" fill="#139165"/>
<path fill-rule="evenodd" clip-rule="evenodd" d="M168.764 34.1012L131.221 64.6637L130.674 64.3458L168.213 33.7822L168.764 34.1012Z" fill="#033624"/>
<path fill-rule="evenodd" clip-rule="evenodd" d="M140.639 70.1261H140.638L140.092 69.8081L140.639 70.1261Z" fill="#127351"/>
<path fill-rule="evenodd" clip-rule="evenodd" d="M131.219 64.6627L130.672 64.3457L131.219 64.6627Z" fill="#033624"/>
<path fill-rule="evenodd" clip-rule="evenodd" d="M147.258 94.7746C147.258 88.3976 147.258 81.5408 147.258 75.1638C143.556 73.0447 139.853 70.9257 136.15 68.8096C136.15 75.1727 136.15 82.0167 136.15 88.3788C139.852 90.5117 143.555 92.6417 147.258 94.7746Z" fill="#7F7F7F"/>
<path fill-rule="evenodd" clip-rule="evenodd" d="M147.258 94.7735V81.9683C143.554 84.0854 139.851 86.2034 136.15 88.3225V88.3788C139.852 90.5117 143.555 92.6416 147.258 94.7735Z" fill="#E5E5E5"/>
<path fill-rule="evenodd" clip-rule="evenodd" d="M147.257 93.6007V75.167C143.903 73.2474 140.548 71.3278 137.191 69.4092V87.8064C140.547 89.7378 143.903 91.6683 147.257 93.6007Z" fill="white"/>
<path fill-rule="evenodd" clip-rule="evenodd" d="M147.259 75.1669C144.167 73.3964 141.073 71.6269 137.979 69.8584V87.0765C141.072 88.8569 144.166 90.6373 147.259 92.4187V75.1669Z" fill="#00A1B3"/>
<path fill-rule="evenodd" clip-rule="evenodd" d="M147.259 77.2959L137.979 71.9133V69.8584C141.072 71.6269 144.166 73.3974 147.259 75.1669V77.2959Z" fill="#006873"/>
<path fill-rule="evenodd" clip-rule="evenodd" d="M143.59 73.0656V91.4874L142.869 91.0727V72.6528L143.59 73.0656Z" fill="white"/>
<path fill-rule="evenodd" clip-rule="evenodd" d="M147.194 83.185C144.102 81.4145 141.009 79.645 137.914 77.8765V78.6585C141.008 80.4399 144.102 82.2193 147.194 84.0006V83.185Z" fill="white"/>
<path fill-rule="evenodd" clip-rule="evenodd" d="M124.975 61.041L155.781 78.9089L155.779 80.9984L124.979 63.1305L124.975 61.041Z" fill="#05402B"/>
</svg>
