<svg width="252" height="252" viewBox="0 0 252 252" fill="none" xmlns="http://www.w3.org/2000/svg">
<path d="M42 73.5V94.5H210V73.5C210 67.9305 207.788 62.589 203.849 58.6508C199.911 54.7125 194.57 52.5 189 52.5H63C57.4305 52.5 52.089 54.7125 48.1508 58.6508C44.2125 62.589 42 67.9305 42 73.5Z" fill="white"/>
<path d="M168 52.5H189C194.57 52.5 199.911 54.7125 203.849 58.6508C207.788 62.589 210 67.9305 210 73.5V94.5H42V73.5C42 67.9305 44.2125 62.589 48.1508 58.6508C52.089 54.7125 57.4305 52.5 63 52.5H84M168 52.5V31.5M168 52.5H84M84 52.5V31.5M42 99.75V199.5C42 205.07 44.2125 210.411 48.1508 214.349C52.089 218.288 57.4305 220.5 63 220.5H189C194.57 220.5 199.911 218.288 203.849 214.349C207.788 210.411 210 205.07 210 199.5V99.75" stroke="white" stroke-width="21" stroke-linecap="round" stroke-linejoin="round"/>
<path d="M77.3487 139.642L74.0249 139.847C73.968 139.562 73.8459 139.307 73.6584 139.08C73.4709 138.847 73.2237 138.662 72.9169 138.526C72.6158 138.384 72.255 138.312 71.8345 138.312C71.272 138.312 70.7976 138.432 70.4112 138.67C70.0249 138.903 69.8317 139.216 69.8317 139.608C69.8317 139.92 69.9567 140.185 70.2067 140.401C70.4567 140.616 70.8857 140.79 71.4936 140.92L73.8629 141.398C75.1357 141.659 76.0845 142.08 76.7095 142.659C77.3345 143.239 77.647 144 77.647 144.943C77.647 145.801 77.3942 146.554 76.8885 147.202C76.3885 147.849 75.701 148.355 74.826 148.719C73.9567 149.077 72.9538 149.256 71.8175 149.256C70.0845 149.256 68.7038 148.895 67.6754 148.173C66.6527 147.446 66.0533 146.457 65.8771 145.207L69.4482 145.02C69.5561 145.548 69.8175 145.952 70.2322 146.23C70.647 146.503 71.1783 146.639 71.826 146.639C72.4624 146.639 72.9737 146.517 73.3601 146.273C73.7521 146.023 73.951 145.702 73.9567 145.31C73.951 144.98 73.8118 144.71 73.5391 144.5C73.2663 144.284 72.8459 144.119 72.2777 144.006L70.0107 143.554C68.7322 143.298 67.7805 142.855 67.1555 142.224C66.5362 141.594 66.2266 140.79 66.2266 139.812C66.2266 138.972 66.4538 138.247 66.9084 137.639C67.3686 137.031 68.0135 136.562 68.843 136.233C69.6783 135.903 70.6555 135.739 71.7749 135.739C73.4283 135.739 74.7294 136.088 75.6783 136.787C76.6328 137.486 77.1896 138.437 77.3487 139.642ZM79.9332 153.909V135.909H83.5128V138.108H83.6747C83.8338 137.756 84.0639 137.398 84.3651 137.034C84.6719 136.665 85.0696 136.358 85.5582 136.114C86.0526 135.864 86.6662 135.739 87.3991 135.739C88.3537 135.739 89.2344 135.989 90.0412 136.489C90.848 136.983 91.4929 137.73 91.9759 138.73C92.4588 139.724 92.7003 140.972 92.7003 142.472C92.7003 143.932 92.4645 145.165 91.9929 146.17C91.527 147.17 90.8906 147.929 90.0838 148.446C89.2827 148.957 88.3849 149.213 87.3906 149.213C86.6861 149.213 86.0866 149.097 85.5923 148.864C85.1037 148.631 84.7031 148.338 84.3906 147.986C84.0781 147.628 83.8395 147.267 83.6747 146.903H83.5639V153.909H79.9332ZM83.4872 142.455C83.4872 143.233 83.5952 143.912 83.8111 144.491C84.027 145.071 84.3395 145.523 84.7486 145.847C85.1577 146.165 85.6548 146.324 86.2401 146.324C86.831 146.324 87.331 146.162 87.7401 145.838C88.1491 145.509 88.4588 145.054 88.669 144.474C88.8849 143.889 88.9929 143.216 88.9929 142.455C88.9929 141.699 88.8878 141.034 88.6776 140.46C88.4673 139.886 88.1577 139.437 87.7486 139.114C87.3395 138.79 86.8366 138.628 86.2401 138.628C85.6491 138.628 85.1491 138.784 84.7401 139.097C84.3366 139.409 84.027 139.852 83.8111 140.426C83.5952 141 83.4872 141.676 83.4872 142.455ZM98.8537 149.247C98.0185 149.247 97.2741 149.102 96.6207 148.812C95.9673 148.517 95.4503 148.082 95.0696 147.509C94.6946 146.929 94.5071 146.207 94.5071 145.344C94.5071 144.616 94.6406 144.006 94.9077 143.511C95.1747 143.017 95.5384 142.619 95.9986 142.318C96.4588 142.017 96.9815 141.79 97.5668 141.636C98.1577 141.483 98.777 141.375 99.4247 141.312C100.186 141.233 100.8 141.159 101.266 141.091C101.732 141.017 102.07 140.909 102.28 140.767C102.49 140.625 102.595 140.415 102.595 140.136V140.085C102.595 139.545 102.425 139.128 102.084 138.832C101.749 138.537 101.271 138.389 100.652 138.389C99.9986 138.389 99.4787 138.534 99.0923 138.824C98.706 139.108 98.4503 139.466 98.3253 139.898L94.9673 139.625C95.1378 138.83 95.473 138.142 95.973 137.562C96.473 136.977 97.1179 136.528 97.9077 136.216C98.7031 135.898 99.6236 135.739 100.669 135.739C101.396 135.739 102.092 135.824 102.757 135.994C103.428 136.165 104.021 136.429 104.538 136.787C105.061 137.145 105.473 137.605 105.774 138.168C106.075 138.724 106.226 139.392 106.226 140.17V149H102.783V147.185H102.68C102.47 147.594 102.189 147.955 101.837 148.267C101.484 148.574 101.061 148.815 100.567 148.991C100.072 149.162 99.5014 149.247 98.8537 149.247ZM99.8935 146.741C100.428 146.741 100.899 146.636 101.308 146.426C101.717 146.21 102.038 145.92 102.271 145.557C102.504 145.193 102.621 144.781 102.621 144.321V142.932C102.507 143.006 102.351 143.074 102.152 143.136C101.959 143.193 101.74 143.247 101.496 143.298C101.251 143.344 101.007 143.386 100.763 143.426C100.518 143.46 100.297 143.491 100.098 143.52C99.6719 143.582 99.2997 143.682 98.9815 143.818C98.6634 143.955 98.4162 144.139 98.2401 144.372C98.0639 144.599 97.9759 144.884 97.9759 145.224C97.9759 145.719 98.1548 146.097 98.5128 146.358C98.8764 146.614 99.3366 146.741 99.8935 146.741ZM98.206 134.119C97.7173 134.119 97.2969 133.949 96.9446 133.608C96.5923 133.261 96.4162 132.852 96.4162 132.381C96.4162 131.898 96.5923 131.489 96.9446 131.153C97.2969 130.818 97.7173 130.651 98.206 130.651C98.7003 130.651 99.1179 130.818 99.4588 131.153C99.8054 131.489 99.9787 131.898 99.9787 132.381C99.9787 132.852 99.8054 133.261 99.4588 133.608C99.1179 133.949 98.7003 134.119 98.206 134.119ZM103.422 134.119C102.933 134.119 102.513 133.949 102.161 133.608C101.808 133.261 101.632 132.852 101.632 132.381C101.632 131.898 101.808 131.489 102.161 131.153C102.513 130.818 102.933 130.651 103.422 130.651C103.916 130.651 104.334 130.818 104.675 131.153C105.021 131.489 105.195 131.898 105.195 132.381C105.195 132.852 105.021 133.261 104.675 133.608C104.334 133.949 103.916 134.119 103.422 134.119ZM116.006 135.909V138.636H108.122V135.909H116.006ZM109.912 132.773H113.543V144.977C113.543 145.312 113.594 145.574 113.696 145.761C113.798 145.943 113.94 146.071 114.122 146.145C114.31 146.219 114.526 146.256 114.77 146.256C114.94 146.256 115.111 146.241 115.281 146.213C115.452 146.179 115.582 146.153 115.673 146.136L116.244 148.838C116.063 148.895 115.807 148.96 115.477 149.034C115.148 149.114 114.747 149.162 114.276 149.179C113.401 149.213 112.634 149.097 111.974 148.83C111.321 148.562 110.813 148.148 110.449 147.585C110.085 147.023 109.906 146.312 109.912 145.455V132.773ZM124.196 149.256C122.849 149.256 121.69 148.983 120.719 148.438C119.753 147.886 119.009 147.108 118.486 146.102C117.963 145.091 117.702 143.895 117.702 142.514C117.702 141.168 117.963 139.986 118.486 138.969C119.009 137.952 119.744 137.159 120.693 136.591C121.648 136.023 122.767 135.739 124.051 135.739C124.915 135.739 125.719 135.878 126.463 136.156C127.213 136.429 127.866 136.841 128.423 137.392C128.986 137.943 129.423 138.636 129.736 139.472C130.048 140.301 130.205 141.273 130.205 142.386V143.384H119.151V141.134H126.787C126.787 140.611 126.673 140.148 126.446 139.744C126.219 139.341 125.903 139.026 125.5 138.798C125.102 138.565 124.639 138.449 124.111 138.449C123.56 138.449 123.071 138.577 122.645 138.832C122.224 139.082 121.895 139.42 121.656 139.847C121.418 140.267 121.295 140.736 121.29 141.253V143.392C121.29 144.04 121.409 144.599 121.648 145.071C121.892 145.543 122.236 145.906 122.679 146.162C123.122 146.418 123.648 146.545 124.256 146.545C124.659 146.545 125.028 146.489 125.364 146.375C125.699 146.261 125.986 146.091 126.224 145.864C126.463 145.636 126.645 145.358 126.77 145.028L130.128 145.25C129.957 146.057 129.608 146.761 129.08 147.364C128.557 147.96 127.881 148.426 127.051 148.761C126.227 149.091 125.276 149.256 124.196 149.256ZM132.574 149V135.909H136.094V138.193H136.23C136.469 137.381 136.869 136.767 137.432 136.352C137.994 135.932 138.642 135.722 139.375 135.722C139.557 135.722 139.753 135.733 139.963 135.756C140.173 135.778 140.358 135.81 140.517 135.849V139.071C140.347 139.02 140.111 138.974 139.81 138.935C139.509 138.895 139.233 138.875 138.983 138.875C138.449 138.875 137.972 138.991 137.551 139.224C137.136 139.452 136.807 139.77 136.562 140.179C136.324 140.588 136.205 141.06 136.205 141.594V149H132.574ZM151.682 149.247C150.847 149.247 150.102 149.102 149.449 148.812C148.795 148.517 148.278 148.082 147.898 147.509C147.523 146.929 147.335 146.207 147.335 145.344C147.335 144.616 147.469 144.006 147.736 143.511C148.003 143.017 148.366 142.619 148.827 142.318C149.287 142.017 149.81 141.79 150.395 141.636C150.986 141.483 151.605 141.375 152.253 141.312C153.014 141.233 153.628 141.159 154.094 141.091C154.56 141.017 154.898 140.909 155.108 140.767C155.318 140.625 155.423 140.415 155.423 140.136V140.085C155.423 139.545 155.253 139.128 154.912 138.832C154.577 138.537 154.099 138.389 153.48 138.389C152.827 138.389 152.307 138.534 151.92 138.824C151.534 139.108 151.278 139.466 151.153 139.898L147.795 139.625C147.966 138.83 148.301 138.142 148.801 137.562C149.301 136.977 149.946 136.528 150.736 136.216C151.531 135.898 152.452 135.739 153.497 135.739C154.224 135.739 154.92 135.824 155.585 135.994C156.256 136.165 156.849 136.429 157.366 136.787C157.889 137.145 158.301 137.605 158.602 138.168C158.903 138.724 159.054 139.392 159.054 140.17V149H155.611V147.185H155.509C155.298 147.594 155.017 147.955 154.665 148.267C154.312 148.574 153.889 148.815 153.395 148.991C152.901 149.162 152.33 149.247 151.682 149.247ZM152.722 146.741C153.256 146.741 153.727 146.636 154.136 146.426C154.545 146.21 154.866 145.92 155.099 145.557C155.332 145.193 155.449 144.781 155.449 144.321V142.932C155.335 143.006 155.179 143.074 154.98 143.136C154.787 143.193 154.568 143.247 154.324 143.298C154.08 143.344 153.835 143.386 153.591 143.426C153.347 143.46 153.125 143.491 152.926 143.52C152.5 143.582 152.128 143.682 151.81 143.818C151.491 143.955 151.244 144.139 151.068 144.372C150.892 144.599 150.804 144.884 150.804 145.224C150.804 145.719 150.983 146.097 151.341 146.358C151.705 146.614 152.165 146.741 152.722 146.741ZM165.501 131.545V149H161.871V131.545H165.501ZM179.302 139.642L175.978 139.847C175.921 139.562 175.799 139.307 175.612 139.08C175.424 138.847 175.177 138.662 174.87 138.526C174.569 138.384 174.208 138.312 173.788 138.312C173.225 138.312 172.751 138.432 172.364 138.67C171.978 138.903 171.785 139.216 171.785 139.608C171.785 139.92 171.91 140.185 172.16 140.401C172.41 140.616 172.839 140.79 173.447 140.92L175.816 141.398C177.089 141.659 178.038 142.08 178.663 142.659C179.288 143.239 179.6 144 179.6 144.943C179.6 145.801 179.347 146.554 178.842 147.202C178.342 147.849 177.654 148.355 176.779 148.719C175.91 149.077 174.907 149.256 173.771 149.256C172.038 149.256 170.657 148.895 169.629 148.173C168.606 147.446 168.006 146.457 167.83 145.207L171.401 145.02C171.509 145.548 171.771 145.952 172.185 146.23C172.6 146.503 173.131 146.639 173.779 146.639C174.415 146.639 174.927 146.517 175.313 146.273C175.705 146.023 175.904 145.702 175.91 145.31C175.904 144.98 175.765 144.71 175.492 144.5C175.219 144.284 174.799 144.119 174.231 144.006L171.964 143.554C170.685 143.298 169.734 142.855 169.109 142.224C168.489 141.594 168.18 140.79 168.18 139.812C168.18 138.972 168.407 138.247 168.862 137.639C169.322 137.031 169.967 136.562 170.796 136.233C171.631 135.903 172.609 135.739 173.728 135.739C175.381 135.739 176.683 136.088 177.631 136.787C178.586 137.486 179.143 138.437 179.302 139.642ZM78.3832 178.239C77.4854 178.233 76.619 178.082 75.7837 177.787C74.9542 177.491 74.2099 177.011 73.5508 176.347C72.8917 175.682 72.369 174.801 71.9826 173.705C71.6019 172.608 71.4116 171.261 71.4116 169.665C71.4173 168.199 71.5849 166.889 71.9144 165.736C72.2496 164.577 72.7269 163.594 73.3462 162.787C73.9712 161.98 74.7184 161.366 75.5877 160.946C76.457 160.52 77.4315 160.307 78.511 160.307C79.6758 160.307 80.7042 160.534 81.5962 160.989C82.4883 161.437 83.2042 162.048 83.744 162.821C84.2894 163.594 84.619 164.46 84.7326 165.42H81.0934C80.9513 164.812 80.6531 164.335 80.1985 163.989C79.744 163.642 79.1815 163.469 78.511 163.469C77.3746 163.469 76.511 163.963 75.9201 164.952C75.3349 165.94 75.0366 167.284 75.0252 168.983H75.1445C75.4059 168.466 75.7582 168.026 76.2013 167.662C76.6502 167.293 77.1587 167.011 77.7269 166.818C78.3008 166.619 78.9059 166.52 79.5423 166.52C80.5763 166.52 81.4968 166.764 82.3036 167.253C83.1104 167.736 83.7468 168.401 84.2127 169.247C84.6786 170.094 84.9116 171.062 84.9116 172.153C84.9116 173.335 84.636 174.386 84.0849 175.307C83.5394 176.227 82.7752 176.949 81.7923 177.472C80.815 177.989 79.6786 178.244 78.3832 178.239ZM78.3661 175.341C78.9343 175.341 79.4428 175.205 79.8917 174.932C80.3406 174.659 80.6928 174.29 80.9485 173.824C81.2042 173.358 81.332 172.835 81.332 172.256C81.332 171.676 81.2042 171.156 80.9485 170.696C80.6985 170.236 80.3519 169.869 79.9087 169.597C79.4656 169.324 78.9599 169.188 78.3917 169.188C77.9656 169.188 77.5707 169.267 77.207 169.426C76.8491 169.585 76.5337 169.807 76.261 170.091C75.994 170.375 75.7837 170.705 75.6303 171.08C75.4769 171.449 75.4002 171.844 75.4002 172.264C75.4002 172.827 75.5281 173.341 75.7837 173.807C76.0451 174.273 76.3974 174.645 76.8406 174.923C77.2894 175.202 77.7979 175.341 78.3661 175.341ZM93.185 160.545H97.7362L102.543 172.273H102.748L107.554 160.545H112.105V178H108.526V166.639H108.381L103.864 177.915H101.426L96.9094 166.597H96.7646V178H93.185V160.545ZM120.993 178.256C119.669 178.256 118.524 177.974 117.558 177.412C116.598 176.844 115.856 176.054 115.333 175.043C114.811 174.026 114.549 172.847 114.549 171.506C114.549 170.153 114.811 168.972 115.333 167.96C115.856 166.943 116.598 166.153 117.558 165.591C118.524 165.023 119.669 164.739 120.993 164.739C122.316 164.739 123.458 165.023 124.419 165.591C125.385 166.153 126.129 166.943 126.652 167.96C127.174 168.972 127.436 170.153 127.436 171.506C127.436 172.847 127.174 174.026 126.652 175.043C126.129 176.054 125.385 176.844 124.419 177.412C123.458 177.974 122.316 178.256 120.993 178.256ZM121.01 175.443C121.612 175.443 122.115 175.273 122.518 174.932C122.922 174.585 123.225 174.114 123.43 173.517C123.64 172.92 123.745 172.241 123.745 171.48C123.745 170.719 123.64 170.04 123.43 169.443C123.225 168.847 122.922 168.375 122.518 168.028C122.115 167.682 121.612 167.509 121.01 167.509C120.402 167.509 119.89 167.682 119.475 168.028C119.066 168.375 118.757 168.847 118.547 169.443C118.342 170.04 118.24 170.719 118.24 171.48C118.24 172.241 118.342 172.92 118.547 173.517C118.757 174.114 119.066 174.585 119.475 174.932C119.89 175.273 120.402 175.443 121.01 175.443ZM133.427 170.432V178H129.797V164.909H133.257V167.219H133.41C133.7 166.457 134.186 165.855 134.868 165.412C135.549 164.963 136.376 164.739 137.348 164.739C138.257 164.739 139.049 164.938 139.725 165.335C140.402 165.733 140.927 166.301 141.302 167.04C141.677 167.773 141.865 168.648 141.865 169.665V178H138.234V170.312C138.24 169.511 138.035 168.886 137.62 168.438C137.206 167.983 136.635 167.756 135.907 167.756C135.419 167.756 134.987 167.861 134.612 168.071C134.243 168.281 133.953 168.588 133.743 168.991C133.538 169.389 133.433 169.869 133.427 170.432ZM148.459 178.247C147.624 178.247 146.88 178.102 146.226 177.812C145.573 177.517 145.056 177.082 144.675 176.509C144.3 175.929 144.113 175.207 144.113 174.344C144.113 173.616 144.246 173.006 144.513 172.511C144.78 172.017 145.144 171.619 145.604 171.318C146.064 171.017 146.587 170.79 147.172 170.636C147.763 170.483 148.382 170.375 149.03 170.312C149.792 170.233 150.405 170.159 150.871 170.091C151.337 170.017 151.675 169.909 151.885 169.767C152.096 169.625 152.201 169.415 152.201 169.136V169.085C152.201 168.545 152.03 168.128 151.689 167.832C151.354 167.537 150.877 167.389 150.257 167.389C149.604 167.389 149.084 167.534 148.698 167.824C148.311 168.108 148.056 168.466 147.931 168.898L144.573 168.625C144.743 167.83 145.078 167.142 145.578 166.562C146.078 165.977 146.723 165.528 147.513 165.216C148.309 164.898 149.229 164.739 150.275 164.739C151.002 164.739 151.698 164.824 152.363 164.994C153.033 165.165 153.627 165.429 154.144 165.787C154.667 166.145 155.078 166.605 155.38 167.168C155.681 167.724 155.831 168.392 155.831 169.17V178H152.388V176.185H152.286C152.076 176.594 151.794 176.955 151.442 177.267C151.09 177.574 150.667 177.815 150.172 177.991C149.678 178.162 149.107 178.247 148.459 178.247ZM149.499 175.741C150.033 175.741 150.505 175.636 150.914 175.426C151.323 175.21 151.644 174.92 151.877 174.557C152.11 174.193 152.226 173.781 152.226 173.321V171.932C152.113 172.006 151.956 172.074 151.757 172.136C151.564 172.193 151.346 172.247 151.101 172.298C150.857 172.344 150.613 172.386 150.368 172.426C150.124 172.46 149.902 172.491 149.703 172.52C149.277 172.582 148.905 172.682 148.587 172.818C148.269 172.955 148.022 173.139 147.846 173.372C147.669 173.599 147.581 173.884 147.581 174.224C147.581 174.719 147.76 175.097 148.118 175.358C148.482 175.614 148.942 175.741 149.499 175.741ZM165.611 164.909V167.636H157.728V164.909H165.611ZM159.517 161.773H163.148V173.977C163.148 174.312 163.199 174.574 163.301 174.761C163.404 174.943 163.546 175.071 163.728 175.145C163.915 175.219 164.131 175.256 164.375 175.256C164.546 175.256 164.716 175.241 164.887 175.213C165.057 175.179 165.188 175.153 165.279 175.136L165.85 177.838C165.668 177.895 165.412 177.96 165.083 178.034C164.753 178.114 164.353 178.162 163.881 178.179C163.006 178.213 162.239 178.097 161.58 177.83C160.926 177.562 160.418 177.148 160.054 176.585C159.691 176.023 159.512 175.312 159.517 174.455V161.773ZM173.801 178.256C172.455 178.256 171.296 177.983 170.324 177.438C169.358 176.886 168.614 176.108 168.091 175.102C167.569 174.091 167.307 172.895 167.307 171.514C167.307 170.168 167.569 168.986 168.091 167.969C168.614 166.952 169.35 166.159 170.299 165.591C171.253 165.023 172.373 164.739 173.657 164.739C174.52 164.739 175.324 164.878 176.069 165.156C176.819 165.429 177.472 165.841 178.029 166.392C178.591 166.943 179.029 167.636 179.341 168.472C179.654 169.301 179.81 170.273 179.81 171.386V172.384H168.756V170.134H176.392C176.392 169.611 176.279 169.148 176.051 168.744C175.824 168.341 175.509 168.026 175.105 167.798C174.708 167.565 174.245 167.449 173.716 167.449C173.165 167.449 172.676 167.577 172.25 167.832C171.83 168.082 171.5 168.42 171.262 168.847C171.023 169.267 170.901 169.736 170.895 170.253V172.392C170.895 173.04 171.015 173.599 171.253 174.071C171.498 174.543 171.841 174.906 172.284 175.162C172.728 175.418 173.253 175.545 173.861 175.545C174.265 175.545 174.634 175.489 174.969 175.375C175.304 175.261 175.591 175.091 175.83 174.864C176.069 174.636 176.25 174.358 176.375 174.028L179.733 174.25C179.563 175.057 179.213 175.761 178.685 176.364C178.162 176.96 177.486 177.426 176.657 177.761C175.833 178.091 174.881 178.256 173.801 178.256Z" fill="white"/>
</svg>
