<svg width="252" height="252" viewBox="0 0 252 252" fill="none" xmlns="http://www.w3.org/2000/svg">
<path d="M42 73.5V94.5H210V73.5C210 67.9305 207.788 62.589 203.849 58.6508C199.911 54.7125 194.57 52.5 189 52.5H63C57.4305 52.5 52.089 54.7125 48.1508 58.6508C44.2125 62.589 42 67.9305 42 73.5Z" fill="white"/>
<path d="M168 52.5H189C194.57 52.5 199.911 54.7125 203.849 58.6508C207.788 62.589 210 67.9305 210 73.5V94.5H42V73.5C42 67.9305 44.2125 62.589 48.1508 58.6508C52.089 54.7125 57.4305 52.5 63 52.5H84M168 52.5V31.5M168 52.5H84M84 52.5V31.5M42 99.75V199.5C42 205.07 44.2125 210.411 48.1508 214.349C52.089 218.288 57.4305 220.5 63 220.5H189C194.57 220.5 199.911 218.288 203.849 214.349C207.788 210.411 210 205.07 210 199.5V99.75" stroke="white" stroke-width="21" stroke-linecap="round" stroke-linejoin="round"/>
<path d="M95.4769 131.545V149H91.7866V131.545H95.4769ZM102.076 141.432V149H98.445V135.909H101.905V138.219H102.059C102.348 137.457 102.834 136.855 103.516 136.412C104.198 135.963 105.025 135.739 105.996 135.739C106.905 135.739 107.698 135.938 108.374 136.335C109.05 136.733 109.576 137.301 109.951 138.04C110.326 138.773 110.513 139.648 110.513 140.665V149H106.882V141.312C106.888 140.511 106.684 139.886 106.269 139.438C105.854 138.983 105.283 138.756 104.556 138.756C104.067 138.756 103.635 138.861 103.26 139.071C102.891 139.281 102.601 139.588 102.391 139.991C102.186 140.389 102.081 140.869 102.076 141.432ZM126.489 131.545V149H122.799V135.048H122.696L118.699 137.554V134.281L123.02 131.545H126.489ZM138.828 138.832V141.713H130.868V138.832H138.828ZM148.222 149.239C146.949 149.239 145.816 149.02 144.821 148.582C143.833 148.139 143.051 147.531 142.478 146.759C141.909 145.98 141.617 145.082 141.6 144.065H145.316C145.338 144.491 145.478 144.866 145.733 145.19C145.995 145.509 146.341 145.756 146.773 145.932C147.205 146.108 147.691 146.196 148.23 146.196C148.793 146.196 149.29 146.097 149.722 145.898C150.154 145.699 150.492 145.423 150.736 145.071C150.98 144.719 151.103 144.312 151.103 143.852C151.103 143.386 150.972 142.974 150.711 142.616C150.455 142.253 150.086 141.969 149.603 141.764C149.125 141.56 148.557 141.457 147.898 141.457H146.27V138.747H147.898C148.455 138.747 148.946 138.651 149.373 138.457C149.804 138.264 150.14 137.997 150.378 137.656C150.617 137.31 150.736 136.906 150.736 136.446C150.736 136.009 150.631 135.625 150.421 135.295C150.216 134.96 149.926 134.699 149.551 134.511C149.182 134.324 148.75 134.23 148.256 134.23C147.756 134.23 147.299 134.321 146.884 134.503C146.469 134.679 146.137 134.932 145.887 135.261C145.637 135.591 145.503 135.977 145.486 136.42H141.949C141.966 135.415 142.253 134.528 142.81 133.761C143.367 132.994 144.117 132.395 145.06 131.963C146.009 131.526 147.08 131.307 148.273 131.307C149.478 131.307 150.532 131.526 151.435 131.963C152.338 132.401 153.04 132.991 153.54 133.736C154.046 134.474 154.296 135.304 154.29 136.224C154.296 137.202 153.992 138.017 153.378 138.67C152.77 139.324 151.978 139.739 151 139.915V140.051C152.284 140.216 153.262 140.662 153.932 141.389C154.608 142.111 154.944 143.014 154.938 144.099C154.944 145.094 154.657 145.977 154.077 146.75C153.503 147.523 152.711 148.131 151.699 148.574C150.688 149.017 149.529 149.239 148.222 149.239ZM75.521 160.545H80.0721L84.8789 172.273H85.0835L89.8903 160.545H94.4414V178H90.8619V166.639H90.717L86.1999 177.915H83.7624L79.2454 166.597H79.1005V178H75.521V160.545ZM103.328 178.256C102.005 178.256 100.86 177.974 99.8938 177.412C98.9336 176.844 98.1921 176.054 97.6694 175.043C97.1467 174.026 96.8853 172.847 96.8853 171.506C96.8853 170.153 97.1467 168.972 97.6694 167.96C98.1921 166.943 98.9336 166.153 99.8938 165.591C100.86 165.023 102.005 164.739 103.328 164.739C104.652 164.739 105.794 165.023 106.755 165.591C107.721 166.153 108.465 166.943 108.988 167.96C109.51 168.972 109.772 170.153 109.772 171.506C109.772 172.847 109.51 174.026 108.988 175.043C108.465 176.054 107.721 176.844 106.755 177.412C105.794 177.974 104.652 178.256 103.328 178.256ZM103.346 175.443C103.948 175.443 104.451 175.273 104.854 174.932C105.257 174.585 105.561 174.114 105.766 173.517C105.976 172.92 106.081 172.241 106.081 171.48C106.081 170.719 105.976 170.04 105.766 169.443C105.561 168.847 105.257 168.375 104.854 168.028C104.451 167.682 103.948 167.509 103.346 167.509C102.738 167.509 102.226 167.682 101.811 168.028C101.402 168.375 101.093 168.847 100.882 169.443C100.678 170.04 100.576 170.719 100.576 171.48C100.576 172.241 100.678 172.92 100.882 173.517C101.093 174.114 101.402 174.585 101.811 174.932C102.226 175.273 102.738 175.443 103.346 175.443ZM115.763 170.432V178H112.132V164.909H115.593V167.219H115.746C116.036 166.457 116.522 165.855 117.203 165.412C117.885 164.963 118.712 164.739 119.684 164.739C120.593 164.739 121.385 164.938 122.061 165.335C122.738 165.733 123.263 166.301 123.638 167.04C124.013 167.773 124.201 168.648 124.201 169.665V178H120.57V170.312C120.576 169.511 120.371 168.886 119.956 168.438C119.542 167.983 118.971 167.756 118.243 167.756C117.755 167.756 117.323 167.861 116.948 168.071C116.578 168.281 116.289 168.588 116.078 168.991C115.874 169.389 115.769 169.869 115.763 170.432ZM130.795 178.247C129.96 178.247 129.216 178.102 128.562 177.812C127.909 177.517 127.392 177.082 127.011 176.509C126.636 175.929 126.449 175.207 126.449 174.344C126.449 173.616 126.582 173.006 126.849 172.511C127.116 172.017 127.48 171.619 127.94 171.318C128.4 171.017 128.923 170.79 129.508 170.636C130.099 170.483 130.718 170.375 131.366 170.312C132.127 170.233 132.741 170.159 133.207 170.091C133.673 170.017 134.011 169.909 134.221 169.767C134.431 169.625 134.537 169.415 134.537 169.136V169.085C134.537 168.545 134.366 168.128 134.025 167.832C133.69 167.537 133.213 167.389 132.593 167.389C131.94 167.389 131.42 167.534 131.034 167.824C130.647 168.108 130.392 168.466 130.267 168.898L126.909 168.625C127.079 167.83 127.414 167.142 127.914 166.562C128.414 165.977 129.059 165.528 129.849 165.216C130.645 164.898 131.565 164.739 132.61 164.739C133.338 164.739 134.034 164.824 134.699 164.994C135.369 165.165 135.963 165.429 136.48 165.787C137.002 166.145 137.414 166.605 137.716 167.168C138.017 167.724 138.167 168.392 138.167 169.17V178H134.724V176.185H134.622C134.412 176.594 134.13 176.955 133.778 177.267C133.426 177.574 133.002 177.815 132.508 177.991C132.014 178.162 131.443 178.247 130.795 178.247ZM131.835 175.741C132.369 175.741 132.841 175.636 133.25 175.426C133.659 175.21 133.98 174.92 134.213 174.557C134.446 174.193 134.562 173.781 134.562 173.321V171.932C134.449 172.006 134.292 172.074 134.093 172.136C133.9 172.193 133.681 172.247 133.437 172.298C133.193 172.344 132.949 172.386 132.704 172.426C132.46 172.46 132.238 172.491 132.039 172.52C131.613 172.582 131.241 172.682 130.923 172.818C130.605 172.955 130.358 173.139 130.181 173.372C130.005 173.599 129.917 173.884 129.917 174.224C129.917 174.719 130.096 175.097 130.454 175.358C130.818 175.614 131.278 175.741 131.835 175.741ZM147.947 164.909V167.636H140.064V164.909H147.947ZM141.853 161.773H145.484V173.977C145.484 174.312 145.535 174.574 145.637 174.761C145.74 174.943 145.882 175.071 146.064 175.145C146.251 175.219 146.467 175.256 146.711 175.256C146.882 175.256 147.052 175.241 147.223 175.213C147.393 175.179 147.524 175.153 147.615 175.136L148.186 177.838C148.004 177.895 147.748 177.96 147.419 178.034C147.089 178.114 146.689 178.162 146.217 178.179C145.342 178.213 144.575 178.097 143.916 177.83C143.262 177.562 142.754 177.148 142.39 176.585C142.027 176.023 141.848 175.312 141.853 174.455V161.773ZM156.137 178.256C154.791 178.256 153.632 177.983 152.66 177.438C151.694 176.886 150.95 176.108 150.427 175.102C149.904 174.091 149.643 172.895 149.643 171.514C149.643 170.168 149.904 168.986 150.427 167.969C150.95 166.952 151.686 166.159 152.635 165.591C153.589 165.023 154.708 164.739 155.993 164.739C156.856 164.739 157.66 164.878 158.404 165.156C159.154 165.429 159.808 165.841 160.365 166.392C160.927 166.943 161.365 167.636 161.677 168.472C161.99 169.301 162.146 170.273 162.146 171.386V172.384H151.092V170.134H158.728C158.728 169.611 158.615 169.148 158.387 168.744C158.16 168.341 157.845 168.026 157.441 167.798C157.044 167.565 156.581 167.449 156.052 167.449C155.501 167.449 155.012 167.577 154.586 167.832C154.166 168.082 153.836 168.42 153.598 168.847C153.359 169.267 153.237 169.736 153.231 170.253V172.392C153.231 173.04 153.35 173.599 153.589 174.071C153.833 174.543 154.177 174.906 154.62 175.162C155.064 175.418 155.589 175.545 156.197 175.545C156.6 175.545 156.97 175.489 157.305 175.375C157.64 175.261 157.927 175.091 158.166 174.864C158.404 174.636 158.586 174.358 158.711 174.028L162.069 174.25C161.899 175.057 161.549 175.761 161.021 176.364C160.498 176.96 159.822 177.426 158.993 177.761C158.169 178.091 157.217 178.256 156.137 178.256ZM168.146 170.432V178H164.515V164.909H167.975V167.219H168.129C168.419 166.457 168.904 165.855 169.586 165.412C170.268 164.963 171.095 164.739 172.066 164.739C172.975 164.739 173.768 164.938 174.444 165.335C175.12 165.733 175.646 166.301 176.021 167.04C176.396 167.773 176.583 168.648 176.583 169.665V178H172.953V170.312C172.958 169.511 172.754 168.886 172.339 168.438C171.924 167.983 171.353 167.756 170.626 167.756C170.137 167.756 169.706 167.861 169.331 168.071C168.961 168.281 168.672 168.588 168.461 168.991C168.257 169.389 168.152 169.869 168.146 170.432Z" fill="white"/>
</svg>
