<svg width="252" height="252" viewBox="0 0 252 252" fill="none" xmlns="http://www.w3.org/2000/svg">
<path d="M62.6175 143.545V161H58.9272V143.545H62.6175ZM71.5004 161.256C70.1594 161.256 69.006 160.972 68.0401 160.403C67.0799 159.83 66.3413 159.034 65.8242 158.017C65.3129 157 65.0572 155.83 65.0572 154.506C65.0572 153.165 65.3157 151.989 65.8327 150.977C66.3555 149.96 67.0969 149.168 68.0572 148.599C69.0174 148.026 70.1594 147.739 71.4833 147.739C72.6254 147.739 73.6254 147.946 74.4833 148.361C75.3413 148.776 76.0202 149.358 76.5202 150.108C77.0202 150.858 77.2958 151.739 77.3469 152.75H73.9208C73.8242 152.097 73.5685 151.571 73.1538 151.173C72.7447 150.77 72.2077 150.568 71.543 150.568C70.9805 150.568 70.489 150.722 70.0685 151.028C69.6538 151.33 69.3299 151.77 69.0969 152.349C68.864 152.929 68.7475 153.631 68.7475 154.455C68.7475 155.29 68.8612 156 69.0884 156.585C69.3214 157.17 69.6481 157.616 70.0685 157.923C70.489 158.23 70.9805 158.384 71.543 158.384C71.9577 158.384 72.3299 158.298 72.6594 158.128C72.9947 157.957 73.2702 157.71 73.4862 157.386C73.7077 157.057 73.8526 156.662 73.9208 156.202H77.3469C77.2901 157.202 77.0174 158.082 76.5288 158.844C76.0458 159.599 75.3782 160.19 74.5259 160.616C73.6737 161.043 72.6651 161.256 71.5004 161.256ZM83.3022 153.432V161H79.6715V143.545H83.1999V150.219H83.3533C83.6488 149.446 84.1261 148.841 84.7852 148.403C85.4442 147.96 86.271 147.739 87.2653 147.739C88.1744 147.739 88.967 147.938 89.6431 148.335C90.3249 148.727 90.8533 149.293 91.2283 150.031C91.609 150.764 91.7965 151.642 91.7908 152.665V161H88.1602V153.312C88.1658 152.506 87.9613 151.878 87.5465 151.429C87.1374 150.98 86.5636 150.756 85.8249 150.756C85.3306 150.756 84.8931 150.861 84.5124 151.071C84.1374 151.281 83.842 151.588 83.6261 151.991C83.4158 152.389 83.3079 152.869 83.3022 153.432ZM102.785 161L99.2227 147.909H102.896L104.924 156.705H105.044L107.157 147.909H110.762L112.91 156.653H113.021L115.015 147.909H118.68L115.126 161H111.282L109.032 152.767H108.87L106.62 161H102.785ZM126.255 161.256C124.908 161.256 123.749 160.983 122.777 160.438C121.811 159.886 121.067 159.108 120.544 158.102C120.022 157.091 119.76 155.895 119.76 154.514C119.76 153.168 120.022 151.986 120.544 150.969C121.067 149.952 121.803 149.159 122.752 148.591C123.706 148.023 124.826 147.739 126.11 147.739C126.973 147.739 127.777 147.878 128.522 148.156C129.272 148.429 129.925 148.841 130.482 149.392C131.044 149.943 131.482 150.636 131.794 151.472C132.107 152.301 132.263 153.273 132.263 154.386V155.384H121.209V153.134H128.846C128.846 152.611 128.732 152.148 128.505 151.744C128.277 151.341 127.962 151.026 127.559 150.798C127.161 150.565 126.698 150.449 126.169 150.449C125.618 150.449 125.13 150.577 124.703 150.832C124.283 151.082 123.953 151.42 123.715 151.847C123.476 152.267 123.354 152.736 123.348 153.253V155.392C123.348 156.04 123.468 156.599 123.706 157.071C123.951 157.543 124.294 157.906 124.738 158.162C125.181 158.418 125.706 158.545 126.314 158.545C126.718 158.545 127.087 158.489 127.422 158.375C127.757 158.261 128.044 158.091 128.283 157.864C128.522 157.636 128.703 157.358 128.828 157.028L132.186 157.25C132.016 158.057 131.667 158.761 131.138 159.364C130.615 159.96 129.939 160.426 129.11 160.761C128.286 161.091 127.334 161.256 126.255 161.256ZM134.632 161V147.909H138.263V161H134.632ZM136.456 146.222C135.917 146.222 135.453 146.043 135.067 145.685C134.686 145.321 134.496 144.886 134.496 144.381C134.496 143.881 134.686 143.452 135.067 143.094C135.453 142.73 135.917 142.548 136.456 142.548C136.996 142.548 137.456 142.73 137.837 143.094C138.223 143.452 138.417 143.881 138.417 144.381C138.417 144.886 138.223 145.321 137.837 145.685C137.456 146.043 136.996 146.222 136.456 146.222ZM141.24 161V148.156C141.24 147.151 141.487 146.287 141.981 145.565C142.481 144.838 143.18 144.281 144.078 143.895C144.981 143.503 146.038 143.307 147.248 143.307C148.385 143.307 149.422 143.486 150.359 143.844C151.302 144.202 152.058 144.73 152.626 145.429C153.194 146.128 153.478 146.994 153.478 148.028C153.478 148.932 153.254 149.705 152.805 150.347C152.356 150.983 151.74 151.415 150.956 151.642V151.83C152.092 151.909 152.995 152.349 153.666 153.151C154.336 153.952 154.669 154.966 154.663 156.193C154.657 157.21 154.416 158.077 153.939 158.793C153.467 159.509 152.811 160.057 151.97 160.438C151.129 160.812 150.154 161 149.047 161H146.754V158.043H148.467C148.984 158.043 149.43 157.952 149.805 157.77C150.186 157.588 150.478 157.332 150.683 157.003C150.893 156.668 150.995 156.281 150.99 155.844C150.99 155.162 150.737 154.616 150.231 154.207C149.725 153.793 149.038 153.585 148.169 153.585H146.822V150.756H147.725C148.14 150.756 148.498 150.656 148.799 150.457C149.106 150.253 149.342 149.986 149.507 149.656C149.677 149.321 149.762 148.957 149.762 148.565C149.774 147.923 149.564 147.395 149.132 146.98C148.706 146.56 148.118 146.349 147.368 146.349C146.623 146.349 146.021 146.562 145.561 146.989C145.1 147.409 144.87 147.974 144.87 148.685V161H141.24ZM168.63 161.256C167.283 161.256 166.124 160.983 165.152 160.438C164.186 159.886 163.442 159.108 162.919 158.102C162.397 157.091 162.135 155.895 162.135 154.514C162.135 153.168 162.397 151.986 162.919 150.969C163.442 149.952 164.178 149.159 165.127 148.591C166.081 148.023 167.201 147.739 168.485 147.739C169.348 147.739 170.152 147.878 170.897 148.156C171.647 148.429 172.3 148.841 172.857 149.392C173.419 149.943 173.857 150.636 174.169 151.472C174.482 152.301 174.638 153.273 174.638 154.386V155.384H163.584V153.134H171.221C171.221 152.611 171.107 152.148 170.88 151.744C170.652 151.341 170.337 151.026 169.934 150.798C169.536 150.565 169.073 150.449 168.544 150.449C167.993 150.449 167.505 150.577 167.078 150.832C166.658 151.082 166.328 151.42 166.09 151.847C165.851 152.267 165.729 152.736 165.723 153.253V155.392C165.723 156.04 165.843 156.599 166.081 157.071C166.326 157.543 166.669 157.906 167.113 158.162C167.556 158.418 168.081 158.545 168.689 158.545C169.093 158.545 169.462 158.489 169.797 158.375C170.132 158.261 170.419 158.091 170.658 157.864C170.897 157.636 171.078 157.358 171.203 157.028L174.561 157.25C174.391 158.057 174.042 158.761 173.513 159.364C172.99 159.96 172.314 160.426 171.485 160.761C170.661 161.091 169.709 161.256 168.63 161.256ZM187.9 151.642L184.576 151.847C184.519 151.562 184.397 151.307 184.209 151.08C184.022 150.847 183.775 150.662 183.468 150.526C183.167 150.384 182.806 150.312 182.385 150.312C181.823 150.312 181.348 150.432 180.962 150.67C180.576 150.903 180.382 151.216 180.382 151.608C180.382 151.92 180.507 152.185 180.757 152.401C181.007 152.616 181.436 152.79 182.044 152.92L184.414 153.398C185.686 153.659 186.635 154.08 187.26 154.659C187.885 155.239 188.198 156 188.198 156.943C188.198 157.801 187.945 158.554 187.439 159.202C186.939 159.849 186.252 160.355 185.377 160.719C184.507 161.077 183.505 161.256 182.368 161.256C180.635 161.256 179.255 160.895 178.226 160.173C177.203 159.446 176.604 158.457 176.428 157.207L179.999 157.02C180.107 157.548 180.368 157.952 180.783 158.23C181.198 158.503 181.729 158.639 182.377 158.639C183.013 158.639 183.525 158.517 183.911 158.273C184.303 158.023 184.502 157.702 184.507 157.31C184.502 156.98 184.363 156.71 184.09 156.5C183.817 156.284 183.397 156.119 182.828 156.006L180.561 155.554C179.283 155.298 178.331 154.855 177.706 154.224C177.087 153.594 176.777 152.79 176.777 151.812C176.777 150.972 177.005 150.247 177.459 149.639C177.919 149.031 178.564 148.562 179.394 148.233C180.229 147.903 181.206 147.739 182.326 147.739C183.979 147.739 185.28 148.088 186.229 148.787C187.184 149.486 187.74 150.437 187.9 151.642ZM69.017 182.432V190H65.3864V176.909H68.8466V179.219H69C69.2898 178.457 69.7756 177.855 70.4574 177.412C71.1392 176.963 71.9659 176.739 72.9375 176.739C73.8466 176.739 74.6392 176.938 75.3153 177.335C75.9915 177.733 76.517 178.301 76.892 179.04C77.267 179.773 77.4545 180.648 77.4545 181.665V190H73.8239V182.312C73.8295 181.511 73.625 180.886 73.2102 180.438C72.7955 179.983 72.2244 179.756 71.4972 179.756C71.0085 179.756 70.5767 179.861 70.2017 180.071C69.8324 180.281 69.5426 180.588 69.3324 180.991C69.1278 181.389 69.0227 181.869 69.017 182.432ZM86.2308 190.256C84.907 190.256 83.7621 189.974 82.7962 189.412C81.8359 188.844 81.0945 188.054 80.5717 187.043C80.049 186.026 79.7876 184.847 79.7876 183.506C79.7876 182.153 80.049 180.972 80.5717 179.96C81.0945 178.943 81.8359 178.153 82.7962 177.591C83.7621 177.023 84.907 176.739 86.2308 176.739C87.5547 176.739 88.6967 177.023 89.657 177.591C90.6229 178.153 91.3672 178.943 91.8899 179.96C92.4126 180.972 92.674 182.153 92.674 183.506C92.674 184.847 92.4126 186.026 91.8899 187.043C91.3672 188.054 90.6229 188.844 89.657 189.412C88.6967 189.974 87.5547 190.256 86.2308 190.256ZM86.2479 187.443C86.8501 187.443 87.353 187.273 87.7564 186.932C88.1598 186.585 88.4638 186.114 88.6683 185.517C88.8786 184.92 88.9837 184.241 88.9837 183.48C88.9837 182.719 88.8786 182.04 88.6683 181.443C88.4638 180.847 88.1598 180.375 87.7564 180.028C87.353 179.682 86.8501 179.509 86.2479 179.509C85.6399 179.509 85.1286 179.682 84.7138 180.028C84.3047 180.375 83.995 180.847 83.7848 181.443C83.5803 182.04 83.478 182.719 83.478 183.48C83.478 184.241 83.5803 184.92 83.7848 185.517C83.995 186.114 84.3047 186.585 84.7138 186.932C85.1286 187.273 85.6399 187.443 86.2479 187.443ZM100.95 190.256C99.6087 190.256 98.4553 189.972 97.4893 189.403C96.5291 188.83 95.7905 188.034 95.2734 187.017C94.7621 186 94.5064 184.83 94.5064 183.506C94.5064 182.165 94.7649 180.989 95.282 179.977C95.8047 178.96 96.5462 178.168 97.5064 177.599C98.4666 177.026 99.6087 176.739 100.933 176.739C102.075 176.739 103.075 176.946 103.933 177.361C104.79 177.776 105.469 178.358 105.969 179.108C106.469 179.858 106.745 180.739 106.796 181.75H103.37C103.273 181.097 103.018 180.571 102.603 180.173C102.194 179.77 101.657 179.568 100.992 179.568C100.43 179.568 99.9382 179.722 99.5178 180.028C99.103 180.33 98.7791 180.77 98.5462 181.349C98.3132 181.929 98.1967 182.631 98.1967 183.455C98.1967 184.29 98.3104 185 98.5376 185.585C98.7706 186.17 99.0973 186.616 99.5178 186.923C99.9382 187.23 100.43 187.384 100.992 187.384C101.407 187.384 101.779 187.298 102.109 187.128C102.444 186.957 102.719 186.71 102.935 186.386C103.157 186.057 103.302 185.662 103.37 185.202H106.796C106.739 186.202 106.467 187.082 105.978 187.844C105.495 188.599 104.827 189.19 103.975 189.616C103.123 190.043 102.114 190.256 100.95 190.256ZM112.751 182.432V190H109.121V172.545H112.649V179.219H112.803C113.098 178.446 113.575 177.841 114.234 177.403C114.893 176.96 115.72 176.739 116.714 176.739C117.624 176.739 118.416 176.938 119.092 177.335C119.774 177.727 120.303 178.293 120.678 179.031C121.058 179.764 121.246 180.642 121.24 181.665V190H117.609V182.312C117.615 181.506 117.411 180.878 116.996 180.429C116.587 179.98 116.013 179.756 115.274 179.756C114.78 179.756 114.342 179.861 113.962 180.071C113.587 180.281 113.291 180.588 113.075 180.991C112.865 181.389 112.757 181.869 112.751 182.432ZM133.283 182.432V190H129.652V176.909H133.112V179.219H133.266C133.555 178.457 134.041 177.855 134.723 177.412C135.405 176.963 136.232 176.739 137.203 176.739C138.112 176.739 138.905 176.938 139.581 177.335C140.257 177.733 140.783 178.301 141.158 179.04C141.533 179.773 141.72 180.648 141.72 181.665V190H138.089V182.312C138.095 181.511 137.891 180.886 137.476 180.438C137.061 179.983 136.49 179.756 135.763 179.756C135.274 179.756 134.842 179.861 134.467 180.071C134.098 180.281 133.808 180.588 133.598 180.991C133.393 181.389 133.288 181.869 133.283 182.432ZM144.582 190V176.909H148.212V190H144.582ZM146.406 175.222C145.866 175.222 145.403 175.043 145.016 174.685C144.636 174.321 144.445 173.886 144.445 173.381C144.445 172.881 144.636 172.452 145.016 172.094C145.403 171.73 145.866 171.548 146.406 171.548C146.945 171.548 147.406 171.73 147.786 172.094C148.173 172.452 148.366 172.881 148.366 173.381C148.366 173.886 148.173 174.321 147.786 174.685C147.406 175.043 146.945 175.222 146.406 175.222ZM157.036 190.256C155.695 190.256 154.541 189.972 153.575 189.403C152.615 188.83 151.876 188.034 151.359 187.017C150.848 186 150.592 184.83 150.592 183.506C150.592 182.165 150.851 180.989 151.368 179.977C151.891 178.96 152.632 178.168 153.592 177.599C154.553 177.026 155.695 176.739 157.018 176.739C158.161 176.739 159.161 176.946 160.018 177.361C160.876 177.776 161.555 178.358 162.055 179.108C162.555 179.858 162.831 180.739 162.882 181.75H159.456C159.359 181.097 159.104 180.571 158.689 180.173C158.28 179.77 157.743 179.568 157.078 179.568C156.516 179.568 156.024 179.722 155.604 180.028C155.189 180.33 154.865 180.77 154.632 181.349C154.399 181.929 154.283 182.631 154.283 183.455C154.283 184.29 154.396 185 154.624 185.585C154.857 186.17 155.183 186.616 155.604 186.923C156.024 187.23 156.516 187.384 157.078 187.384C157.493 187.384 157.865 187.298 158.195 187.128C158.53 186.957 158.805 186.71 159.021 186.386C159.243 186.057 159.388 185.662 159.456 185.202H162.882C162.825 186.202 162.553 187.082 162.064 187.844C161.581 188.599 160.913 189.19 160.061 189.616C159.209 190.043 158.2 190.256 157.036 190.256ZM168.837 182.432V190H165.207V172.545H168.735V179.219H168.888C169.184 178.446 169.661 177.841 170.32 177.403C170.979 176.96 171.806 176.739 172.8 176.739C173.71 176.739 174.502 176.938 175.178 177.335C175.86 177.727 176.388 178.293 176.763 179.031C177.144 179.764 177.332 180.642 177.326 181.665V190H173.695V182.312C173.701 181.506 173.496 180.878 173.082 180.429C172.673 179.98 172.099 179.756 171.36 179.756C170.866 179.756 170.428 179.861 170.048 180.071C169.673 180.281 169.377 180.588 169.161 180.991C168.951 181.389 168.843 181.869 168.837 182.432ZM187.146 176.909V179.636H179.263V176.909H187.146ZM181.053 173.773H184.683V185.977C184.683 186.312 184.734 186.574 184.837 186.761C184.939 186.943 185.081 187.071 185.263 187.145C185.45 187.219 185.666 187.256 185.911 187.256C186.081 187.256 186.251 187.241 186.422 187.213C186.592 187.179 186.723 187.153 186.814 187.136L187.385 189.838C187.203 189.895 186.947 189.96 186.618 190.034C186.288 190.114 185.888 190.162 185.416 190.179C184.541 190.213 183.774 190.097 183.115 189.83C182.462 189.562 181.953 189.148 181.589 188.585C181.226 188.023 181.047 187.312 181.053 186.455V173.773Z" fill="white"/>
<path d="M42 73.5V94.5H210V73.5C210 67.9305 207.788 62.589 203.849 58.6508C199.911 54.7125 194.57 52.5 189 52.5H63C57.4305 52.5 52.089 54.7125 48.1508 58.6508C44.2125 62.589 42 67.9305 42 73.5Z" fill="white"/>
<path d="M168 52.5H189C194.57 52.5 199.911 54.7125 203.849 58.6508C207.788 62.589 210 67.9305 210 73.5V94.5H42V73.5C42 67.9305 44.2125 62.589 48.1508 58.6508C52.089 54.7125 57.4305 52.5 63 52.5H84M168 52.5V31.5M168 52.5H84M84 52.5V31.5M42 99.75V199.5C42 205.07 44.2125 210.411 48.1508 214.349C52.089 218.288 57.4305 220.5 63 220.5H189C194.57 220.5 199.911 218.288 203.849 214.349C207.788 210.411 210 205.07 210 199.5V99.75" stroke="white" stroke-width="21" stroke-linecap="round" stroke-linejoin="round"/>
</svg>
