<svg width="252" height="252" viewBox="0 0 252 252" fill="none" xmlns="http://www.w3.org/2000/svg">
<path d="M42 73.5V94.5H210V73.5C210 67.9305 207.788 62.589 203.849 58.6508C199.911 54.7125 194.57 52.5 189 52.5H63C57.4305 52.5 52.089 54.7125 48.1508 58.6508C44.2125 62.589 42 67.9305 42 73.5Z" fill="white"/>
<path d="M168 52.5H189C194.57 52.5 199.911 54.7125 203.849 58.6508C207.788 62.589 210 67.9305 210 73.5V94.5H42V73.5C42 67.9305 44.2125 62.589 48.1508 58.6508C52.089 54.7125 57.4305 52.5 63 52.5H84M168 52.5V31.5M168 52.5H84M84 52.5V31.5M42 99.75V199.5C42 205.07 44.2125 210.411 48.1508 214.349C52.089 218.288 57.4305 220.5 63 220.5H189C194.57 220.5 199.911 218.288 203.849 214.349C207.788 210.411 210 205.07 210 199.5V99.75" stroke="white" stroke-width="21" stroke-linecap="round" stroke-linejoin="round"/>
<path d="M93.1449 137.545V155H89.4545V137.545H93.1449ZM99.7436 147.432V155H96.1129V141.909H99.5732V144.219H99.7266C100.016 143.457 100.502 142.855 101.184 142.412C101.866 141.963 102.692 141.739 103.664 141.739C104.573 141.739 105.366 141.938 106.042 142.335C106.718 142.733 107.244 143.301 107.619 144.04C107.994 144.773 108.181 145.648 108.181 146.665V155H104.55V147.312C104.556 146.511 104.352 145.886 103.937 145.438C103.522 144.983 102.951 144.756 102.224 144.756C101.735 144.756 101.303 144.861 100.928 145.071C100.559 145.281 100.269 145.588 100.059 145.991C99.8544 146.389 99.7493 146.869 99.7436 147.432ZM116.299 151.932V149.026L123.586 137.545H126.092V141.568H124.609L120.015 148.838V148.974H130.37V151.932H116.299ZM124.677 155V151.045L124.745 149.759V137.545H128.205V155H124.677ZM141.019 144.832V147.713H133.059V144.832H141.019ZM150.778 155.239C149.88 155.233 149.013 155.082 148.178 154.787C147.349 154.491 146.604 154.011 145.945 153.347C145.286 152.682 144.763 151.801 144.377 150.705C143.996 149.608 143.806 148.261 143.806 146.665C143.812 145.199 143.979 143.889 144.309 142.736C144.644 141.577 145.121 140.594 145.741 139.787C146.366 138.98 147.113 138.366 147.982 137.946C148.852 137.52 149.826 137.307 150.906 137.307C152.07 137.307 153.099 137.534 153.991 137.989C154.883 138.437 155.599 139.048 156.138 139.821C156.684 140.594 157.013 141.46 157.127 142.42H153.488C153.346 141.812 153.048 141.335 152.593 140.989C152.138 140.642 151.576 140.469 150.906 140.469C149.769 140.469 148.906 140.963 148.315 141.952C147.729 142.94 147.431 144.284 147.42 145.983H147.539C147.8 145.466 148.153 145.026 148.596 144.662C149.045 144.293 149.553 144.011 150.121 143.818C150.695 143.619 151.3 143.52 151.937 143.52C152.971 143.52 153.891 143.764 154.698 144.253C155.505 144.736 156.141 145.401 156.607 146.247C157.073 147.094 157.306 148.062 157.306 149.153C157.306 150.335 157.031 151.386 156.479 152.307C155.934 153.227 155.17 153.949 154.187 154.472C153.21 154.989 152.073 155.244 150.778 155.239ZM150.761 152.341C151.329 152.341 151.837 152.205 152.286 151.932C152.735 151.659 153.087 151.29 153.343 150.824C153.599 150.358 153.727 149.835 153.727 149.256C153.727 148.676 153.599 148.156 153.343 147.696C153.093 147.236 152.746 146.869 152.303 146.597C151.86 146.324 151.354 146.188 150.786 146.188C150.36 146.188 149.965 146.267 149.602 146.426C149.244 146.585 148.928 146.807 148.656 147.091C148.388 147.375 148.178 147.705 148.025 148.08C147.871 148.449 147.795 148.844 147.795 149.264C147.795 149.827 147.923 150.341 148.178 150.807C148.44 151.273 148.792 151.645 149.235 151.923C149.684 152.202 150.192 152.341 150.761 152.341ZM75.521 166.545H80.0721L84.8789 178.273H85.0835L89.8903 166.545H94.4414V184H90.8619V172.639H90.717L86.1999 183.915H83.7624L79.2454 172.597H79.1005V184H75.521V166.545ZM103.328 184.256C102.005 184.256 100.86 183.974 99.8938 183.412C98.9336 182.844 98.1921 182.054 97.6694 181.043C97.1467 180.026 96.8853 178.847 96.8853 177.506C96.8853 176.153 97.1467 174.972 97.6694 173.96C98.1921 172.943 98.9336 172.153 99.8938 171.591C100.86 171.023 102.005 170.739 103.328 170.739C104.652 170.739 105.794 171.023 106.755 171.591C107.721 172.153 108.465 172.943 108.988 173.96C109.51 174.972 109.772 176.153 109.772 177.506C109.772 178.847 109.51 180.026 108.988 181.043C108.465 182.054 107.721 182.844 106.755 183.412C105.794 183.974 104.652 184.256 103.328 184.256ZM103.346 181.443C103.948 181.443 104.451 181.273 104.854 180.932C105.257 180.585 105.561 180.114 105.766 179.517C105.976 178.92 106.081 178.241 106.081 177.48C106.081 176.719 105.976 176.04 105.766 175.443C105.561 174.847 105.257 174.375 104.854 174.028C104.451 173.682 103.948 173.509 103.346 173.509C102.738 173.509 102.226 173.682 101.811 174.028C101.402 174.375 101.093 174.847 100.882 175.443C100.678 176.04 100.576 176.719 100.576 177.48C100.576 178.241 100.678 178.92 100.882 179.517C101.093 180.114 101.402 180.585 101.811 180.932C102.226 181.273 102.738 181.443 103.346 181.443ZM115.763 176.432V184H112.132V170.909H115.593V173.219H115.746C116.036 172.457 116.522 171.855 117.203 171.412C117.885 170.963 118.712 170.739 119.684 170.739C120.593 170.739 121.385 170.938 122.061 171.335C122.738 171.733 123.263 172.301 123.638 173.04C124.013 173.773 124.201 174.648 124.201 175.665V184H120.57V176.312C120.576 175.511 120.371 174.886 119.956 174.438C119.542 173.983 118.971 173.756 118.243 173.756C117.755 173.756 117.323 173.861 116.948 174.071C116.578 174.281 116.289 174.588 116.078 174.991C115.874 175.389 115.769 175.869 115.763 176.432ZM130.795 184.247C129.96 184.247 129.216 184.102 128.562 183.812C127.909 183.517 127.392 183.082 127.011 182.509C126.636 181.929 126.449 181.207 126.449 180.344C126.449 179.616 126.582 179.006 126.849 178.511C127.116 178.017 127.48 177.619 127.94 177.318C128.4 177.017 128.923 176.79 129.508 176.636C130.099 176.483 130.718 176.375 131.366 176.312C132.127 176.233 132.741 176.159 133.207 176.091C133.673 176.017 134.011 175.909 134.221 175.767C134.431 175.625 134.537 175.415 134.537 175.136V175.085C134.537 174.545 134.366 174.128 134.025 173.832C133.69 173.537 133.213 173.389 132.593 173.389C131.94 173.389 131.42 173.534 131.034 173.824C130.647 174.108 130.392 174.466 130.267 174.898L126.909 174.625C127.079 173.83 127.414 173.142 127.914 172.562C128.414 171.977 129.059 171.528 129.849 171.216C130.645 170.898 131.565 170.739 132.61 170.739C133.338 170.739 134.034 170.824 134.699 170.994C135.369 171.165 135.963 171.429 136.48 171.787C137.002 172.145 137.414 172.605 137.716 173.168C138.017 173.724 138.167 174.392 138.167 175.17V184H134.724V182.185H134.622C134.412 182.594 134.13 182.955 133.778 183.267C133.426 183.574 133.002 183.815 132.508 183.991C132.014 184.162 131.443 184.247 130.795 184.247ZM131.835 181.741C132.369 181.741 132.841 181.636 133.25 181.426C133.659 181.21 133.98 180.92 134.213 180.557C134.446 180.193 134.562 179.781 134.562 179.321V177.932C134.449 178.006 134.292 178.074 134.093 178.136C133.9 178.193 133.681 178.247 133.437 178.298C133.193 178.344 132.949 178.386 132.704 178.426C132.46 178.46 132.238 178.491 132.039 178.52C131.613 178.582 131.241 178.682 130.923 178.818C130.605 178.955 130.358 179.139 130.181 179.372C130.005 179.599 129.917 179.884 129.917 180.224C129.917 180.719 130.096 181.097 130.454 181.358C130.818 181.614 131.278 181.741 131.835 181.741ZM147.947 170.909V173.636H140.064V170.909H147.947ZM141.853 167.773H145.484V179.977C145.484 180.312 145.535 180.574 145.637 180.761C145.74 180.943 145.882 181.071 146.064 181.145C146.251 181.219 146.467 181.256 146.711 181.256C146.882 181.256 147.052 181.241 147.223 181.213C147.393 181.179 147.524 181.153 147.615 181.136L148.186 183.838C148.004 183.895 147.748 183.96 147.419 184.034C147.089 184.114 146.689 184.162 146.217 184.179C145.342 184.213 144.575 184.097 143.916 183.83C143.262 183.562 142.754 183.148 142.39 182.585C142.027 182.023 141.848 181.312 141.853 180.455V167.773ZM156.137 184.256C154.791 184.256 153.632 183.983 152.66 183.438C151.694 182.886 150.95 182.108 150.427 181.102C149.904 180.091 149.643 178.895 149.643 177.514C149.643 176.168 149.904 174.986 150.427 173.969C150.95 172.952 151.686 172.159 152.635 171.591C153.589 171.023 154.708 170.739 155.993 170.739C156.856 170.739 157.66 170.878 158.404 171.156C159.154 171.429 159.808 171.841 160.365 172.392C160.927 172.943 161.365 173.636 161.677 174.472C161.99 175.301 162.146 176.273 162.146 177.386V178.384H151.092V176.134H158.728C158.728 175.611 158.615 175.148 158.387 174.744C158.16 174.341 157.845 174.026 157.441 173.798C157.044 173.565 156.581 173.449 156.052 173.449C155.501 173.449 155.012 173.577 154.586 173.832C154.166 174.082 153.836 174.42 153.598 174.847C153.359 175.267 153.237 175.736 153.231 176.253V178.392C153.231 179.04 153.35 179.599 153.589 180.071C153.833 180.543 154.177 180.906 154.62 181.162C155.064 181.418 155.589 181.545 156.197 181.545C156.6 181.545 156.97 181.489 157.305 181.375C157.64 181.261 157.927 181.091 158.166 180.864C158.404 180.636 158.586 180.358 158.711 180.028L162.069 180.25C161.899 181.057 161.549 181.761 161.021 182.364C160.498 182.96 159.822 183.426 158.993 183.761C158.169 184.091 157.217 184.256 156.137 184.256ZM168.146 176.432V184H164.515V170.909H167.975V173.219H168.129C168.419 172.457 168.904 171.855 169.586 171.412C170.268 170.963 171.095 170.739 172.066 170.739C172.975 170.739 173.768 170.938 174.444 171.335C175.12 171.733 175.646 172.301 176.021 173.04C176.396 173.773 176.583 174.648 176.583 175.665V184H172.953V176.312C172.958 175.511 172.754 174.886 172.339 174.438C171.924 173.983 171.353 173.756 170.626 173.756C170.137 173.756 169.706 173.861 169.331 174.071C168.961 174.281 168.672 174.588 168.461 174.991C168.257 175.389 168.152 175.869 168.146 176.432Z" fill="white"/>
</svg>
