<svg width="320" height="300" viewBox="0 0 320 300" fill="none" xmlns="http://www.w3.org/2000/svg">
<path d="M319.997 198.067L181.114 277.738L1.81445 175.662L140.77 95.9912L319.997 198.067Z" fill="#BC8867"/>
<path d="M320 198.067L319.928 220.329L181.045 300L181.117 277.738L320 198.067Z" fill="#845E40"/>
<path d="M181.114 277.738L181.042 300L1.81445 197.924V175.662L181.114 277.738Z" fill="#A57656"/>
<path d="M84.2422 218.181L113.339 234.717L159.053 208.661L122.7 196.277L84.2422 218.181Z" fill="#DCD68B"/>
<path d="M319.998 193.772L319.926 198.067L181.043 277.738L181.116 273.372L319.998 193.772Z" fill="#ADA75A"/>
<path d="M181.112 273.371L181.04 277.738L1.8125 175.662V171.295L181.112 273.371Z" fill="#CEC874"/>
<path d="M320 216.034C314.776 219.47 308.536 219.542 303.384 224.409C302.465 224.886 301.546 225.364 300.626 225.841C292.137 230.351 283.647 235.147 275.52 240.73C274.795 241.255 274.069 241.78 273.343 242.305C272.956 242.639 272.497 242.949 271.965 243.235C271.432 243.569 270.876 243.903 270.296 244.237H270.223C267.829 245.812 264.636 245.812 262.314 249.033C261.492 249.558 260.669 250.083 259.847 250.608C256.751 252.469 253.655 254.331 250.559 256.192C249.785 256.621 249.011 257.051 248.237 257.48C247.463 257.576 246.713 257.719 245.988 257.91C247.366 256.979 248.745 255.905 250.196 254.688C250.922 254.259 251.647 253.806 252.373 253.328C253.147 252.851 253.897 252.35 254.622 251.825C255.445 251.3 256.267 250.775 257.089 250.25V250.179L257.162 250.107C259.557 247.673 262.314 246.027 265.071 244.524C267.829 243.021 270.586 241.589 273.053 239.585C273.924 239.155 274.795 238.702 275.665 238.225C283.72 234.001 291.556 229.85 299.248 225.626C300.215 225.101 301.183 224.576 302.15 224.051L302.223 223.98L302.295 223.908C304.835 221.403 307.665 220.186 310.567 218.969C313.397 217.752 316.445 216.607 319.275 214.316C319.517 214.173 319.759 214.03 320 213.887V212.097C319.468 212.431 318.936 212.741 318.404 213.028L318.331 213.099C315.719 215.247 312.889 216.321 309.914 217.537C307.012 218.754 304.037 220.043 301.279 222.763C300.36 223.24 299.441 223.741 298.522 224.266C290.758 228.489 282.921 232.641 274.94 236.865C274.021 237.342 273.126 237.819 272.255 238.296H272.182L272.11 238.368C269.788 240.229 267.103 241.589 264.273 243.164C261.516 244.667 258.686 246.385 256.074 248.962C255.3 249.487 254.526 250.012 253.752 250.537C253.026 251.014 252.3 251.515 251.575 252.04C250.801 252.517 250.051 252.97 249.325 253.4L249.253 253.472C242.287 259.27 236.119 262.348 228.137 265.283C227.218 265.617 226.323 265.951 225.453 266.285C224.582 266.619 223.735 266.953 222.913 267.287L222.84 267.358C221.873 267.836 220.905 268.313 219.938 268.79C211.158 273.3 202.233 277.666 193.38 282.104C192.606 282.486 191.808 282.892 190.986 283.321C187.213 284.753 184.02 286.757 181.045 288.905V290.837C181.19 290.742 181.311 290.646 181.408 290.551C184.528 288.332 187.793 286.185 191.639 284.753V284.681H191.711C192.534 284.3 193.332 283.894 194.106 283.464C202.959 279.026 211.884 274.731 220.664 270.222C221.631 269.697 222.574 269.196 223.493 268.719C224.364 268.384 225.211 268.05 226.033 267.716C226.904 267.382 227.775 267.048 228.645 266.714C232.056 265.497 235.176 264.137 238.151 262.706C236.047 264.352 233.87 265.998 231.112 267.072C230.193 267.454 229.226 267.788 228.21 268.074C227.629 268.408 227.049 268.719 226.468 269.005C225.888 269.291 225.307 269.601 224.727 269.935C215.657 274.66 206.587 279.527 197.807 284.681C196.984 285.159 196.186 285.636 195.412 286.113C190.043 288.761 185.689 291.983 181.045 295.204V295.705C185.761 292.412 190.188 289.119 195.557 286.471C196.38 285.994 197.202 285.516 198.024 285.039C206.804 279.814 215.802 275.018 224.872 270.222C225.453 269.935 226.033 269.649 226.614 269.363C227.194 269.029 227.775 268.719 228.355 268.432C229.371 268.146 230.338 267.812 231.258 267.43C234.74 266.07 237.208 263.851 239.747 261.918C239.844 261.823 239.917 261.751 239.965 261.703C241.61 260.797 243.254 259.795 244.899 258.697C245.915 258.339 247.076 257.981 248.31 257.91H248.382V257.838C249.156 257.409 249.93 256.955 250.704 256.478C253.848 254.665 256.944 252.803 259.992 250.895C260.863 250.37 261.709 249.845 262.532 249.32H262.604C264.781 246.17 267.829 246.17 270.441 244.524C271.07 244.237 271.65 243.927 272.182 243.593C272.666 243.259 273.126 242.925 273.561 242.591C274.287 242.066 275.036 241.565 275.81 241.088C283.865 235.504 292.282 230.708 300.844 226.199C301.763 225.722 302.682 225.244 303.601 224.767H303.674V224.696C308.608 219.971 314.631 219.9 320 216.535V216.034Z" fill="#755037"/>
<path d="M189.317 282.677C190.043 282.104 190.768 281.556 191.494 281.031C199.476 275.018 208.328 270.437 217.398 266.142C218.414 265.664 219.406 265.187 220.373 264.71C221.389 264.424 222.357 264.114 223.276 263.779C231.838 261.632 239.675 256.979 247.221 252.112C248.043 251.634 248.89 251.157 249.761 250.68C250.583 250.203 251.43 249.726 252.3 249.248C253.074 248.771 253.848 248.318 254.622 247.888V247.817C261.661 243.092 267.901 241.517 273.851 236.364C274.674 235.886 275.496 235.385 276.318 234.86C277.141 234.383 277.939 233.882 278.713 233.357C284.445 229.778 290.178 226.271 295.982 222.763C296.902 222.19 297.821 221.642 298.74 221.117C306.576 217.036 313.905 214.102 320 209.234V208.733C313.905 213.672 306.504 216.679 298.595 220.759H298.522C297.603 221.284 296.684 221.832 295.765 222.405C289.96 225.913 284.228 229.492 278.568 232.999C277.745 233.524 276.923 234.049 276.101 234.574C275.278 235.051 274.456 235.552 273.634 236.077H273.561C267.756 241.16 261.516 242.734 254.405 247.53C253.631 248.008 252.857 248.461 252.083 248.89C251.26 249.368 250.414 249.845 249.543 250.322C248.672 250.799 247.826 251.3 247.003 251.825C239.457 256.693 231.693 261.274 223.203 263.422H223.131C222.212 263.756 221.268 264.066 220.301 264.352H220.228C219.212 264.829 218.221 265.307 217.253 265.784C208.11 270.079 199.258 274.66 191.204 280.673C190.478 281.245 189.752 281.818 189.027 282.391C186.777 284.323 184.02 286.041 181.045 287.688V288.117C184.093 286.471 186.922 284.753 189.317 282.677Z" fill="#755037"/>
<path d="M181.119 281.603C182.353 281.102 183.586 280.601 185.037 280.172H185.11L185.255 280.1C186.029 279.671 186.827 279.217 187.65 278.74C196.575 273.873 205.718 269.291 214.715 264.567C215.683 264.09 216.626 263.612 217.545 263.135C218.367 262.801 219.19 262.443 220.012 262.062C220.835 261.68 221.633 261.322 222.407 260.988C232.13 257.48 238.515 252.827 245.772 247.53C246.594 247.005 247.416 246.504 248.239 246.027C255.712 242.019 263.549 237.366 272.039 231.496C272.764 231.067 273.514 230.613 274.288 230.136C279.561 226.891 284.81 223.646 290.034 220.401C290.953 219.876 291.897 219.327 292.864 218.754C296.927 216.464 301.789 214.531 306.36 212.312C310.932 210.021 315.213 207.445 318.333 203.794C318.914 203.46 319.47 203.15 320.002 202.863V201.074C319.131 201.551 318.285 202.028 317.462 202.505L317.317 202.577L317.245 202.648C314.342 206.156 310.206 208.661 305.635 210.88C301.136 213.171 296.274 215.032 292.066 217.394C291.098 217.967 290.155 218.54 289.236 219.112C283.963 222.31 278.69 225.555 273.418 228.848H273.49C272.716 229.277 271.942 229.73 271.168 230.208C262.678 236.077 254.914 240.659 247.513 244.667H247.44C246.618 245.192 245.796 245.693 244.973 246.17L244.901 246.242C237.572 251.611 231.404 256.12 221.826 259.485V259.556H221.754C220.98 259.938 220.181 260.296 219.359 260.63C218.537 261.012 217.739 261.37 216.965 261.704H216.892C215.925 262.229 214.957 262.73 213.99 263.207C204.992 267.931 195.849 272.512 186.924 277.452C186.102 277.881 185.304 278.311 184.53 278.74C183.296 279.098 182.208 279.456 181.119 279.885V281.603Z" fill="#755037"/>
<path d="M181.042 296.206C180.8 296.063 180.582 295.92 180.389 295.777C179.711 295.347 179.058 294.918 178.429 294.488C169.649 290.766 163.409 284.61 154.557 281.46C153.976 281.031 153.396 280.601 152.815 280.172C151.654 279.217 150.542 278.239 149.477 277.237V277.165C148.655 276.593 147.833 276.044 147.01 275.519C142.149 272.155 137.722 268.79 132.135 265.999C131.313 265.521 130.515 265.044 129.741 264.567C120.888 259.413 111.89 254.545 102.82 249.821C102.24 249.487 101.659 249.177 101.079 248.89C100.498 248.604 99.9177 248.294 99.3373 247.96H99.2647C98.2972 247.674 97.3539 247.363 96.4348 247.029C93.6049 245.884 91.5006 244.238 89.3963 242.591C92.3713 244.094 95.4189 245.383 98.8293 246.6C99.7001 246.934 100.571 247.268 101.442 247.602C102.312 247.936 103.183 248.27 104.054 248.604C104.973 249.129 105.916 249.63 106.884 250.107C115.664 254.617 124.589 258.912 133.369 263.35C134.191 263.78 135.013 264.185 135.836 264.567V264.638H135.908C139.754 266.07 143.019 268.218 146.067 270.437C146.841 271.009 147.591 271.558 148.316 272.083C149.429 273.515 150.638 274.803 151.944 275.948C152.622 276.569 153.323 277.141 154.049 277.666L154.121 277.738C162.974 282.319 173.858 285.469 180.969 292.77L181.042 292.842V290.694C173.64 283.751 163.191 280.744 154.919 276.378C154.242 275.901 153.589 275.376 152.96 274.803C151.703 273.706 150.542 272.465 149.477 271.081L149.405 271.009L149.332 270.938C148.558 270.365 147.784 269.792 147.01 269.22C143.89 266.929 140.552 264.782 136.561 263.207C135.739 262.825 134.917 262.419 134.094 261.99C125.242 257.552 116.389 253.185 107.609 248.676C106.642 248.199 105.674 247.721 104.707 247.244L104.634 247.172C103.764 246.838 102.893 246.504 102.022 246.17C101.151 245.836 100.281 245.502 99.4098 245.168C91.3555 242.233 85.2603 239.155 78.2944 233.357H78.2218C77.4478 232.88 76.698 232.403 75.9724 231.926C75.2468 231.448 74.497 230.947 73.723 230.422C72.949 229.945 72.175 229.42 71.401 228.848C68.8614 226.271 66.0315 224.553 63.2016 223.049C60.4442 221.475 57.6869 220.186 55.4375 218.253L55.3649 218.182H55.2924C54.3732 217.705 53.4783 217.227 52.6076 216.75C44.5532 212.527 36.7166 208.375 29.0251 204.152C28.1059 203.627 27.1626 203.126 26.1952 202.648C23.5104 199.928 20.4628 198.64 17.5603 197.423C14.6579 196.206 11.828 195.132 9.21574 192.985L9.14318 192.913H9.07061C8.1515 192.341 7.2082 191.792 6.24072 191.267C4.78948 190.336 3.26569 189.477 1.81445 188.547V190.408C3.048 191.124 4.20899 191.84 5.44253 192.555C6.36165 193.128 7.30495 193.677 8.27244 194.202C11.1023 196.492 14.0774 197.638 16.9798 198.855C19.8823 200.072 22.6396 201.288 25.1793 203.794L25.2519 203.865L25.397 203.937C26.3645 204.462 27.3078 204.987 28.2269 205.512C35.991 209.735 43.8276 213.887 51.882 218.11V218.182C52.7527 218.611 53.6234 219.041 54.4942 219.47C56.9613 221.546 59.7186 222.906 62.476 224.409C65.2333 225.913 67.9906 227.559 70.3126 229.993L70.3852 230.064L70.4577 230.136C71.2801 230.661 72.0783 231.186 72.8523 231.711C73.6263 232.236 74.3761 232.737 75.1017 233.214C75.8273 233.691 76.5771 234.145 77.3511 234.574C78.7298 235.791 80.181 236.865 81.5597 237.867C80.834 237.628 80.0842 237.461 79.3102 237.366C78.5363 236.936 77.7623 236.507 76.9883 236.077C73.8923 234.216 70.7964 232.355 67.7004 230.494C66.878 229.969 66.0557 229.444 65.2333 228.919C62.9113 225.698 59.7186 225.698 57.2515 224.123C56.671 223.789 56.1147 223.455 55.5826 223.121C55.0505 222.835 54.5909 222.524 54.2039 222.19C53.4299 221.665 52.6801 221.141 51.9545 220.616C43.8276 215.032 35.4105 210.236 26.8482 205.727C25.9291 205.249 25.01 204.772 24.0909 204.295C18.939 199.356 12.6261 199.356 7.4017 195.848C6.43421 195.371 5.49091 194.894 4.5718 194.417C3.65268 193.939 2.73357 193.462 1.81445 192.985V193.414C2.68519 193.892 3.55594 194.345 4.42668 194.774C5.34579 195.252 6.2649 195.729 7.18401 196.206C12.5536 199.785 18.7939 199.785 23.8732 204.581V204.653C24.8407 205.13 25.784 205.607 26.7031 206.084C35.1928 210.594 43.6099 215.39 51.7368 220.973C52.4625 221.498 53.1881 221.999 53.9137 222.477C54.3491 222.811 54.8328 223.145 55.3649 223.479C55.897 223.813 56.4775 224.123 57.1064 224.409C59.646 226.056 62.6936 226.056 64.943 229.205H65.0156C65.838 229.73 66.6603 230.255 67.4827 230.78C70.5787 232.689 73.6746 234.55 76.7706 236.364C77.5446 236.841 78.3186 237.294 79.0926 237.724L79.1651 237.795C80.4712 237.867 81.5597 238.225 82.6481 238.583C84.2928 239.728 85.9375 240.73 87.5823 241.589C87.6306 241.685 87.7032 241.756 87.8 241.804C90.2671 243.737 92.8067 245.956 96.2897 247.387C97.2088 247.721 98.1763 248.031 99.1921 248.318C99.7726 248.604 100.353 248.914 100.934 249.248C101.466 249.535 102.022 249.821 102.603 250.107C111.673 254.903 120.743 259.699 129.523 264.925C130.345 265.402 131.143 265.879 131.917 266.356C137.505 269.077 141.931 272.441 146.793 275.805C147.615 276.378 148.437 276.951 149.26 277.523C150.324 278.525 151.436 279.504 152.597 280.458C153.178 280.935 153.758 281.389 154.339 281.818H154.412C163.119 284.896 169.432 291.052 178.212 294.846C178.841 295.276 179.494 295.681 180.171 296.063C180.461 296.254 180.751 296.445 181.042 296.636V296.206Z" fill="#996D4F"/>
<path d="M1.81445 180.1C2.58844 180.339 3.36244 180.577 4.13643 180.816C4.91042 181.245 5.66022 181.675 6.38584 182.104C7.30495 182.629 8.22407 183.154 9.14318 183.679C12.3359 187.33 16.617 189.978 21.1884 192.197C25.7598 194.488 30.5489 196.349 34.6849 198.64C35.604 199.212 36.5231 199.785 37.4422 200.358C42.715 203.555 47.9878 206.776 53.2606 210.021C53.9863 210.499 54.736 210.952 55.51 211.381C63.9997 217.251 71.8364 221.904 79.3102 225.912C80.1326 226.39 80.9308 226.891 81.7048 227.416C89.0335 232.713 95.4189 237.437 105.07 240.873C105.892 241.207 106.714 241.565 107.537 241.947C108.311 242.329 109.109 242.687 109.931 243.021C110.899 243.498 111.842 243.975 112.761 244.452C121.831 249.177 130.902 253.758 139.827 258.697C140.649 259.127 141.471 259.556 142.294 259.985L142.366 260.057H142.511C146.357 261.131 149.477 262.777 152.452 264.71C153.178 265.187 153.904 265.688 154.629 266.213C155.693 267.072 156.782 267.955 157.894 268.862C158.427 269.291 158.983 269.744 159.563 270.222C162.829 273.228 166.82 275.089 170.81 277.022C174.366 278.74 177.921 280.529 181.042 283.178L181.114 281.174C178.067 278.812 174.729 277.165 171.536 275.59C167.473 273.658 163.627 271.868 160.579 269.005H160.507C159.975 268.528 159.442 268.074 158.91 267.645C157.798 266.738 156.685 265.855 155.572 264.996V264.925C154.799 264.4 154.049 263.899 153.323 263.421C150.275 261.489 147.083 259.771 143.019 258.625C142.197 258.196 141.399 257.766 140.625 257.337C131.627 252.398 122.557 247.817 113.487 243.092C112.568 242.615 111.624 242.114 110.657 241.589H110.584C109.762 241.255 108.964 240.897 108.19 240.515C107.367 240.181 106.545 239.823 105.723 239.441L105.65 239.37C96.1445 236.006 89.9768 231.496 82.6481 226.127H82.5755C81.7532 225.602 80.9308 225.077 80.1084 224.552H80.0359C72.6346 220.544 64.7979 215.963 56.3808 210.093H56.3082C55.5826 209.616 54.8328 209.162 54.0588 208.733C48.786 205.44 43.5374 202.195 38.3129 198.998C37.3455 198.425 36.4022 197.852 35.483 197.28C31.2019 194.989 26.4128 193.056 21.8415 190.837C17.3426 188.547 13.2066 186.041 10.2316 182.534L10.159 182.462L10.0865 182.391C9.11899 181.818 8.1515 181.269 7.18401 180.744C6.41002 180.315 5.61185 179.885 4.78948 179.456L4.71692 179.384H4.64436C3.67687 179.098 2.73357 178.788 1.81445 178.454V180.1Z" fill="#996D4F"/>
<path d="M6.24072 188.046C12.5536 193.557 20.3902 196.635 28.8074 201.002C29.7265 201.527 30.6456 202.076 31.5647 202.648C37.3696 206.156 43.102 209.735 48.7618 213.242C49.5842 213.767 50.4065 214.268 51.2289 214.746C52.0513 215.271 52.8736 215.772 53.696 216.249C59.5735 221.403 65.8864 222.978 72.8523 227.774H72.9248C73.6988 228.203 74.4728 228.656 75.2468 229.134C76.0692 229.611 76.9157 230.088 77.7865 230.565C78.6572 231.042 79.5037 231.52 80.3261 231.997C87.7999 236.864 95.7092 241.517 104.271 243.665C105.191 243.999 106.134 244.309 107.101 244.595C108.117 245.073 109.109 245.55 110.076 246.027C119.219 250.322 128.072 254.903 136.053 260.916C136.779 261.441 137.505 261.99 138.23 262.562C141.278 265.211 145.196 267.287 149.115 269.506C149.889 269.935 150.687 270.365 151.509 270.794C152.67 271.844 153.855 272.894 155.065 273.944C155.645 274.469 156.25 274.97 156.879 275.447H156.951C166.166 280.172 173.858 283.25 181.042 289.62V289.119C173.931 282.892 166.239 279.742 157.096 275.089C156.467 274.612 155.863 274.135 155.282 273.658C154.073 272.608 152.888 271.558 151.727 270.508C150.904 270.031 150.106 269.577 149.332 269.148C145.341 267.001 141.496 264.853 138.521 262.276H138.448C137.722 261.703 136.997 261.131 136.271 260.558C128.289 254.545 119.364 249.964 110.294 245.669C109.278 245.192 108.262 244.715 107.246 244.237C106.279 243.951 105.311 243.641 104.344 243.307C95.8543 241.159 88.0176 236.578 80.5438 231.711C79.6731 231.186 78.8265 230.685 78.0041 230.207C77.1334 229.778 76.2868 229.301 75.4645 228.776C74.6905 228.346 73.8923 227.893 73.0699 227.416C66.0315 222.62 59.7912 221.045 53.9137 215.963C53.0913 215.438 52.269 214.937 51.4466 214.459C50.6242 213.934 49.8019 213.41 48.9795 212.885C43.3197 209.377 37.5148 205.798 31.7824 202.29C30.8149 201.765 29.8716 201.217 28.9525 200.644C20.5353 196.278 12.6987 193.2 6.4584 187.688C5.49091 187.163 4.52342 186.638 3.55593 186.113C2.97544 185.827 2.39495 185.54 1.81445 185.254V185.683C2.34657 185.922 2.85451 186.184 3.33825 186.471C4.30574 186.996 5.27323 187.521 6.24072 188.046Z" fill="#996D4F"/>
<path d="M74.0859 117.895L145.196 54.5454L253.241 116.106L182.203 179.456L74.0859 117.895Z" fill="#EA7B5E"/>
<path d="M49.6325 157.409C49.6325 167.43 44.7709 175.519 38.8934 175.519C32.9434 175.519 28.1543 167.43 28.1543 157.409C28.1543 147.387 32.9434 139.298 38.8934 139.298C44.7709 139.298 49.6325 147.387 49.6325 157.409Z" fill="#7BA86D"/>
<g style="mix-blend-mode:multiply">
<path d="M41.8694 140.157C43.8285 143.378 45.0621 147.888 45.0621 152.899C45.0621 162.92 40.2005 171.009 34.323 171.009C33.2346 171.009 32.2913 170.723 31.2754 170.222C33.2346 173.514 35.9193 175.519 38.8944 175.519C44.7718 175.519 49.6335 167.43 49.6335 157.409C49.6335 149.177 46.3682 142.305 41.8694 140.157Z" fill="#E6E7E8"/>
</g>
<path d="M151 238.941L42.8828 177.38V124.768L151 186.328V238.941Z" fill="#F9F8F7"/>
<path d="M222.04 198.497L151.002 238.94V186.328L222.04 145.884V198.497Z" fill="#E9E5D9"/>
<path d="M38.3145 118.826V123.264L151.946 187.974V183.536L38.3145 118.826Z" fill="#3A4D57"/>
<path d="M226.611 141.016L151.945 183.536V187.974L226.611 145.454V141.016Z" fill="#2D3D44"/>
<path d="M112.98 76.3062L226.612 141.016L151.946 183.536L38.3145 118.826L112.98 76.3062Z" fill="#2D3D44"/>
<path d="M253.241 168.719L222.039 185.612V132.999L253.241 116.106V168.719Z" fill="#D8D0BC"/>
<path d="M222.039 131.711L255.272 113.744V116.177L222.039 134.216V131.711Z" fill="#EA7B5E"/>
<path d="M222.038 94.8462L255.271 113.744L222.038 131.711L188.805 112.813L222.038 94.8462Z" fill="#FA8B65"/>
<path d="M151.002 182.104L42.8848 120.544V67.9312L151.002 129.492V182.104Z" fill="#F9F8F7"/>
<path d="M222.038 141.661L151 182.104V129.492L222.038 66.1416V141.661Z" fill="#E9E5D9"/>
<path d="M40.416 67.9316L113.413 2.79199L224.505 66.0704L151.508 131.21L40.416 67.9316Z" fill="#EA7B5E"/>
<path d="M40.416 65.1396L113.413 0L224.505 63.2785L151.508 128.346L40.416 65.1396Z" fill="#FA8B65"/>
<path d="M162.321 27.845L161.015 27.0576L87.9453 92.1972L89.2514 92.913L162.321 27.845Z" fill="#EA7B5E"/>
<path d="M148.172 19.7563L146.866 19.0405L73.8691 84.1801L75.1753 84.8959L148.172 19.7563Z" fill="#EA7B5E"/>
<path d="M141.133 15.748L139.827 15.0322L66.8301 80.1718L68.1362 80.8876L141.133 15.748Z" fill="#EA7B5E"/>
<path d="M155.284 23.7646L153.905 23.0488L80.9082 88.1884L82.2143 88.9042L155.284 23.7646Z" fill="#EA7B5E"/>
<path d="M127.057 7.73074L125.751 6.94336L52.6816 72.0829L53.9878 72.8703L127.057 7.73074Z" fill="#EA7B5E"/>
<path d="M45.6426 68.0741L46.9487 68.8616L120.018 3.72198L118.64 2.93457L45.6426 68.0741Z" fill="#EA7B5E"/>
<path d="M134.094 11.7393L132.788 11.0234L59.7188 76.0914L61.0974 76.8789L134.094 11.7393Z" fill="#EA7B5E"/>
<path d="M183.438 39.8709L182.132 39.0835L109.135 104.223L110.441 105.011L183.438 39.8709Z" fill="#EA7B5E"/>
<path d="M204.623 51.8965L203.317 51.1807L130.32 116.32L131.626 117.036L204.623 51.8965Z" fill="#EA7B5E"/>
<path d="M211.664 55.9053L210.358 55.1895L137.361 120.329L138.667 121.045L211.664 55.9053Z" fill="#EA7B5E"/>
<path d="M169.36 31.8538L168.054 31.0664L94.9844 96.206L96.363 96.9934L169.36 31.8538Z" fill="#EA7B5E"/>
<path d="M218.774 59.9856L217.395 59.1982L144.398 124.338L145.705 125.054L218.774 59.9856Z" fill="#EA7B5E"/>
<path d="M176.399 35.8626L175.093 35.0752L102.096 100.215L103.402 101.002L176.399 35.8626Z" fill="#EA7B5E"/>
<path d="M190.548 43.8794L189.241 43.1636L116.172 108.232L117.478 109.019L190.548 43.8794Z" fill="#EA7B5E"/>
<path d="M197.587 47.8882L196.28 47.1724L123.211 112.312L124.59 113.028L197.587 47.8882Z" fill="#EA7B5E"/>
<path d="M77.7109 105.583L85.7653 110.165L85.6927 126.629V123.908L77.7109 119.327V105.583Z" fill="#2D3D44"/>
<path d="M77.7109 119.327L85.6927 123.908V126.629L75.3164 120.687L77.7109 119.327Z" fill="#70767D"/>
<path d="M75.389 104.224L77.7109 105.584V119.327L75.3164 120.687L75.389 104.224Z" fill="#2E343D"/>
<path d="M62.8359 97.1367L70.8903 101.718L70.8177 118.11V115.462L62.8359 110.88V97.1367Z" fill="#2D3D44"/>
<path d="M62.8359 110.881L70.8177 115.462V118.111L60.4414 112.241L62.8359 110.881Z" fill="#70767D"/>
<path d="M60.514 95.7769L62.8359 97.1369V110.881L60.4414 112.241L60.514 95.7769Z" fill="#2E343D"/>
<path d="M77.7109 163.421L85.7653 167.931L85.6927 184.395V181.746L77.7109 177.165V163.421Z" fill="#2D3D44"/>
<path d="M77.7109 177.165L85.6927 181.746V184.395L75.3164 178.454L77.7109 177.165Z" fill="#70767D"/>
<path d="M75.389 162.062L77.7109 163.422V177.165L75.3164 178.454L75.389 162.062Z" fill="#2E343D"/>
<path d="M62.8359 154.903L70.8903 159.485L70.8177 175.948V173.228L62.8359 168.647V154.903Z" fill="#2D3D44"/>
<path d="M62.8359 168.647L70.8177 173.228V175.948L60.4414 170.007L62.8359 168.647Z" fill="#70767D"/>
<path d="M60.514 153.615L62.8359 154.903V168.647L60.4414 170.007L60.514 153.615Z" fill="#2E343D"/>
<path d="M120.598 129.993L128.652 134.502L128.579 150.966V148.318L120.598 143.736V129.993Z" fill="#2D3D44"/>
<path d="M120.598 143.736L128.579 148.318V150.966L118.203 145.096L120.598 143.736Z" fill="#70767D"/>
<path d="M118.276 128.633L120.598 129.993V143.737L118.203 145.097L118.276 128.633Z" fill="#2E343D"/>
<path d="M105.723 121.475L113.777 126.056L113.704 142.52V139.8L105.723 135.29V121.475Z" fill="#2D3D44"/>
<path d="M105.723 135.29L113.704 139.8V142.52L103.328 136.579L105.723 135.29Z" fill="#70767D"/>
<path d="M103.401 120.186L105.723 121.475V135.29L103.328 136.578L103.401 120.186Z" fill="#2E343D"/>
<path d="M181.404 129.993L173.35 134.502L173.422 150.966V148.318L181.404 143.736V129.993Z" fill="#2D3D44"/>
<path d="M181.406 143.736L173.424 148.318V150.966L183.8 145.096L181.406 143.736Z" fill="#70767D"/>
<path d="M183.726 128.633L181.404 129.993V143.737L183.799 145.097L183.726 128.633Z" fill="#2E343D"/>
<path d="M196.206 121.475L188.225 126.056V142.52V139.8L196.279 135.29L196.206 121.475Z" fill="#2D3D44"/>
<path d="M196.279 135.29L188.225 139.8V142.52L198.601 136.579L196.279 135.29Z" fill="#70767D"/>
<path d="M198.602 120.186L196.207 121.475L196.28 135.29L198.602 136.578V120.186Z" fill="#2E343D"/>
<path d="M181.404 188.046L173.35 192.627L173.422 209.091V206.371L181.404 201.861V188.046Z" fill="#2D3D44"/>
<path d="M181.406 201.861L173.424 206.371V209.091L183.8 203.15L181.406 201.861Z" fill="#70767D"/>
<path d="M183.726 186.757L181.404 188.046V201.861L183.799 203.15L183.726 186.757Z" fill="#2E343D"/>
<path d="M196.206 179.599L188.225 184.18V200.573V197.924L196.279 193.343L196.206 179.599Z" fill="#2D3D44"/>
<path d="M196.279 193.343L188.225 197.925V200.573L198.601 194.703L196.279 193.343Z" fill="#70767D"/>
<path d="M198.602 178.239L196.207 179.599L196.28 193.343L198.602 194.703V178.239Z" fill="#2E343D"/>
<path d="M245.332 173.014L230.021 181.317V158.053L245.332 149.32V173.014Z" fill="#2D3D44"/>
<path d="M178.721 224.553C178.721 231.353 175.456 236.793 171.465 236.793C167.474 236.793 164.281 231.353 164.281 224.553C164.281 217.824 167.474 212.384 171.465 212.384C175.456 212.384 178.721 217.824 178.721 224.553Z" fill="#7BA86D"/>
<g style="mix-blend-mode:multiply">
<path d="M173.498 212.885C174.804 215.104 175.675 218.182 175.675 221.546C175.675 228.275 172.409 233.715 168.418 233.715C167.693 233.715 167.04 233.5 166.387 233.214C167.693 235.433 169.507 236.793 171.466 236.793C175.457 236.793 178.722 231.353 178.722 224.553C178.722 219.041 176.545 214.388 173.498 212.885Z" fill="#E6E7E8"/>
</g>
<path d="M193.305 215.247C193.305 219.471 191.273 222.906 188.806 222.906C186.266 222.906 184.234 219.471 184.234 215.247C184.234 211.024 186.266 207.588 188.806 207.588C191.273 207.588 193.305 211.024 193.305 215.247Z" fill="#7BA86D"/>
<g style="mix-blend-mode:multiply">
<path d="M190.04 207.946C190.838 209.306 191.346 211.239 191.346 213.314C191.346 217.538 189.387 220.974 186.847 220.974C186.412 220.974 185.976 220.831 185.541 220.616C186.412 222.047 187.5 222.906 188.806 222.906C191.273 222.906 193.305 219.471 193.305 215.247C193.305 211.74 191.926 208.876 190.04 207.946Z" fill="#E6E7E8"/>
</g>
<path d="M212.679 212.885C212.679 217.18 210.648 220.544 208.18 220.544C205.641 220.544 203.682 217.18 203.682 212.885C203.682 208.661 205.641 205.297 208.18 205.297C210.648 205.297 212.679 208.661 212.679 212.885Z" fill="#7BA86D"/>
<g style="mix-blend-mode:multiply">
<path d="M209.487 205.583C210.285 207.015 210.793 208.876 210.793 211.023C210.793 215.247 208.761 218.682 206.222 218.682C205.786 218.682 205.351 218.539 204.988 218.325C205.786 219.685 206.947 220.544 208.181 220.544C210.648 220.544 212.68 217.179 212.68 212.884C212.68 209.448 211.301 206.514 209.487 205.583Z" fill="#E6E7E8"/>
</g>
<path d="M55.2923 182.105C55.2923 187.402 52.7526 191.697 49.6325 191.697C46.5123 191.697 43.9727 187.402 43.9727 182.105C43.9727 176.808 46.5123 172.513 49.6325 172.513C52.7526 172.513 55.2923 176.808 55.2923 182.105Z" fill="#7BA86D"/>
<g style="mix-blend-mode:multiply">
<path d="M51.2282 172.942C52.244 174.732 52.8245 177.094 52.8245 179.743C52.8245 185.04 50.2849 189.263 47.1647 189.263C46.6568 189.263 46.0763 189.12 45.5684 188.834C46.5842 190.623 48.0355 191.697 49.6318 191.697C52.752 191.697 55.2916 187.402 55.2916 182.105C55.2916 177.738 53.5501 174.159 51.2282 172.942Z" fill="#E6E7E8"/>
</g>
<path d="M132.936 228.704L93.0996 205.941V172.298L132.936 194.989V228.704Z" fill="#2D3D44"/>
<path d="M96.9434 203.579L132.934 224.052V194.989L96.9434 174.445V203.579Z" fill="#2E343D"/>
<path d="M144.473 242.663L69.2266 199.785L75.7571 196.063L151.003 238.941L144.473 242.663Z" fill="#D8D0BC"/>
<path d="M166.747 199.785V202.291L160.869 205.655V203.078L166.747 199.785Z" fill="#F9F8F7"/>
<path d="M166.747 183.751V186.328L160.869 189.621V187.115L166.747 183.751Z" fill="#F9F8F7"/>
<path d="M207.889 170.007V172.584L202.084 175.877V173.372L207.889 170.007Z" fill="#F9F8F7"/>
<path d="M211.082 163.994V166.5L205.277 169.864V167.287L211.082 163.994Z" fill="#F9F8F7"/>
<path d="M220.081 152.613V155.19L214.203 158.554V155.977L220.081 152.613Z" fill="#F9F8F7"/>
<path d="M211.735 183.178V185.684L205.93 189.048V186.471L211.735 183.178Z" fill="#F9F8F7"/>
<path d="M219.137 190.837V193.343L213.26 196.707V194.13L219.137 190.837Z" fill="#F9F8F7"/>
<path d="M162.176 221.546V224.123L156.371 227.416V224.911L162.176 221.546Z" fill="#F9F8F7"/>
<path d="M205.93 198.926V201.432L200.053 204.796V202.219L205.93 198.926Z" fill="#F9F8F7"/>
<path d="M162.176 198.067V200.644L156.371 203.937V201.432L162.176 198.067Z" fill="#F9F8F7"/>
<path d="M211.805 100.788V103.365L206 106.657L205.928 104.152L211.805 100.788Z" fill="#F9F8F7"/>
<path d="M211.805 84.7534V87.3304L206 90.6231L205.928 88.1177L211.805 84.7534Z" fill="#F9F8F7"/>
<path d="M207.235 99.0698V101.647L201.43 104.94V102.434L207.235 99.0698Z" fill="#F9F8F7"/>
<path d="M170.952 129.42V131.926L165.074 135.29V132.713L170.952 129.42Z" fill="#F9F8F7"/>
<path d="M159.342 141.446V144.023L153.465 147.316V144.811L159.342 141.446Z" fill="#F9F8F7"/>
<path d="M172.621 153.4V155.977L166.816 159.27V156.765L172.621 153.4Z" fill="#F9F8F7"/>
<path d="M188.438 153.4V155.977L182.561 159.27V156.765L188.438 153.4Z" fill="#F9F8F7"/>
<path d="M174.436 114.675V117.18L168.631 120.545V117.968L174.436 114.675Z" fill="#F9F8F7"/>
<path d="M191.34 114.03V116.607L185.535 119.972L185.463 117.395L191.34 114.03Z" fill="#F9F8F7"/>
<path d="M218.336 113.171V115.677L212.459 119.041V116.464L218.336 113.171Z" fill="#F9F8F7"/>
<path d="M167.397 161.06V163.565L161.52 166.929V164.352L167.397 161.06Z" fill="#F9F8F7"/>
<path d="M166.381 127.703V130.208L160.504 133.572V130.995L166.381 127.703Z" fill="#F9F8F7"/>
<path d="M212.456 136.937V139.514L206.651 142.806L206.578 140.301L212.456 136.937Z" fill="#F9F8F7"/>
<path d="M207.885 135.29V137.795L202.08 141.16V138.583L207.885 135.29Z" fill="#F9F8F7"/>
<path d="M89.9062 115.247V117.824L95.7837 121.188V118.611L89.9062 115.247Z" fill="#E9E5D9"/>
<path d="M89.9062 99.2842V101.79L95.7837 105.154V102.577L89.9062 99.2842Z" fill="#E9E5D9"/>
<path d="M94.4785 113.601V116.106L100.356 119.47V116.893L94.4785 113.601Z" fill="#E9E5D9"/>
<path d="M132.137 138.941V141.518L138.014 144.811V142.305L132.137 138.941Z" fill="#E9E5D9"/>
<path d="M140.918 150.895L140.846 153.472L146.723 156.765V154.259L140.918 150.895Z" fill="#E9E5D9"/>
<path d="M127.564 162.85V165.427L133.369 168.719V166.214L127.564 162.85Z" fill="#E9E5D9"/>
<path d="M125.75 124.052V126.629L131.627 129.921V127.416L125.75 124.052Z" fill="#E9E5D9"/>
<path d="M78.0039 128.275V130.852L83.8088 134.145V131.64L78.0039 128.275Z" fill="#E9E5D9"/>
<path d="M45.5703 85.9702V88.5472L51.4478 91.8399V89.3346L45.5703 85.9702Z" fill="#E9E5D9"/>
<path d="M49.418 80.1006V82.606L55.2229 85.9703L55.2955 83.3933L49.418 80.1006Z" fill="#E9E5D9"/>
<path d="M133.805 160.416V162.993L139.682 166.357V163.78L133.805 160.416Z" fill="#E9E5D9"/>
<path d="M136.707 137.223V139.8L142.512 143.092L142.585 140.587L136.707 137.223Z" fill="#E9E5D9"/>
<path d="M93.0254 143.451V145.956L98.9029 149.32V146.743L93.0254 143.451Z" fill="#E9E5D9"/>
<path d="M101.586 140.802V143.307L107.463 146.671V144.095L101.586 140.802Z" fill="#E9E5D9"/>
<path d="M48.5469 109.306V111.812L54.3518 115.176V112.599L48.5469 109.306Z" fill="#E9E5D9"/>
<path d="M224.507 63.2783V66.07L151.51 131.21V128.346L224.507 63.2783Z" fill="#EA7B5E"/>
<path d="M151.508 128.347V131.21L40.416 67.9314V65.1396L151.508 128.347Z" fill="#FFA58D"/>
<path d="M101.586 167.072V169.649L107.463 172.942V170.437L101.586 167.072Z" fill="#E9E5D9"/>
<path d="M140.188 187.974V190.551L146.065 193.844V191.338L140.188 187.974Z" fill="#E9E5D9"/>
<path d="M143.092 194.059V196.564L148.969 199.928V197.351L143.092 194.059Z" fill="#E9E5D9"/>
<path d="M136.705 219.327V221.904L142.51 225.197V222.691L136.705 219.327Z" fill="#E9E5D9"/>
<path d="M72.416 187.974V190.551L78.2209 193.844V191.338L72.416 187.974Z" fill="#E9E5D9"/>
<path d="M51.4453 142.162V144.667L57.3228 148.031V145.454L51.4453 142.162Z" fill="#E9E5D9"/>
<path d="M97.377 159.914V162.491L103.182 165.784L103.254 163.278L97.377 159.914Z" fill="#E9E5D9"/>
<path d="M78.0039 185.612V188.189L83.8088 191.482V188.976L78.0039 185.612Z" fill="#E9E5D9"/>
<path d="M50.4297 152.613V155.19L56.3072 158.483V155.977L50.4297 152.613Z" fill="#E9E5D9"/>
<path d="M267.463 160.988C267.463 168.933 263.69 175.304 258.974 175.304C254.33 175.304 250.557 168.933 250.557 160.988C250.557 153.114 254.33 146.671 258.974 146.671C263.69 146.671 267.463 153.114 267.463 160.988Z" fill="#7BA86D"/>
<g style="mix-blend-mode:multiply">
<path d="M261.368 147.315C262.892 149.892 263.835 153.472 263.835 157.409C263.835 165.354 260.062 171.725 255.418 171.725C254.547 171.725 253.749 171.51 253.023 171.081C254.547 173.729 256.652 175.304 258.973 175.304C263.69 175.304 267.463 168.933 267.463 160.988C267.463 154.474 264.924 149.033 261.368 147.315Z" fill="#E6E7E8"/>
</g>
<path d="M96.9454 203.579L93.0996 205.941L132.936 228.704V224.052L96.9454 203.579Z" fill="#70767D"/>
<path d="M248.743 125.412V127.989L242.865 131.281V128.776L248.743 125.412Z" fill="#E9E5D9"/>
<path d="M245.84 132.355V134.86L239.963 138.225V135.648L245.84 132.355Z" fill="#E9E5D9"/>
<path d="M229.512 151.754V154.331L223.707 157.624V155.118L229.512 151.754Z" fill="#E9E5D9"/>
<path d="M233.941 235.719C232.997 235.719 232.199 234.932 232.199 234.001V216.034C232.199 215.032 232.997 214.316 233.941 214.316C234.957 214.316 235.755 215.032 235.755 216.034V234.001C235.755 234.932 234.957 235.719 233.941 235.719Z" fill="#845E40"/>
<path d="M249.976 201.002C249.976 211.31 242.793 219.613 233.94 219.613C225.16 219.613 217.977 211.31 217.977 201.002C217.977 190.766 225.16 182.391 233.94 182.391C242.793 182.391 249.976 190.766 249.976 201.002Z" fill="#7BA86D"/>
<g style="mix-blend-mode:multiply">
<path d="M238.512 183.25C241.342 186.614 243.156 191.267 243.156 196.421C243.156 206.657 235.972 214.96 227.12 214.96C225.596 214.96 224.072 214.674 222.621 214.173C225.524 217.537 229.514 219.613 233.941 219.613C242.793 219.613 249.977 211.31 249.977 201.002C249.977 192.555 245.115 185.54 238.512 183.25Z" fill="#E6E7E8"/>
</g>
<path d="M16.0364 171.797C15.0205 171.797 14.2949 171.009 14.2949 170.079V152.04C14.2949 151.11 15.0205 150.322 16.0364 150.322C16.9797 150.322 17.7779 151.11 17.7779 152.04V170.079C17.7779 171.009 16.9797 171.797 16.0364 171.797Z" fill="#845E40"/>
<path d="M31.9997 137.08C31.9997 147.387 24.8161 155.691 16.0361 155.691C7.1836 155.691 0 147.387 0 137.08C0 126.772 7.1836 118.468 16.0361 118.468C24.8161 118.468 31.9997 126.772 31.9997 137.08Z" fill="#7BA86D"/>
<g style="mix-blend-mode:multiply">
<path d="M20.5355 119.327C23.3654 122.692 25.1795 127.344 25.1795 132.427C25.1795 142.734 17.9959 151.038 9.21591 151.038C7.61956 151.038 6.09576 150.68 4.64453 150.179C7.547 153.615 11.6104 155.691 16.0367 155.691C24.8167 155.691 32.0003 147.387 32.0003 137.079C32.0003 128.633 27.1386 121.618 20.5355 119.327Z" fill="#E6E7E8"/>
</g>
</svg>
