<svg width="44" height="58" viewBox="0 0 44 58" fill="none" xmlns="http://www.w3.org/2000/svg">
<g clip-path="url(#clip0_110_5507)">
<path fill-rule="evenodd" clip-rule="evenodd" d="M22.7957 55.1434H24.6946C26.3846 55.1434 27.8942 54.4105 28.9385 53.2446H36.0878C38.1861 53.2446 39.8856 51.5441 39.8856 49.4468C39.8856 46.8587 39.8856 43.8062 39.8856 41.2342V41.2323C39.8856 37.6368 38.0436 34.291 35.0149 32.3627C31.1982 29.954 26.6884 28.5592 21.8463 28.5592C21.3716 28.5592 20.8968 28.5725 20.4316 28.5991C17.6688 27.4788 14.6781 26.8094 11.5449 26.6831C11.7063 26.6214 11.8677 26.5607 12.0291 26.5018C12.7317 26.3623 13.4343 26.1334 14.1274 25.822C14.2508 25.7869 14.3742 25.7527 14.4977 25.7195L14.4406 25.673C15.58 25.1147 16.6529 24.3333 17.6023 23.363C18.9315 24.2621 20.4316 24.7615 21.8463 24.7615C25.8244 24.7615 30.3912 20.8327 30.3912 15.1997C30.3912 7.87103 26.6979 3.87391 21.8463 3.87391C20.2892 3.87391 18.8556 4.28407 17.6213 5.0816C16.6719 4.03722 15.561 3.25297 14.3267 2.73458C16.425 0.961984 19.0454 0.0761719 21.8463 0.0761719C28.5208 0.0761719 34.1889 5.11576 34.1889 15.1997C34.1889 19.7029 32.0622 23.3734 29.1949 25.7195C32.0052 26.4695 34.6447 27.6374 37.0372 29.1546C37.0467 29.1546 37.0467 29.1564 37.0467 29.1564C41.1768 31.7807 43.6833 36.337 43.6833 41.2304V49.4468C43.6833 53.6414 40.2843 57.0423 36.0878 57.0423H22.7957V55.1434Z" fill="white"/>
<path fill-rule="evenodd" clip-rule="evenodd" d="M21.5617 55.1434H19.6628C17.9728 55.1434 16.4633 54.4105 15.4189 53.2446H8.26961C6.17136 53.2446 4.47187 51.5441 4.47187 49.4468C4.47187 46.8587 4.47187 43.8062 4.47187 41.2342V41.2323C4.47187 37.6368 6.31378 34.291 9.34248 32.3627C13.1592 29.954 17.669 28.5592 22.5111 28.5592C22.9859 28.5592 23.4606 28.5725 23.9258 28.5991C26.6887 27.4788 29.6794 26.8094 32.8125 26.6831C32.6511 26.6214 32.4897 26.5607 32.3283 26.5018C31.6257 26.3623 30.9232 26.1334 30.2301 25.822C30.1066 25.7869 29.9832 25.7527 29.8598 25.7195L29.9168 25.673C28.7775 25.1147 27.7045 24.3333 26.7551 23.363C25.4259 24.2621 23.9258 24.7615 22.5111 24.7615C18.533 24.7615 13.9662 20.8327 13.9662 15.1997C13.9662 7.87103 17.6595 3.87391 22.5111 3.87391C24.0682 3.87391 25.5018 4.28407 26.7361 5.0816C27.6855 4.03722 28.7965 3.25297 30.0307 2.73458C27.9325 0.961984 25.312 0.0761719 22.5111 0.0761719C15.8366 0.0761719 10.1685 5.11576 10.1685 15.1997C10.1685 19.7029 12.2952 23.3734 15.1625 25.7195C12.3522 26.4695 9.71275 27.6374 7.32018 29.1546C7.31068 29.1546 7.31067 29.1564 7.31067 29.1564C3.18063 31.7807 0.674126 36.337 0.674126 41.2304V49.4468C0.674126 53.6414 4.07311 57.0423 8.26961 57.0423H21.5617V55.1434Z" fill="white"/>
</g>
<defs>
<clipPath id="clip0_110_5507">
<rect width="43.75" height="57.5231" fill="white"/>
</clipPath>
</defs>
</svg>
