<svg width="44" height="58" viewBox="0 0 44 58" fill="none" xmlns="http://www.w3.org/2000/svg">
<g clip-path="url(#clip0_110_5507)">
<path fill-rule="evenodd" clip-rule="evenodd" d="M22.7976 55.143H24.6965C26.3865 55.143 27.896 54.41 28.9404 53.2441H36.0897C38.1879 53.2441 39.8874 51.5436 39.8874 49.4463C39.8874 46.8582 39.8874 43.8058 39.8874 41.2337V41.2318C39.8874 37.6363 38.0455 34.2905 35.0168 32.3622C31.2875 30.0087 26.8966 28.6232 22.1805 28.5609C22.0699 28.5595 21.9591 28.5588 21.8481 28.5588C21.3734 28.5588 20.8987 28.572 20.4335 28.5986C17.6706 27.4783 14.6799 26.8089 11.5468 26.6827C11.7082 26.6209 11.8696 26.5602 12.031 26.5013C12.7336 26.3618 13.4361 26.133 14.1292 25.8215C14.2527 25.7864 14.3761 25.7522 14.4995 25.719L14.4425 25.6725C15.5818 25.1142 16.6548 24.3328 17.6042 23.3625C18.9334 24.2616 20.4335 24.761 21.8481 24.761C21.9585 24.761 22.0693 24.758 22.1805 24.752C26.0761 24.5417 30.3931 20.676 30.3931 15.1992C30.3931 8.03881 26.8674 4.05874 22.1805 3.87974C22.0703 3.87553 21.9595 3.87343 21.8481 3.87343C20.2911 3.87343 18.8575 4.28359 17.6232 5.08111C16.6738 4.03673 15.5628 3.25248 14.3286 2.73409C16.4268 0.961496 19.0473 0.0756836 21.8481 0.0756836C28.5227 0.0756836 34.1908 5.11527 34.1908 15.1992C34.1908 19.7024 32.0641 23.3729 29.1968 25.719C32.0071 26.4691 34.6465 27.6369 37.0391 29.1541C37.0486 29.1541 37.0486 29.156 37.0486 29.156C41.1787 31.7802 43.6852 36.3365 43.6852 41.2299V49.4463C43.6852 53.6409 40.2862 57.0418 36.0897 57.0418H22.7976V55.143Z" fill="white"/>
<path fill-rule="evenodd" clip-rule="evenodd" d="M22.7976 55.143H19.6645C17.9745 55.143 16.4649 54.41 15.4205 53.2441H8.27127C6.17301 53.2441 4.47352 51.5436 4.47352 49.4463C4.47352 46.8582 4.47352 43.8058 4.47352 41.2337V41.2318C4.47352 37.6363 6.31543 34.2905 9.34413 32.3622C13.0734 30.0087 17.4644 28.6232 22.1805 28.5609C22.2911 28.5595 22.4019 28.5588 22.5128 28.5588C22.9875 28.5588 23.4622 28.572 23.9275 28.5986C26.6903 27.4783 29.681 26.8089 32.8142 26.6827C32.6528 26.6209 32.4913 26.5602 32.3299 26.5013C31.6274 26.3618 30.9248 26.133 30.2317 25.8215C30.1083 25.7864 29.9849 25.7522 29.8614 25.719L29.9184 25.6725C28.7791 25.1142 27.7062 24.3328 26.7568 23.3625C25.4275 24.2616 23.9275 24.761 22.5128 24.761C22.4024 24.761 22.2916 24.758 22.1805 24.752C18.2848 24.5417 13.9679 20.676 13.9679 15.1992C13.9679 8.03881 17.4935 4.05874 22.1805 3.87974C22.2906 3.87553 22.4014 3.87343 22.5128 3.87343C24.0699 3.87343 25.5035 4.28359 26.7377 5.08111C27.6872 4.03673 28.7981 3.25248 30.0324 2.73409C27.9341 0.961496 25.3136 0.0756836 22.5128 0.0756836C15.8383 0.0756836 10.1701 5.11527 10.1701 15.1992C10.1701 19.7024 12.2969 23.3729 15.1642 25.719C12.3538 26.4691 9.71441 27.6369 7.32183 29.1541C7.31234 29.1541 7.31233 29.156 7.31233 29.156C3.18228 31.7802 0.675781 36.3365 0.675781 41.2299V49.4463C0.675781 53.6409 4.07476 57.0418 8.27127 57.0418H22.7976V55.143Z" fill="white"/>
<path d="M22.1805 24.752C26.0761 24.5417 30.3931 20.676 30.3931 15.1992C30.3931 8.03881 26.8674 4.05874 22.1805 3.87974C17.4935 4.05874 13.9679 8.03881 13.9679 15.1992C13.9679 20.676 18.2848 24.5417 22.1805 24.752Z" fill="white"/>
<path d="M22.7976 55.143H24.6965C26.3865 55.143 27.896 54.41 28.9404 53.2441H36.0897C38.1879 53.2441 39.8874 51.5436 39.8874 49.4463V41.2337V41.2318C39.8874 37.6363 38.0455 34.2905 35.0168 32.3622C31.2875 30.0087 26.8966 28.6232 22.1805 28.5609C17.4644 28.6232 13.0734 30.0087 9.34413 32.3622C6.31543 34.2905 4.47352 37.6363 4.47352 41.2318V41.2337V49.4463C4.47352 51.5436 6.17301 53.2441 8.27127 53.2441H15.4205C16.4649 54.41 17.9745 55.143 19.6645 55.143H22.7976Z" fill="white"/>
</g>
<defs>
<clipPath id="clip0_110_5507">
<rect width="43.75" height="57.5231" fill="white"/>
</clipPath>
</defs>
</svg>
