<svg width="320" height="300" viewBox="0 0 320 300" fill="none" xmlns="http://www.w3.org/2000/svg">
<path d="M313.469 157.679L157.272 270.625L0.0703125 157.679L156.268 44.6431L313.469 157.679Z" fill="#999E5A"/>
<path d="M313.472 157.679V187.054L157.203 300L157.275 270.625L313.472 157.679Z" fill="#845E40"/>
<path d="M157.274 270.625L157.202 300L0 187.054L0.0717533 157.679L157.274 270.625Z" fill="#A57656"/>
<path d="M313.541 154.375L313.469 157.679L157.271 270.625V267.321L313.541 154.375Z" fill="#ADA75A"/>
<path d="M157.272 267.321V270.625L0.0703125 157.679V154.375L157.272 267.321Z" fill="#CEC874"/>
<path d="M189.487 244.107L130.007 201.429L122.832 216.875L175.137 254.464L189.487 244.107Z" fill="#DCD68B"/>
<path d="M313.472 180.446C309.382 182.411 305.078 183.75 301.418 188.214C300.462 188.869 299.505 189.494 298.548 190.089C289.795 195.893 281.113 202.143 272.791 209.375C272.025 210.03 271.284 210.714 270.566 211.429C270.136 211.845 269.658 212.262 269.131 212.679C268.605 213.036 268.031 213.423 267.409 213.839H267.338C264.898 215.893 261.598 215.982 259.23 220.089C258.369 220.744 257.508 221.429 256.647 222.143C253.49 224.583 250.309 226.994 247.104 229.375C246.339 229.911 245.574 230.476 244.808 231.071C243.995 231.19 243.206 231.369 242.441 231.607C243.876 230.357 245.311 229.018 246.817 227.5C247.535 226.845 248.276 226.22 249.042 225.625C249.807 225.03 250.572 224.405 251.338 223.75C252.151 223.036 252.988 222.321 253.849 221.607H253.921V221.518C256.432 218.304 259.23 216.161 262.028 214.286C264.826 212.321 267.696 210.536 270.208 207.946C271.116 207.351 272.025 206.756 272.934 206.161C281.185 200.625 289.221 195.268 297.113 189.821C298.118 189.107 299.098 188.423 300.055 187.768L300.199 187.679L300.27 187.589C302.853 184.375 305.723 182.679 308.737 181.161C310.243 180.357 311.894 179.554 313.472 178.571V176.25C311.75 177.411 309.956 178.393 308.091 179.286C305.078 180.893 302.064 182.589 299.194 186.071C298.237 186.726 297.305 187.381 296.396 188.036C288.432 193.482 280.396 198.929 272.145 204.375C271.236 204.97 270.327 205.565 269.418 206.161L269.347 206.25H269.275C266.907 208.75 264.109 210.536 261.239 212.5C258.441 214.464 255.499 216.696 252.844 220.089C252.031 220.744 251.242 221.399 250.477 222.054C249.711 222.708 248.946 223.333 248.181 223.929C247.415 224.583 246.65 225.208 245.885 225.804H245.813V225.893C238.71 233.393 232.396 237.321 224.145 241.071C223.236 241.548 222.327 241.994 221.418 242.411C220.51 242.887 219.625 243.333 218.764 243.75H218.692V243.839C217.687 244.435 216.707 245.06 215.75 245.714C206.71 251.518 197.598 257.143 188.486 262.946C187.672 263.423 186.859 263.929 186.046 264.464C181.956 266.518 178.441 269.286 175.284 272.232C174.471 272.946 173.681 273.69 172.916 274.464L172.844 274.554L172.773 274.643C171.672 276.429 170.477 278.036 169.185 279.464C168.516 280.179 167.846 280.863 167.176 281.518C164.091 283.571 160.647 285.357 157.275 287.321V289.554C160.934 287.411 164.593 285.446 167.965 283.214H168.037L168.109 283.125C168.826 282.47 169.52 281.756 170.19 280.982C171.577 279.494 172.844 277.827 173.992 275.982C174.71 275.268 175.451 274.554 176.217 273.839C179.374 270.982 182.746 268.214 186.692 266.339L186.764 266.25C187.577 265.714 188.414 265.208 189.275 264.732C198.315 258.929 207.427 253.304 216.468 247.5C217.472 246.845 218.453 246.22 219.409 245.625C220.27 245.149 221.131 244.702 221.992 244.286C222.901 243.869 223.81 243.423 224.719 242.946C228.163 241.339 231.391 239.732 234.405 237.768C232.252 239.911 230.028 242.054 227.23 243.482C226.273 243.958 225.269 244.375 224.217 244.732C223.595 245.149 222.997 245.565 222.423 245.982C221.801 246.339 221.203 246.726 220.629 247.143C211.302 253.304 202.046 259.554 193.006 266.25C192.193 266.845 191.38 267.47 190.566 268.125C184.826 271.696 180.235 275.982 175.284 280.357C174.471 281.131 173.634 281.875 172.773 282.589H172.701C171.649 283.899 170.524 285.179 169.329 286.429C168.755 287.024 168.157 287.589 167.535 288.125C163.732 289.821 160.432 292.143 157.203 294.732V295.268C160.504 292.679 163.876 290.268 167.678 288.571H167.75C168.372 287.976 168.97 287.381 169.544 286.786C170.74 285.595 171.888 284.315 172.988 282.946C173.849 282.232 174.686 281.518 175.499 280.804C180.45 276.429 185.042 272.143 190.71 268.571H190.782C191.595 267.917 192.408 267.292 193.221 266.696C202.261 260 211.517 253.75 220.844 247.589C221.418 247.173 221.992 246.786 222.566 246.429C223.188 246.012 223.786 245.595 224.36 245.179C225.412 244.881 226.417 244.464 227.374 243.929C230.889 242.232 233.472 239.286 236.055 236.696C236.151 236.637 236.223 236.577 236.27 236.518C237.992 235.387 239.69 234.107 241.365 232.679C242.441 232.143 243.589 231.696 244.88 231.518H244.952C245.765 230.923 246.554 230.327 247.32 229.732C250.524 227.411 253.705 225.03 256.862 222.589C257.723 221.875 258.584 221.19 259.445 220.536L259.517 220.446C261.741 216.429 264.898 216.429 267.553 214.286C268.175 213.869 268.773 213.452 269.347 213.036C269.873 212.619 270.351 212.202 270.782 211.786C271.547 211.131 272.288 210.476 273.006 209.821C281.329 202.589 290.01 196.339 298.764 190.536C299.72 189.94 300.677 189.315 301.634 188.661C305.221 184.286 309.382 182.946 313.472 180.982V180.446Z" fill="#755037"/>
<path d="M165.166 280.357V280.268C165.788 279.673 166.409 279.048 167.031 278.393C168.275 277.024 169.495 275.655 170.69 274.286C171.504 273.75 172.317 273.185 173.13 272.59C177.148 269.822 181.166 267.054 184.251 263.661C185.016 262.887 185.782 262.173 186.547 261.518C194.726 253.75 203.838 247.768 213.166 242.233C214.17 241.637 215.175 241.042 216.179 240.447C217.184 240.03 218.188 239.613 219.193 239.197C227.946 236.429 235.982 230.447 243.731 224.107C244.592 223.453 245.453 222.828 246.314 222.233C247.175 221.637 248.036 221.012 248.897 220.358C249.71 219.762 250.523 219.167 251.336 218.572C258.511 212.411 264.969 210.358 270.995 203.75C271.856 203.096 272.717 202.441 273.578 201.786C274.392 201.131 275.229 200.477 276.09 199.822C281.901 195.268 287.785 190.625 293.74 186.072C294.696 185.358 295.653 184.643 296.61 183.929C302.637 180 308.377 176.875 313.471 172.947V172.322C308.305 176.34 302.565 179.554 296.395 183.482C295.438 184.197 294.481 184.911 293.525 185.625C287.641 190.179 281.686 194.822 275.874 199.375C275.013 200.03 274.176 200.685 273.363 201.34C272.502 201.994 271.641 202.649 270.78 203.304C264.825 209.911 258.368 211.965 251.121 218.125C250.308 218.721 249.495 219.316 248.682 219.911C247.821 220.566 246.96 221.191 246.099 221.786C245.238 222.381 244.377 223.006 243.516 223.661C235.838 230 227.803 235.983 219.049 238.661C218.093 239.137 217.112 239.554 216.108 239.911H216.036C215.031 240.566 214.003 241.191 212.951 241.786C203.623 247.322 194.511 253.304 186.26 261.072C185.543 261.786 184.801 262.5 184.036 263.215C180.951 266.608 177.004 269.375 172.915 272.143C172.102 272.738 171.288 273.334 170.475 273.929H170.403C169.208 275.298 168.012 276.637 166.816 277.947C166.194 278.661 165.549 279.316 164.879 279.911C162.224 281.607 159.713 283.125 157.273 284.733V285.268C159.785 283.661 162.368 282.054 165.094 280.357H165.166Z" fill="#755037"/>
<path d="M157.273 278.215C159.067 276.875 160.861 275.357 162.439 273.482C163.013 272.947 163.563 272.381 164.09 271.786C165.238 270.596 166.362 269.465 167.462 268.393C168.227 267.738 168.968 267.084 169.686 266.429C172.771 263.929 175.928 261.786 179.946 260.447H180.018L180.09 260.357C180.951 259.762 181.788 259.167 182.601 258.572C191.785 252.232 201.112 246.34 210.368 240.268C211.372 239.613 212.353 238.959 213.309 238.304C214.17 237.887 215.007 237.441 215.821 236.965C216.634 236.488 217.447 236.012 218.26 235.536C228.233 231.072 234.762 225 242.296 218.125C243.109 217.471 243.946 216.816 244.807 216.161C252.412 210.982 260.52 205 269.202 197.411C269.967 196.816 270.732 196.221 271.498 195.625C276.903 191.399 282.308 187.232 287.713 183.125C288.622 182.351 289.554 181.607 290.511 180.893C294.744 177.947 299.695 175.447 304.43 172.59C307.659 170.536 310.816 168.304 313.471 165.447V162.857C310.744 165.982 307.3 168.482 303.713 170.804C299.049 173.661 294.099 176.161 289.722 179.107V179.197C288.765 179.911 287.809 180.655 286.852 181.429C281.447 185.536 276.042 189.703 270.637 193.929C269.871 194.524 269.106 195.119 268.341 195.715H268.269V195.804C259.659 203.304 251.623 209.286 244.018 214.465H243.946C243.085 215.119 242.224 215.774 241.363 216.429V216.518C233.83 223.393 227.444 229.286 217.686 233.661L217.614 233.75C216.801 234.226 215.988 234.703 215.175 235.179C214.314 235.596 213.477 236.042 212.664 236.518H212.592C211.587 237.173 210.607 237.828 209.65 238.482C200.395 244.554 191.067 250.447 181.812 256.875C180.998 257.411 180.185 257.976 179.372 258.572C175.211 260 171.91 262.232 168.825 264.732C168.06 265.387 167.294 266.042 166.529 266.697V266.786H166.457C165.357 267.917 164.233 269.078 163.085 270.268C162.511 270.804 161.961 271.369 161.435 271.965H161.363V272.054C160.143 273.482 158.708 274.732 157.273 275.804V278.215Z" fill="#755037"/>
<path d="M157.202 296.607C155.623 295.625 153.973 294.643 152.179 293.839C151.605 293.304 151.007 292.738 150.386 292.143C149.238 290.893 148.114 289.613 147.013 288.304C146.152 287.53 145.291 286.786 144.43 286.072C139.48 281.697 134.888 277.411 129.148 273.839C128.335 273.185 127.522 272.56 126.709 271.964C117.668 265.268 108.413 259.018 99.0852 252.857C98.5112 252.441 97.9133 252.024 97.2915 251.607C96.7175 251.25 96.1196 250.863 95.4978 250.447C94.4454 250.089 93.4409 249.673 92.4843 249.197C89.6861 247.768 87.4619 245.625 85.3094 243.482C88.3946 245.357 91.5516 247.054 94.9955 248.661C95.9043 249.077 96.8131 249.524 97.722 250C98.5829 250.417 99.444 250.863 100.305 251.339C101.309 251.935 102.29 252.56 103.247 253.214C112.287 259.018 121.399 264.643 130.511 270.357C131.324 270.893 132.138 271.429 132.951 271.964H133.022C136.969 273.929 140.341 276.607 143.498 279.554C144.263 280.268 145.028 280.982 145.794 281.697C146.894 283.542 148.138 285.208 149.525 286.697C150.194 287.47 150.888 288.185 151.605 288.839L151.677 288.929H151.749C153.543 290.089 155.336 291.161 157.202 292.232L157.274 290.089C155.623 289.107 154.045 288.214 152.538 287.232C151.868 286.577 151.223 285.893 150.601 285.179C149.262 283.75 148.042 282.143 146.942 280.357L146.87 280.268L146.798 280.179C146.033 279.405 145.244 278.661 144.43 277.947C141.274 275 137.758 272.143 133.668 270.179C132.855 269.643 132.042 269.107 131.229 268.572C122.117 262.857 113.004 257.232 103.964 251.429C103.007 250.774 102.027 250.119 101.022 249.464H100.951C100.09 248.988 99.2048 248.542 98.2959 248.125C97.3871 247.708 96.4783 247.262 95.5695 246.786C87.3901 243.036 81.0762 239.107 73.9013 231.607V231.518H73.8296C73.0643 230.923 72.2989 230.298 71.5336 229.643C70.7683 229.048 70.003 228.423 69.2376 227.768C68.4723 227.113 67.6831 226.429 66.8699 225.714C64.287 222.322 61.3453 220.179 58.4753 218.214C55.6054 216.161 52.8072 214.464 50.4395 211.964L50.3677 211.875H50.296C49.3871 211.28 48.4783 210.685 47.5695 210.089C39.3184 204.554 31.2825 199.197 23.3901 193.75C22.4335 193.095 21.4768 192.441 20.5202 191.786C17.6502 188.304 14.6368 186.607 11.6233 185C8.60985 183.393 5.7399 182.054 3.01344 179.286L2.94171 179.197C1.93722 178.482 0.956652 177.768 0 177.054V179.375C0.669656 179.851 1.36322 180.357 2.08071 180.893C4.95067 183.839 8.03587 185.268 11.0493 186.875C13.991 188.393 16.861 190.089 19.444 193.304L19.5157 193.393L19.6592 193.482C20.6158 194.137 21.5964 194.822 22.6009 195.536C30.4933 200.982 38.5291 206.339 46.7803 211.875C47.6891 212.47 48.5979 213.036 49.5067 213.572C52.0179 216.25 54.8879 218.036 57.6861 219.911C60.556 221.875 63.3542 224.018 65.7937 227.232L65.8655 227.322H65.9372C66.7504 228.036 67.5635 228.75 68.3767 229.464C69.142 230.06 69.9073 230.685 70.6726 231.339C71.4379 231.935 72.2033 232.53 72.9686 233.125C74.4036 234.732 75.8385 236.072 77.2735 237.322C76.556 237.083 75.7907 236.905 74.9776 236.786C74.1644 236.191 73.3752 235.595 72.6098 235C69.4051 232.679 66.2242 230.298 63.0673 227.857C62.2063 227.143 61.3453 226.458 60.4843 225.804C58.1166 221.607 54.8161 221.607 52.3767 219.554C51.7548 219.137 51.1569 218.72 50.5829 218.304C50.0568 217.947 49.6024 217.56 49.2197 217.143V217.054H49.148C48.4305 216.399 47.6891 215.744 46.9238 215.089C38.6009 207.857 29.9193 201.607 21.1659 195.804C20.2093 195.208 19.2765 194.583 18.3677 193.929C12.9866 187.589 6.52915 187.589 1.14799 182.947C0.765326 182.708 0.382661 182.47 0 182.232V182.768C0.334828 183.006 0.645731 183.214 0.932727 183.393C6.45739 188.036 12.9148 188.036 18.0807 194.375H18.1525C19.1091 194.97 20.0418 195.595 20.9507 196.25C29.704 202.054 38.3857 208.304 46.7085 215.536C47.4738 216.191 48.2152 216.845 48.9327 217.5C49.3632 217.917 49.8655 218.333 50.4395 218.75C50.9656 219.167 51.5396 219.583 52.1614 220C54.8161 222.143 57.9731 222.143 60.1973 226.161H60.269C61.13 226.875 61.991 227.56 62.852 228.214C66.009 230.655 69.1898 233.066 72.3946 235.447C73.2078 236.042 73.997 236.637 74.7623 237.232H74.8341C76.1256 237.411 77.3453 237.768 78.4215 238.393C80.0957 239.762 81.7698 241.042 83.444 242.232C83.4918 242.292 83.5635 242.351 83.6592 242.411C86.2422 245 88.8251 247.857 92.3408 249.643C93.2974 250.119 94.3019 250.536 95.3543 250.893C95.9282 251.31 96.5262 251.697 97.148 252.054C97.722 252.47 98.3199 252.887 98.9417 253.304C108.197 259.464 117.453 265.714 126.493 272.411C127.306 273.006 128.144 273.601 129.004 274.197C134.673 277.768 139.265 282.143 144.215 286.518C145.028 287.232 145.865 287.947 146.726 288.661C147.827 289.97 148.975 291.25 150.17 292.5C150.744 293.095 151.342 293.691 151.964 294.286H152.036C153.83 295.089 155.552 296.072 157.202 297.143V296.607Z" fill="#996D4F"/>
<path d="M25.9731 191.786C31.9282 196.34 37.8117 200.893 43.6233 205.536C44.4843 206.191 45.3214 206.846 46.1345 207.5C46.9955 208.155 47.8565 208.81 48.7175 209.465C54.7444 216.072 61.2018 218.125 68.3767 224.286C69.1898 224.881 70.003 225.477 70.8161 226.072C71.6771 226.727 72.5381 227.352 73.3991 227.947C74.3079 228.542 75.1928 229.167 76.0538 229.822C83.7309 236.072 91.7668 242.143 100.52 244.822C101.525 245.298 102.529 245.715 103.534 246.072C104.538 246.667 105.543 247.292 106.547 247.947C115.946 253.482 124.987 259.465 133.238 267.143C133.955 267.857 134.697 268.602 135.462 269.375C138.547 272.768 142.565 275.536 146.655 278.304C147.42 278.84 148.209 279.405 149.022 280C150.218 281.369 151.438 282.709 152.682 284.018C153.303 284.733 153.925 285.387 154.547 285.983H154.619C155.528 286.578 156.413 287.143 157.274 287.679V287.143C156.46 286.608 155.647 286.102 154.834 285.625C154.164 284.971 153.543 284.316 152.969 283.661C151.725 282.352 150.505 281.012 149.309 279.643L149.238 279.554C148.424 279.018 147.611 278.453 146.798 277.857C142.78 275.09 138.762 272.322 135.677 268.929C134.96 268.215 134.218 267.5 133.453 266.786C125.202 259.018 116.09 253.036 106.762 247.5C105.758 246.846 104.729 246.221 103.677 245.625C102.673 245.209 101.668 244.792 100.664 244.375C91.9821 241.697 83.9462 235.715 76.2691 229.375H76.1973C75.3363 228.721 74.4753 228.096 73.6143 227.5C72.7534 226.905 71.8923 226.28 71.0314 225.625C70.2182 225.03 69.4051 224.435 68.5919 223.84C61.3453 217.679 54.8879 215.625 48.9327 209.018C48.0717 208.363 47.2108 207.709 46.3498 207.054C45.5366 206.399 44.6996 205.744 43.8386 205.09C38.0269 200.536 32.1435 195.893 26.1883 191.34C25.2317 190.625 24.275 189.911 23.3184 189.197C14.6368 183.572 6.60089 179.554 0.215238 172.5V172.411C0.119573 172.352 0.0478326 172.322 0 172.322V172.858C6.4574 180 14.4933 184.018 23.1031 189.643C24.0598 190.358 25.0164 191.072 25.9731 191.786Z" fill="#996D4F"/>
<path d="M0 165.089C0.0478326 165.149 0.119573 165.179 0.215238 165.179C1.12406 165.833 2.05679 166.518 3.01344 167.232C6.24214 171.964 10.6188 175.357 15.2825 178.214C20.0179 181.161 24.9686 183.661 29.2018 186.607C30.1584 187.322 31.1151 188.036 32.0717 188.75C37.429 192.917 42.8102 197.113 48.2152 201.339C48.9806 201.935 49.7459 202.53 50.5112 203.125C59.2646 210.714 67.3004 216.697 74.9058 221.875C75.7668 222.53 76.6278 223.185 77.4888 223.839C84.9506 230.714 91.4798 236.786 101.453 241.25C102.266 241.726 103.079 242.203 103.892 242.679C104.753 243.155 105.59 243.601 106.404 244.018C107.36 244.673 108.341 245.298 109.345 245.893C118.601 252.054 127.928 257.947 137.112 264.286C137.925 264.881 138.762 265.476 139.623 266.072H139.695L139.767 266.161C143.785 267.5 147.013 269.643 150.027 272.143C150.792 272.738 151.534 273.363 152.251 274.018C153.351 275.149 154.475 276.31 155.623 277.5C156.149 278.036 156.7 278.601 157.274 279.197V276.607C157.082 276.369 156.867 276.131 156.628 275.893C155.528 274.762 154.404 273.631 153.256 272.5V272.411H153.184C152.419 271.756 151.653 271.101 150.888 270.447C147.803 267.947 144.502 265.714 140.341 264.286C139.528 263.691 138.714 263.125 137.901 262.589C128.646 256.161 119.318 250.268 110.063 244.197C109.106 243.542 108.126 242.887 107.121 242.232L107.049 242.143C106.236 241.726 105.423 241.28 104.61 240.804C103.749 240.387 102.912 239.911 102.099 239.375H102.027C92.269 235 85.8834 229.107 78.3498 222.143C77.4888 221.488 76.6278 220.834 75.7668 220.179H75.695C68.0897 215 60.1255 209.018 51.4439 201.429H51.3722C50.6069 200.834 49.8415 200.238 49.0762 199.643C43.6711 195.417 38.2661 191.22 32.861 187.054C31.9043 186.339 30.9477 185.595 29.991 184.822C25.6143 181.875 20.6637 179.375 16 176.429C11.4081 173.572 7.10313 170.268 4.08967 165.804L4.01794 165.625L3.87443 165.536C2.91778 164.822 1.93721 164.137 0.932727 163.482C0.645731 163.244 0.334828 163.006 0 162.768V165.089Z" fill="#996D4F"/>
<path d="M64.2161 123.839C62.6377 123.839 61.418 122.321 61.418 120.357V83.9284C61.418 82.0534 62.6377 80.4463 64.2161 80.4463C65.7229 80.4463 67.0144 82.0534 67.0144 83.9284V120.357C67.0144 122.321 65.7229 123.839 64.2161 123.839Z" fill="#845E40"/>
<path d="M89.9035 53.5711C89.9035 74.3747 78.3519 91.2497 64.2173 91.2497C50.0111 91.2497 38.5312 74.3747 38.5312 53.5711C38.5312 32.7675 50.0111 15.8926 64.2173 15.8926C78.3519 15.8926 89.9035 32.7675 89.9035 53.5711Z" fill="#7BA86D"/>
<g style="mix-blend-mode:multiply">
<path d="M71.463 17.5889C76.055 24.4639 78.9249 33.8389 78.9249 44.196C78.9249 64.9996 67.4451 81.8746 53.2388 81.8746C50.7276 81.8746 48.3599 81.1603 45.9922 80.1782C50.6559 87.0532 57.1132 91.2496 64.2164 91.2496C78.3509 91.2496 89.9025 74.3746 89.9025 53.571C89.9025 36.5174 82.0819 22.2317 71.463 17.5889Z" fill="#E6E7E8"/>
</g>
<path d="M127.641 233.839L53.4531 180.536V134.911L127.641 188.214V233.839Z" fill="#FA8B65"/>
<path d="M95.8555 73.9287V134.911L201.829 210.982V150.089L95.8555 73.9287Z" fill="#FA8B65"/>
<path d="M43.2624 150.089C43.2624 158.482 40.1055 165.357 36.1593 165.357C32.2131 165.357 28.9844 158.482 28.9844 150.089C28.9844 141.696 32.2131 134.911 36.1593 134.911C40.1055 134.911 43.2624 141.696 43.2624 150.089Z" fill="#7BA86D"/>
<g style="mix-blend-mode:multiply">
<path d="M38.1695 135.536C39.461 138.304 40.2503 142.143 40.2503 146.339C40.2503 154.732 37.0216 161.518 33.0754 161.518C32.3579 161.518 31.7121 161.25 31.0664 160.893C32.3579 163.661 34.1516 165.357 36.1606 165.357C40.1068 165.357 43.2637 158.482 43.2637 150.089C43.2637 143.214 41.1112 137.411 38.1695 135.536Z" fill="#E6E7E8"/>
</g>
<path d="M92.7715 77.9464L138.26 13.0356L244.233 89.1964L198.745 154.018L92.7715 77.9464Z" fill="#3A4D57"/>
<path d="M138.26 13.0355L195.013 4.01758L290.367 72.4997L244.233 89.1962L138.26 13.0355Z" fill="#2D3D44"/>
<path d="M92.7715 73.9288L138.26 9.01807L244.233 85.1788L198.745 150L92.7715 73.9288Z" fill="#3A4D57"/>
<path d="M138.26 9.01789L195.013 0L290.367 68.4822L244.233 85.1786L138.26 9.01789Z" fill="#2D3D44"/>
<path d="M201.83 150.089L244.234 89.1965L286.637 73.9287V150.089L201.83 210.982V150.089Z" fill="#EA7B5E"/>
<path d="M263.749 104.286V107.5L257.938 111.607V108.482L263.749 104.286Z" fill="#FA8B65"/>
<path d="M263.749 84.375V87.5L257.938 91.6964V88.4822L263.749 84.375Z" fill="#FA8B65"/>
<path d="M259.228 102.232V105.357L253.416 109.554V106.34L259.228 102.232Z" fill="#FA8B65"/>
<path d="M223.281 140V143.125L217.541 147.321V144.107L223.281 140Z" fill="#FA8B65"/>
<path d="M211.802 155.089V158.214L206.062 162.411V159.197L211.802 155.089Z" fill="#FA8B65"/>
<path d="M223.281 174.375V177.589L217.541 181.696V178.571L223.281 174.375Z" fill="#FA8B65"/>
<path d="M240.574 170V173.125L234.834 177.321V174.107L240.574 170Z" fill="#FA8B65"/>
<path d="M226.798 121.607V124.821L220.986 128.928V125.803L226.798 121.607Z" fill="#FA8B65"/>
<path d="M243.515 120.893V124.018L237.703 128.214V125L243.515 120.893Z" fill="#FA8B65"/>
<path d="M270.134 119.732V122.947L264.395 127.054V123.929L270.134 119.732Z" fill="#FA8B65"/>
<path d="M284.843 142.321V145.446L279.104 149.643V146.428L284.843 142.321Z" fill="#FA8B65"/>
<path d="M284.843 89.1963V92.3213L279.104 96.5177V93.3034L284.843 89.1963Z" fill="#FA8B65"/>
<path d="M218.833 184.554V187.679L213.021 191.875V188.661L218.833 184.554Z" fill="#FA8B65"/>
<path d="M218.833 137.857V141.072L213.021 145.179V142.054L218.833 137.857Z" fill="#FA8B65"/>
<path d="M264.394 149.464V152.589L258.582 156.786V153.571L264.394 149.464Z" fill="#FA8B65"/>
<path d="M259.874 147.321V150.446L254.062 154.643V151.518L259.874 147.321Z" fill="#FA8B65"/>
<path d="M179.443 142.143V145.357L185.255 149.464V146.339L179.443 142.143Z" fill="#EA7B5E"/>
<path d="M190.922 157.232V160.447L196.734 164.554V161.429L190.922 157.232Z" fill="#EA7B5E"/>
<path d="M179.443 176.607V179.732L185.255 183.929V180.715L179.443 176.607Z" fill="#EA7B5E"/>
<path d="M157.775 126.696V129.911L163.515 134.018V130.893L157.775 126.696Z" fill="#EA7B5E"/>
<path d="M101.021 88.125V91.3393L106.761 95.4464V92.3214L101.021 88.125Z" fill="#EA7B5E"/>
<path d="M183.963 186.696V189.911L189.703 194.018V190.893L183.963 186.696Z" fill="#EA7B5E"/>
<path d="M174.494 145.357V148.572L180.306 152.768V149.554L174.494 145.357Z" fill="#EA7B5E"/>
<path d="M107.408 183.214V186.339L113.148 190.536V187.322L107.408 183.214Z" fill="#EA7B5E"/>
<path d="M118.887 198.304V201.429L124.627 205.625V202.411L118.887 198.304Z" fill="#EA7B5E"/>
<path d="M58.4023 159.107V162.322L64.214 166.429V163.304L58.4023 159.107Z" fill="#EA7B5E"/>
<path d="M85.7377 167.768L85.666 170.893L91.4777 175.09V171.875L85.7377 167.768Z" fill="#EA7B5E"/>
<path d="M57.1836 150.357V153.572L62.9953 157.679V154.554L57.1836 150.357Z" fill="#EA7B5E"/>
<path d="M111.927 215.447L111.855 218.661L117.667 222.768V219.643L111.927 215.447Z" fill="#EA7B5E"/>
<path d="M102.457 186.429L102.385 189.554L108.196 193.75V190.625L102.457 186.429Z" fill="#EA7B5E"/>
<path d="M260.81 123.036L252.918 128.75L252.99 149.196L252.918 145.893L260.882 140.178L260.81 123.036Z" fill="#FAFAFA"/>
<path d="M260.882 140.179L252.918 145.893L252.99 149.197L263.178 141.875L260.882 140.179Z" fill="#A7A6A5"/>
<path d="M263.178 121.339L260.811 123.036L260.882 140.179L263.178 141.875V121.339Z" fill="#C8C7C6"/>
<path d="M275.517 112.5L267.625 118.125V138.661V135.357L275.589 129.643L275.517 112.5Z" fill="#FAFAFA"/>
<path d="M275.589 129.643L267.625 135.357V138.661L277.885 131.34L275.589 129.643Z" fill="#A7A6A5"/>
<path d="M277.887 110.804L275.52 112.5L275.591 129.643L277.887 131.339V110.804Z" fill="#C8C7C6"/>
<path d="M222.207 150.714L214.314 156.429V176.964V173.571L222.279 167.857L222.207 150.714Z" fill="#FAFAFA"/>
<path d="M222.279 167.857L214.314 173.572V176.965L224.575 169.554L222.279 167.857Z" fill="#A7A6A5"/>
<path d="M224.575 149.107L222.207 150.715L222.279 167.857L224.575 169.554V149.107Z" fill="#C8C7C6"/>
<path d="M236.914 140.179L229.021 145.893V166.339V163.036L236.986 157.322L236.914 140.179Z" fill="#FAFAFA"/>
<path d="M236.986 157.322L229.021 163.036V166.34L239.282 159.018L236.986 157.322Z" fill="#A7A6A5"/>
<path d="M239.284 138.482L236.916 140.179L236.988 157.322L239.284 159.018V138.482Z" fill="#C8C7C6"/>
<path d="M83.5845 174.732L91.4769 180.446V200.893V197.589L83.5128 191.875L83.5845 174.732Z" fill="#FAFAFA"/>
<path d="M83.5128 191.875L91.4769 197.589V200.893L81.2168 193.571L83.5128 191.875Z" fill="#A7A6A5"/>
<path d="M81.2168 173.036L83.5845 174.732L83.5128 191.875L81.2168 193.571V173.036Z" fill="#C8C7C6"/>
<path d="M68.8775 164.196L76.7698 169.911V190.357V187.053L68.8057 181.339L68.8775 164.196Z" fill="#FAFAFA"/>
<path d="M68.8057 181.339L76.7698 187.054V190.357L66.5098 183.036L68.8057 181.339Z" fill="#A7A6A5"/>
<path d="M66.5098 162.5L68.8775 164.196L68.8057 181.339L66.5098 183.036V162.5Z" fill="#C8C7C6"/>
<path d="M95.8568 89.1963L170.045 142.5L124.126 191.964L49.9375 138.661L95.8568 89.1963Z" fill="#3A4D57"/>
<path d="M95.8568 85.3574L170.045 138.661L124.126 188.215L49.9375 134.911L95.8568 85.3574Z" fill="#3A4D57"/>
<path d="M213.236 203.661C213.236 216.161 208.5 226.25 202.617 226.25C196.733 226.25 191.998 216.161 191.998 203.661C191.998 191.161 196.733 181.071 202.617 181.071C208.5 181.071 213.236 191.161 213.236 203.661Z" fill="#7BA86D"/>
<g style="mix-blend-mode:multiply">
<path d="M205.631 182.143C207.497 186.16 208.716 191.875 208.716 198.035C208.716 210.535 203.981 220.625 198.097 220.625C197.021 220.625 196.088 220.268 195.084 219.643C197.021 223.75 199.676 226.25 202.618 226.25C208.501 226.25 213.236 216.16 213.236 203.66C213.236 193.393 210.008 184.91 205.631 182.143Z" fill="#E6E7E8"/>
</g>
<path d="M112.715 217.857C112.715 223.125 110.706 227.411 108.195 227.411C105.755 227.411 103.746 223.125 103.746 217.857C103.746 212.589 105.755 208.304 108.195 208.304C110.706 208.304 112.715 212.589 112.715 217.857Z" fill="#7BA86D"/>
<g style="mix-blend-mode:multiply">
<path d="M109.486 208.75C110.275 210.536 110.777 212.857 110.777 215.536C110.777 220.804 108.768 225.089 106.329 225.089C105.898 225.089 105.468 224.911 105.037 224.643C105.826 226.339 106.974 227.411 108.194 227.411C110.705 227.411 112.714 223.125 112.714 217.857C112.714 213.571 111.351 209.911 109.486 208.75Z" fill="#E6E7E8"/>
</g>
<path d="M99.8757 200.893C99.8757 209.375 96.7187 216.161 92.7725 216.161C88.8264 216.161 85.5977 209.375 85.5977 200.893C85.5977 192.5 88.8264 185.714 92.7725 185.714C96.7187 185.714 99.8757 192.5 99.8757 200.893Z" fill="#7BA86D"/>
<g style="mix-blend-mode:multiply">
<path d="M94.7828 186.429C96.0743 189.107 96.8635 192.947 96.8635 197.143C96.8635 205.536 93.6349 212.411 89.7604 212.411C89.0429 212.411 88.3254 212.054 87.6797 211.697C89.0429 214.464 90.7649 216.161 92.7739 216.161C96.7201 216.161 99.877 209.375 99.877 200.893C99.877 194.018 97.7245 188.214 94.7828 186.429Z" fill="#E6E7E8"/>
</g>
<path d="M231.749 196.875C231.749 205.357 228.52 212.143 224.574 212.143C220.628 212.143 217.471 205.357 217.471 196.875C217.471 188.482 220.628 181.696 224.574 181.696C228.52 181.696 231.749 188.482 231.749 196.875Z" fill="#7BA86D"/>
<g style="mix-blend-mode:multiply">
<path d="M226.584 182.321C227.876 185.089 228.665 188.928 228.665 193.125C228.665 201.518 225.508 208.303 221.562 208.303C220.844 208.303 220.198 208.036 219.553 207.678C220.844 210.446 222.638 212.143 224.575 212.143C228.521 212.143 231.75 205.357 231.75 196.875C231.75 190 229.598 184.196 226.584 182.321Z" fill="#E6E7E8"/>
</g>
<path d="M127.643 188.214V233.839L170.046 203.393V142.5L127.643 188.214Z" fill="#EA7B5E"/>
<path d="M165.095 167.947V171.072L159.355 175.268V172.054L165.095 167.947Z" fill="#FA8B65"/>
<path d="M168.61 149.554V152.679L162.799 156.875V153.661L168.61 149.554Z" fill="#FA8B65"/>
<path d="M136.036 184.197V187.322L130.225 191.518V188.304L136.036 184.197Z" fill="#FA8B65"/>
<path d="M139.982 211.786V215L134.17 219.107V215.982L139.982 211.786Z" fill="#FA8B65"/>
<path d="M160.574 165.804V168.929L154.834 173.125V169.911L160.574 165.804Z" fill="#FA8B65"/>
<path d="M138.26 226.25V195.803L149.166 187.946L148.807 218.661L138.26 226.25Z" fill="#3A4D57"/>
<path d="M162.226 178.036L154.334 183.75V200.893L162.298 195.268L162.226 178.036Z" fill="#FAFAFA"/>
<path d="M162.298 195.268L154.334 200.893L154.406 204.286L164.594 196.875L162.298 195.268Z" fill="#A7A6A5"/>
<path d="M164.594 176.429L162.227 178.036L162.298 195.268L164.594 196.875V176.429Z" fill="#C8C7C6"/>
<path d="M172.341 33.5716L171.121 32.6787L125.848 97.6787L127.139 98.5716L172.341 33.5716Z" fill="#2D3D44"/>
<path d="M162.942 26.7854L161.651 25.8926L116.449 90.8926L117.669 91.7855L162.942 26.7854Z" fill="#2D3D44"/>
<path d="M153.542 19.9998L152.25 19.1069L106.977 84.1069L108.268 84.9998L153.542 19.9998Z" fill="#2D3D44"/>
<path d="M181.811 40.3571L180.52 39.375L135.246 104.464L136.538 105.357L181.811 40.3571Z" fill="#2D3D44"/>
<path d="M97.5781 77.3213L98.8696 78.3034L144.071 13.2141L142.852 12.3213L97.5781 77.3213Z" fill="#2D3D44"/>
<path d="M219.48 67.4104L218.188 66.5176L172.986 131.518L174.206 132.41L219.48 67.4104Z" fill="#2D3D44"/>
<path d="M238.35 80.9821L237.059 80L191.785 145.089L193.077 145.982L238.35 80.9821Z" fill="#2D3D44"/>
<path d="M191.21 47.0535L189.919 46.1606L144.717 111.25L145.937 112.143L191.21 47.0535Z" fill="#2D3D44"/>
<path d="M228.878 74.1966L227.658 73.3037L182.385 138.304L183.676 139.197L228.878 74.1966Z" fill="#2D3D44"/>
<path d="M200.61 53.8391L199.391 52.9463L154.117 117.946L155.409 118.928L200.61 53.8391Z" fill="#2D3D44"/>
<path d="M210.081 60.6248L208.789 59.7319L163.516 124.732L164.807 125.625L210.081 60.6248Z" fill="#2D3D44"/>
<path d="M54.5293 138.482L55.8208 139.464L101.74 89.9998L100.449 89.0176L54.5293 138.482Z" fill="#2D3D44"/>
<path d="M122.691 105L121.399 104.018L75.4082 153.571L76.7714 154.464L122.691 105Z" fill="#2D3D44"/>
<path d="M164.521 135.089L163.229 134.107L117.238 183.571L118.602 184.553L164.521 135.089Z" fill="#2D3D44"/>
<path d="M112.215 97.4997L110.923 96.5176L65.0039 146.071L66.2954 146.964L112.215 97.4997Z" fill="#2D3D44"/>
<path d="M133.165 112.5L131.802 111.518L85.8828 161.071L87.2461 161.964L133.165 112.5Z" fill="#2D3D44"/>
<path d="M154.045 127.5L152.753 126.607L106.834 176.071L108.125 177.053L154.045 127.5Z" fill="#2D3D44"/>
<path d="M143.57 120L142.279 119.107L96.3594 168.571L97.6508 169.553L143.57 120Z" fill="#2D3D44"/>
<path d="M244.232 85.1784V89.1962L290.367 72.4998V68.4819L244.232 85.1784Z" fill="#2D3D44"/>
<path d="M244.233 89.1966V85.1787L198.744 150V154.018L244.233 89.1966Z" fill="#2D3D44"/>
<path d="M198.745 150L92.7715 73.9287V77.9466L198.745 154.018V150Z" fill="#4A626D"/>
<path d="M124.126 188.214V191.964L49.9375 138.661V134.911L124.126 188.214Z" fill="#4A626D"/>
<path d="M170.044 138.661V142.5L124.125 191.964V188.214L170.044 138.661Z" fill="#2D3D44"/>
<path d="M304.142 156.25C303.209 156.25 302.42 155.357 302.42 154.107V131.697C302.42 130.536 303.209 129.554 304.142 129.554C305.075 129.554 305.864 130.536 305.864 131.697V154.107C305.864 155.357 305.075 156.25 304.142 156.25Z" fill="#845E40"/>
<path d="M320 112.947C320 125.804 312.897 136.161 304.144 136.161C295.39 136.161 288.287 125.804 288.287 112.947C288.287 100.179 295.39 89.7324 304.144 89.7324C312.897 89.7324 320 100.179 320 112.947Z" fill="#7BA86D"/>
<g style="mix-blend-mode:multiply">
<path d="M308.59 90.8037C311.46 95.0001 313.182 100.804 313.182 107.232C313.182 120 306.151 130.447 297.398 130.447C295.819 130.447 294.384 130 292.949 129.375C295.819 133.572 299.765 136.161 304.142 136.161C312.895 136.161 319.999 125.804 319.999 112.947C319.999 102.411 315.12 93.6609 308.59 90.8037Z" fill="#E6E7E8"/>
</g>
</svg>
