<svg width="242" height="71" viewBox="0 0 242 71" fill="none" xmlns="http://www.w3.org/2000/svg">
<path d="M1 38C1 33.5817 4.58172 30 9 30H233C237.418 30 241 33.5817 241 38V62C241 66.4183 237.418 70 233 70H9.00001C4.58173 70 1 66.4183 1 62V38Z" fill="white"/>
<path d="M9 30.5H233V29.5H9V30.5ZM240.5 38V62H241.5V38H240.5ZM233 69.5H9.00001V70.5H233V69.5ZM1.5 62V38H0.5V62H1.5ZM9.00001 69.5C4.85787 69.5 1.5 66.1421 1.5 62H0.5C0.5 66.6944 4.30559 70.5 9.00001 70.5V69.5ZM240.5 62C240.5 66.1421 237.142 69.5 233 69.5V70.5C237.694 70.5 241.5 66.6944 241.5 62H240.5ZM233 30.5C237.142 30.5 240.5 33.8579 240.5 38H241.5C241.5 33.3056 237.694 29.5 233 29.5V30.5ZM9 29.5C4.30558 29.5 0.5 33.3056 0.5 38H1.5C1.5 33.8579 4.85786 30.5 9 30.5V29.5Z" fill="#D9D9D9"/>
<path d="M22.8636 44.3636H24.2727V52.6818C24.2727 53.4242 24.1364 54.0549 23.8636 54.5739C23.5909 55.0928 23.2064 55.4867 22.7102 55.7557C22.214 56.0246 21.6288 56.1591 20.9545 56.1591C20.3182 56.1591 19.7519 56.0436 19.2557 55.8125C18.7595 55.5777 18.3693 55.2443 18.0852 54.8125C17.8011 54.3807 17.6591 53.8674 17.6591 53.2727H19.0455C19.0455 53.6023 19.1269 53.8902 19.2898 54.1364C19.4564 54.3788 19.6837 54.5682 19.9716 54.7045C20.2595 54.8409 20.5871 54.9091 20.9545 54.9091C21.3598 54.9091 21.7045 54.8239 21.9886 54.6534C22.2727 54.483 22.4886 54.233 22.6364 53.9034C22.7879 53.5701 22.8636 53.1629 22.8636 52.6818V44.3636ZM29.483 56.2045C28.9299 56.2045 28.428 56.1004 27.9773 55.892C27.5265 55.6799 27.1686 55.375 26.9034 54.9773C26.6383 54.5758 26.5057 54.0909 26.5057 53.5227C26.5057 53.0227 26.6042 52.6174 26.8011 52.3068C26.9981 51.9924 27.2614 51.7462 27.5909 51.5682C27.9205 51.3902 28.2841 51.2576 28.6818 51.1705C29.0833 51.0795 29.4867 51.0076 29.892 50.9545C30.4223 50.8864 30.8523 50.8352 31.1818 50.8011C31.5152 50.7633 31.7576 50.7008 31.9091 50.6136C32.0644 50.5265 32.142 50.375 32.142 50.1591V50.1136C32.142 49.553 31.9886 49.1174 31.6818 48.8068C31.3788 48.4962 30.9186 48.3409 30.3011 48.3409C29.661 48.3409 29.1591 48.4811 28.7955 48.7614C28.4318 49.0417 28.1761 49.3409 28.0284 49.6591L26.7557 49.2045C26.983 48.6742 27.286 48.2614 27.6648 47.9659C28.0473 47.6667 28.464 47.4583 28.9148 47.3409C29.3693 47.2197 29.8163 47.1591 30.2557 47.1591C30.536 47.1591 30.858 47.1932 31.2216 47.2614C31.589 47.3258 31.9432 47.4602 32.2841 47.6648C32.6288 47.8693 32.9148 48.178 33.142 48.5909C33.3693 49.0038 33.483 49.5568 33.483 50.25V56H32.142V54.8182H32.0739C31.983 55.0076 31.8314 55.2102 31.6193 55.4261C31.4072 55.642 31.125 55.8258 30.7727 55.9773C30.4205 56.1288 29.9905 56.2045 29.483 56.2045ZM29.6875 55C30.2178 55 30.6648 54.8958 31.0284 54.6875C31.3958 54.4792 31.6723 54.2102 31.858 53.8807C32.0473 53.5511 32.142 53.2045 32.142 52.8409V51.6136C32.0852 51.6818 31.9602 51.7443 31.767 51.8011C31.5777 51.8542 31.358 51.9015 31.108 51.9432C30.8617 51.9811 30.6212 52.0152 30.3864 52.0455C30.1553 52.072 29.9678 52.0947 29.8239 52.1136C29.4754 52.1591 29.1496 52.233 28.8466 52.3352C28.5473 52.4337 28.3049 52.5833 28.1193 52.7841C27.9375 52.9811 27.8466 53.25 27.8466 53.5909C27.8466 54.0568 28.0189 54.4091 28.3636 54.6477C28.7121 54.8826 29.1534 55 29.6875 55Z" fill="#1E1E1E"/>
<path d="M217 48L221 52L225 48" stroke="#1E1E1E" stroke-width="1.6" stroke-linecap="round" stroke-linejoin="round"/>
</svg>
