<svg width="242" height="42" viewBox="0 0 242 42" fill="none" xmlns="http://www.w3.org/2000/svg">
<path d="M1 9C1 4.58172 4.58172 1 9 1H233C237.418 1 241 4.58172 241 9V33C241 37.4183 237.418 41 233 41H9.00001C4.58173 41 1 37.4183 1 33V9Z" fill="white"/>
<path d="M9 1.5H233V0.5H9V1.5ZM240.5 9V33H241.5V9H240.5ZM233 40.5H9.00001V41.5H233V40.5ZM1.5 33V9H0.5V33H1.5ZM9.00001 40.5C4.85787 40.5 1.5 37.1421 1.5 33H0.5C0.5 37.6944 4.30559 41.5 9.00001 41.5V40.5ZM240.5 33C240.5 37.1421 237.142 40.5 233 40.5V41.5C237.694 41.5 241.5 37.6944 241.5 33H240.5ZM233 1.5C237.142 1.5 240.5 4.85787 240.5 9H241.5C241.5 4.30558 237.694 0.5 233 0.5V1.5ZM9 0.5C4.30558 0.5 0.5 4.30558 0.5 9H1.5C1.5 4.85786 4.85786 1.5 9 1.5V0.5Z" fill="#D9D9D9"/>
<path d="M27.6364 15.3636V27H26.2727L19.9318 17.8636H19.8182V27H18.4091V15.3636H19.7727L26.1364 24.5227H26.25V15.3636H27.6364ZM30.2741 27V18.2727H31.6151V27H30.2741ZM30.956 16.8182C30.6946 16.8182 30.4692 16.7292 30.2798 16.5511C30.0942 16.3731 30.0014 16.1591 30.0014 15.9091C30.0014 15.6591 30.0942 15.4451 30.2798 15.267C30.4692 15.089 30.6946 15 30.956 15C31.2173 15 31.4408 15.089 31.6264 15.267C31.8158 15.4451 31.9105 15.6591 31.9105 15.9091C31.9105 16.1591 31.8158 16.3731 31.6264 16.5511C31.4408 16.7292 31.2173 16.8182 30.956 16.8182ZM37.6165 27.1818C36.7983 27.1818 36.0938 26.9886 35.5028 26.6023C34.9119 26.2159 34.4574 25.6837 34.1392 25.0057C33.821 24.3277 33.6619 23.553 33.6619 22.6818C33.6619 21.7955 33.8248 21.0133 34.1506 20.3352C34.4801 19.6534 34.9384 19.1212 35.5256 18.7386C36.1165 18.3523 36.8059 18.1591 37.5938 18.1591C38.2074 18.1591 38.7604 18.2727 39.2528 18.5C39.7453 18.7273 40.1487 19.0455 40.4631 19.4545C40.7775 19.8636 40.9725 20.3409 41.0483 20.8864H39.7074C39.6051 20.4886 39.3778 20.1364 39.0256 19.8295C38.6771 19.5189 38.2074 19.3636 37.6165 19.3636C37.0938 19.3636 36.6354 19.5 36.2415 19.7727C35.8513 20.0417 35.5464 20.4223 35.3267 20.9148C35.1108 21.4034 35.0028 21.9773 35.0028 22.6364C35.0028 23.3106 35.1089 23.8977 35.321 24.3977C35.5369 24.8977 35.84 25.286 36.2301 25.5625C36.6241 25.839 37.0862 25.9773 37.6165 25.9773C37.965 25.9773 38.2812 25.9167 38.5653 25.7955C38.8494 25.6742 39.09 25.5 39.2869 25.2727C39.4839 25.0455 39.6241 24.7727 39.7074 24.4545H41.0483C40.9725 24.9697 40.785 25.4337 40.4858 25.8466C40.1903 26.2557 39.7983 26.5814 39.3097 26.8239C38.8248 27.0625 38.2604 27.1818 37.6165 27.1818ZM44.3494 21.75V27H43.0085V15.3636H44.3494V19.6364H44.4631C44.6676 19.1856 44.9744 18.8277 45.3835 18.5625C45.7964 18.2936 46.3456 18.1591 47.0312 18.1591C47.6259 18.1591 48.1468 18.2784 48.5938 18.517C49.0407 18.7519 49.3873 19.1136 49.6335 19.6023C49.8835 20.0871 50.0085 20.7045 50.0085 21.4545V27H48.6676V21.5455C48.6676 20.8523 48.4877 20.3163 48.1278 19.9375C47.7718 19.5549 47.2775 19.3636 46.6449 19.3636C46.2055 19.3636 45.8116 19.4564 45.4631 19.642C45.1184 19.8277 44.8456 20.0985 44.6449 20.4545C44.4479 20.8106 44.3494 21.2424 44.3494 21.75ZM56.2571 18.2727V19.4091H51.7344V18.2727H56.2571ZM53.0526 16.1818H54.3935V24.5C54.3935 24.8788 54.4484 25.1629 54.5582 25.3523C54.6719 25.5379 54.8158 25.6629 54.9901 25.7273C55.1681 25.7879 55.3556 25.8182 55.5526 25.8182C55.7003 25.8182 55.8215 25.8106 55.9162 25.7955C56.0109 25.7765 56.0866 25.7614 56.1435 25.75L56.4162 26.9545C56.3253 26.9886 56.1984 27.0227 56.0355 27.0568C55.8726 27.0947 55.6662 27.1136 55.4162 27.1136C55.0374 27.1136 54.6662 27.0322 54.3026 26.8693C53.9427 26.7064 53.6435 26.4583 53.4048 26.125C53.17 25.7917 53.0526 25.3712 53.0526 24.8636V16.1818ZM70.9105 19C70.7855 18.6174 70.6207 18.2746 70.4162 17.9716C70.2154 17.6648 69.9749 17.4034 69.6946 17.1875C69.4181 16.9716 69.1037 16.8068 68.7514 16.6932C68.3991 16.5795 68.0128 16.5227 67.5923 16.5227C66.9029 16.5227 66.276 16.7008 65.7116 17.0568C65.1473 17.4129 64.6984 17.9375 64.3651 18.6307C64.0317 19.3239 63.8651 20.1742 63.8651 21.1818C63.8651 22.1894 64.0336 23.0398 64.3707 23.733C64.7079 24.4261 65.1643 24.9508 65.7401 25.3068C66.3158 25.6629 66.9635 25.8409 67.6832 25.8409C68.3499 25.8409 68.937 25.6989 69.4446 25.4148C69.956 25.1269 70.3537 24.7216 70.6378 24.1989C70.9257 23.6723 71.0696 23.053 71.0696 22.3409L71.5014 22.4318H68.0014V21.1818H72.4332V22.4318C72.4332 23.3902 72.2287 24.2235 71.8196 24.9318C71.4143 25.6402 70.8537 26.1894 70.1378 26.5795C69.4257 26.9659 68.6075 27.1591 67.6832 27.1591C66.6529 27.1591 65.7476 26.9167 64.9673 26.4318C64.1908 25.947 63.5848 25.2576 63.1491 24.3636C62.7173 23.4697 62.5014 22.4091 62.5014 21.1818C62.5014 20.2614 62.6245 19.4337 62.8707 18.6989C63.1207 17.9602 63.473 17.3314 63.9276 16.8125C64.3821 16.2936 64.92 15.8958 65.5412 15.6193C66.1624 15.3428 66.8461 15.2045 67.5923 15.2045C68.206 15.2045 68.7779 15.2973 69.3082 15.483C69.8423 15.6648 70.3177 15.9242 70.7344 16.2614C71.1548 16.5947 71.5052 16.9943 71.7855 17.4602C72.0658 17.9223 72.259 18.4356 72.3651 19H70.9105ZM78.3239 27.1818C77.483 27.1818 76.7576 26.9962 76.1477 26.625C75.5417 26.25 75.0739 25.7273 74.7443 25.0568C74.4186 24.3826 74.2557 23.5985 74.2557 22.7045C74.2557 21.8106 74.4186 21.0227 74.7443 20.3409C75.0739 19.6553 75.5322 19.1212 76.1193 18.7386C76.7102 18.3523 77.3996 18.1591 78.1875 18.1591C78.642 18.1591 79.0909 18.2348 79.5341 18.3864C79.9773 18.5379 80.3807 18.7841 80.7443 19.125C81.108 19.4621 81.3977 19.9091 81.6136 20.4659C81.8295 21.0227 81.9375 21.7083 81.9375 22.5227V23.0909H75.2102V21.9318H80.5739C80.5739 21.4394 80.4754 21 80.2784 20.6136C80.0852 20.2273 79.8087 19.9223 79.4489 19.6989C79.0928 19.4754 78.6723 19.3636 78.1875 19.3636C77.6534 19.3636 77.1913 19.4962 76.8011 19.7614C76.4148 20.0227 76.1174 20.3636 75.9091 20.7841C75.7008 21.2045 75.5966 21.6553 75.5966 22.1364V22.9091C75.5966 23.5682 75.7102 24.1269 75.9375 24.5852C76.1686 25.0398 76.4886 25.3864 76.8977 25.625C77.3068 25.8598 77.7822 25.9773 78.3239 25.9773C78.6761 25.9773 78.9943 25.928 79.2784 25.8295C79.5663 25.7273 79.8144 25.5758 80.0227 25.375C80.2311 25.1705 80.392 24.9167 80.5057 24.6136L81.8011 24.9773C81.6648 25.4167 81.4356 25.803 81.1136 26.1364C80.7917 26.4659 80.3939 26.7235 79.9205 26.9091C79.447 27.0909 78.9148 27.1818 78.3239 27.1818ZM83.9773 30.2727V18.2727H85.2727V19.6591H85.4318C85.5303 19.5076 85.6667 19.3144 85.8409 19.0795C86.0189 18.8409 86.2727 18.6288 86.6023 18.4432C86.9356 18.2538 87.3864 18.1591 87.9545 18.1591C88.6894 18.1591 89.3371 18.3428 89.8977 18.7102C90.4583 19.0777 90.8958 19.5985 91.2102 20.2727C91.5246 20.947 91.6818 21.7424 91.6818 22.6591C91.6818 23.5833 91.5246 24.3845 91.2102 25.0625C90.8958 25.7367 90.4602 26.2595 89.9034 26.6307C89.3466 26.9981 88.7045 27.1818 87.9773 27.1818C87.4167 27.1818 86.9678 27.089 86.6307 26.9034C86.2936 26.714 86.0341 26.5 85.8523 26.2614C85.6705 26.0189 85.5303 25.8182 85.4318 25.6591H85.3182V30.2727H83.9773ZM85.2955 22.6364C85.2955 23.2955 85.392 23.8769 85.5852 24.3807C85.7784 24.8807 86.0606 25.2727 86.4318 25.5568C86.803 25.8371 87.2576 25.9773 87.7955 25.9773C88.3561 25.9773 88.8239 25.8295 89.1989 25.5341C89.5777 25.2348 89.8617 24.8333 90.0511 24.3295C90.2443 23.822 90.3409 23.2576 90.3409 22.6364C90.3409 22.0227 90.2462 21.4697 90.0568 20.9773C89.8712 20.4811 89.589 20.089 89.2102 19.8011C88.8352 19.5095 88.3636 19.3636 87.7955 19.3636C87.25 19.3636 86.7917 19.5019 86.4205 19.7784C86.0492 20.0511 85.7689 20.4337 85.5795 20.9261C85.3902 21.4148 85.2955 21.9848 85.2955 22.6364ZM95.0682 15.3636V27H93.7273V15.3636H95.0682ZM100.092 27.2045C99.5393 27.2045 99.0374 27.1004 98.5866 26.892C98.1359 26.6799 97.7779 26.375 97.5128 25.9773C97.2476 25.5758 97.1151 25.0909 97.1151 24.5227C97.1151 24.0227 97.2135 23.6174 97.4105 23.3068C97.6075 22.9924 97.8707 22.7462 98.2003 22.5682C98.5298 22.3902 98.8935 22.2576 99.2912 22.1705C99.6927 22.0795 100.096 22.0076 100.501 21.9545C101.032 21.8864 101.462 21.8352 101.791 21.8011C102.125 21.7633 102.367 21.7008 102.518 21.6136C102.674 21.5265 102.751 21.375 102.751 21.1591V21.1136C102.751 20.553 102.598 20.1174 102.291 19.8068C101.988 19.4962 101.528 19.3409 100.911 19.3409C100.27 19.3409 99.7685 19.4811 99.4048 19.7614C99.0412 20.0417 98.7855 20.3409 98.6378 20.6591L97.3651 20.2045C97.5923 19.6742 97.8954 19.2614 98.2741 18.9659C98.6567 18.6667 99.0734 18.4583 99.5241 18.3409C99.9787 18.2197 100.426 18.1591 100.865 18.1591C101.145 18.1591 101.467 18.1932 101.831 18.2614C102.198 18.3258 102.553 18.4602 102.893 18.6648C103.238 18.8693 103.524 19.178 103.751 19.5909C103.979 20.0038 104.092 20.5568 104.092 21.25V27H102.751V25.8182H102.683C102.592 26.0076 102.441 26.2102 102.229 26.4261C102.017 26.642 101.734 26.8258 101.382 26.9773C101.03 27.1288 100.6 27.2045 100.092 27.2045ZM100.297 26C100.827 26 101.274 25.8958 101.638 25.6875C102.005 25.4792 102.282 25.2102 102.467 24.8807C102.657 24.5511 102.751 24.2045 102.751 23.8409V22.6136C102.695 22.6818 102.57 22.7443 102.376 22.8011C102.187 22.8542 101.967 22.9015 101.717 22.9432C101.471 22.9811 101.231 23.0152 100.996 23.0455C100.765 23.072 100.577 23.0947 100.433 23.1136C100.085 23.1591 99.759 23.233 99.456 23.3352C99.1567 23.4337 98.9143 23.5833 98.7287 23.7841C98.5469 23.9811 98.456 24.25 98.456 24.5909C98.456 25.0568 98.6283 25.4091 98.973 25.6477C99.3215 25.8826 99.7628 26 100.297 26ZM107.881 21.75V27H106.54V18.2727H107.835V19.6364H107.949C108.153 19.1932 108.464 18.8371 108.881 18.5682C109.297 18.2955 109.835 18.1591 110.494 18.1591C111.085 18.1591 111.602 18.2803 112.045 18.5227C112.489 18.7614 112.833 19.125 113.08 19.6136C113.326 20.0985 113.449 20.7121 113.449 21.4545V27H112.108V21.5455C112.108 20.8598 111.93 20.3258 111.574 19.9432C111.218 19.5568 110.729 19.3636 110.108 19.3636C109.68 19.3636 109.297 19.4564 108.96 19.642C108.627 19.8277 108.364 20.0985 108.17 20.4545C107.977 20.8106 107.881 21.2424 107.881 21.75ZM119.695 18.2727V19.4091H115.172V18.2727H119.695ZM116.49 16.1818H117.831V24.5C117.831 24.8788 117.886 25.1629 117.996 25.3523C118.109 25.5379 118.253 25.6629 118.428 25.7273C118.606 25.7879 118.793 25.8182 118.99 25.8182C119.138 25.8182 119.259 25.8106 119.354 25.7955C119.448 25.7765 119.524 25.7614 119.581 25.75L119.854 26.9545C119.763 26.9886 119.636 27.0227 119.473 27.0568C119.31 27.0947 119.104 27.1136 118.854 27.1136C118.475 27.1136 118.104 27.0322 117.74 26.8693C117.38 26.7064 117.081 26.4583 116.842 26.125C116.607 25.7917 116.49 25.3712 116.49 24.8636V16.1818Z" fill="#1E1E1E"/>
<path d="M217 19L221 23L225 19" stroke="#1E1E1E" stroke-width="1.6" stroke-linecap="round" stroke-linejoin="round"/>
</svg>
