<svg width="242" height="71" viewBox="0 0 242 71" fill="none" xmlns="http://www.w3.org/2000/svg">
<path d="M1 38C1 33.5817 4.58172 30 9 30H233C237.418 30 241 33.5817 241 38V62C241 66.4183 237.418 70 233 70H9.00001C4.58173 70 1 66.4183 1 62V38Z" fill="white"/>
<path d="M9 30.5H233V29.5H9V30.5ZM240.5 38V62H241.5V38H240.5ZM233 69.5H9.00001V70.5H233V69.5ZM1.5 62V38H0.5V62H1.5ZM9.00001 69.5C4.85787 69.5 1.5 66.1421 1.5 62H0.5C0.5 66.6944 4.30559 70.5 9.00001 70.5V69.5ZM240.5 62C240.5 66.1421 237.142 69.5 233 69.5V70.5C237.694 70.5 241.5 66.6944 241.5 62H240.5ZM233 30.5C237.142 30.5 240.5 33.8579 240.5 38H241.5C241.5 33.3056 237.694 29.5 233 29.5V30.5ZM9 29.5C4.30558 29.5 0.5 33.3056 0.5 38H1.5C1.5 33.8579 4.85786 30.5 9 30.5V29.5Z" fill="#D9D9D9"/>
<path d="M27.6364 44.3636V56H26.2727L19.9318 46.8636H19.8182V56H18.4091V44.3636H19.7727L26.1364 53.5227H26.25V44.3636H27.6364ZM30.2741 56V47.2727H31.6151V56H30.2741ZM30.956 45.8182C30.6946 45.8182 30.4692 45.7292 30.2798 45.5511C30.0942 45.3731 30.0014 45.1591 30.0014 44.9091C30.0014 44.6591 30.0942 44.4451 30.2798 44.267C30.4692 44.089 30.6946 44 30.956 44C31.2173 44 31.4408 44.089 31.6264 44.267C31.8158 44.4451 31.9105 44.6591 31.9105 44.9091C31.9105 45.1591 31.8158 45.3731 31.6264 45.5511C31.4408 45.7292 31.2173 45.8182 30.956 45.8182ZM37.6165 56.1818C36.7983 56.1818 36.0938 55.9886 35.5028 55.6023C34.9119 55.2159 34.4574 54.6837 34.1392 54.0057C33.821 53.3277 33.6619 52.553 33.6619 51.6818C33.6619 50.7955 33.8248 50.0133 34.1506 49.3352C34.4801 48.6534 34.9384 48.1212 35.5256 47.7386C36.1165 47.3523 36.8059 47.1591 37.5938 47.1591C38.2074 47.1591 38.7604 47.2727 39.2528 47.5C39.7453 47.7273 40.1487 48.0455 40.4631 48.4545C40.7775 48.8636 40.9725 49.3409 41.0483 49.8864H39.7074C39.6051 49.4886 39.3778 49.1364 39.0256 48.8295C38.6771 48.5189 38.2074 48.3636 37.6165 48.3636C37.0938 48.3636 36.6354 48.5 36.2415 48.7727C35.8513 49.0417 35.5464 49.4223 35.3267 49.9148C35.1108 50.4034 35.0028 50.9773 35.0028 51.6364C35.0028 52.3106 35.1089 52.8977 35.321 53.3977C35.5369 53.8977 35.84 54.286 36.2301 54.5625C36.6241 54.839 37.0862 54.9773 37.6165 54.9773C37.965 54.9773 38.2812 54.9167 38.5653 54.7955C38.8494 54.6742 39.09 54.5 39.2869 54.2727C39.4839 54.0455 39.6241 53.7727 39.7074 53.4545H41.0483C40.9725 53.9697 40.785 54.4337 40.4858 54.8466C40.1903 55.2557 39.7983 55.5814 39.3097 55.8239C38.8248 56.0625 38.2604 56.1818 37.6165 56.1818ZM44.3494 50.75V56H43.0085V44.3636H44.3494V48.6364H44.4631C44.6676 48.1856 44.9744 47.8277 45.3835 47.5625C45.7964 47.2936 46.3456 47.1591 47.0312 47.1591C47.6259 47.1591 48.1468 47.2784 48.5938 47.517C49.0407 47.7519 49.3873 48.1136 49.6335 48.6023C49.8835 49.0871 50.0085 49.7045 50.0085 50.4545V56H48.6676V50.5455C48.6676 49.8523 48.4877 49.3163 48.1278 48.9375C47.7718 48.5549 47.2775 48.3636 46.6449 48.3636C46.2055 48.3636 45.8116 48.4564 45.4631 48.642C45.1184 48.8277 44.8456 49.0985 44.6449 49.4545C44.4479 49.8106 44.3494 50.2424 44.3494 50.75ZM56.2571 47.2727V48.4091H51.7344V47.2727H56.2571ZM53.0526 45.1818H54.3935V53.5C54.3935 53.8788 54.4484 54.1629 54.5582 54.3523C54.6719 54.5379 54.8158 54.6629 54.9901 54.7273C55.1681 54.7879 55.3556 54.8182 55.5526 54.8182C55.7003 54.8182 55.8215 54.8106 55.9162 54.7955C56.0109 54.7765 56.0866 54.7614 56.1435 54.75L56.4162 55.9545C56.3253 55.9886 56.1984 56.0227 56.0355 56.0568C55.8726 56.0947 55.6662 56.1136 55.4162 56.1136C55.0374 56.1136 54.6662 56.0322 54.3026 55.8693C53.9427 55.7064 53.6435 55.4583 53.4048 55.125C53.17 54.7917 53.0526 54.3712 53.0526 53.8636V45.1818ZM70.9105 48C70.7855 47.6174 70.6207 47.2746 70.4162 46.9716C70.2154 46.6648 69.9749 46.4034 69.6946 46.1875C69.4181 45.9716 69.1037 45.8068 68.7514 45.6932C68.3991 45.5795 68.0128 45.5227 67.5923 45.5227C66.9029 45.5227 66.276 45.7008 65.7116 46.0568C65.1473 46.4129 64.6984 46.9375 64.3651 47.6307C64.0317 48.3239 63.8651 49.1742 63.8651 50.1818C63.8651 51.1894 64.0336 52.0398 64.3707 52.733C64.7079 53.4261 65.1643 53.9508 65.7401 54.3068C66.3158 54.6629 66.9635 54.8409 67.6832 54.8409C68.3499 54.8409 68.937 54.6989 69.4446 54.4148C69.956 54.1269 70.3537 53.7216 70.6378 53.1989C70.9257 52.6723 71.0696 52.053 71.0696 51.3409L71.5014 51.4318H68.0014V50.1818H72.4332V51.4318C72.4332 52.3902 72.2287 53.2235 71.8196 53.9318C71.4143 54.6402 70.8537 55.1894 70.1378 55.5795C69.4257 55.9659 68.6075 56.1591 67.6832 56.1591C66.6529 56.1591 65.7476 55.9167 64.9673 55.4318C64.1908 54.947 63.5848 54.2576 63.1491 53.3636C62.7173 52.4697 62.5014 51.4091 62.5014 50.1818C62.5014 49.2614 62.6245 48.4337 62.8707 47.6989C63.1207 46.9602 63.473 46.3314 63.9276 45.8125C64.3821 45.2936 64.92 44.8958 65.5412 44.6193C66.1624 44.3428 66.8461 44.2045 67.5923 44.2045C68.206 44.2045 68.7779 44.2973 69.3082 44.483C69.8423 44.6648 70.3177 44.9242 70.7344 45.2614C71.1548 45.5947 71.5052 45.9943 71.7855 46.4602C72.0658 46.9223 72.259 47.4356 72.3651 48H70.9105ZM78.3239 56.1818C77.483 56.1818 76.7576 55.9962 76.1477 55.625C75.5417 55.25 75.0739 54.7273 74.7443 54.0568C74.4186 53.3826 74.2557 52.5985 74.2557 51.7045C74.2557 50.8106 74.4186 50.0227 74.7443 49.3409C75.0739 48.6553 75.5322 48.1212 76.1193 47.7386C76.7102 47.3523 77.3996 47.1591 78.1875 47.1591C78.642 47.1591 79.0909 47.2348 79.5341 47.3864C79.9773 47.5379 80.3807 47.7841 80.7443 48.125C81.108 48.4621 81.3977 48.9091 81.6136 49.4659C81.8295 50.0227 81.9375 50.7083 81.9375 51.5227V52.0909H75.2102V50.9318H80.5739C80.5739 50.4394 80.4754 50 80.2784 49.6136C80.0852 49.2273 79.8087 48.9223 79.4489 48.6989C79.0928 48.4754 78.6723 48.3636 78.1875 48.3636C77.6534 48.3636 77.1913 48.4962 76.8011 48.7614C76.4148 49.0227 76.1174 49.3636 75.9091 49.7841C75.7008 50.2045 75.5966 50.6553 75.5966 51.1364V51.9091C75.5966 52.5682 75.7102 53.1269 75.9375 53.5852C76.1686 54.0398 76.4886 54.3864 76.8977 54.625C77.3068 54.8598 77.7822 54.9773 78.3239 54.9773C78.6761 54.9773 78.9943 54.928 79.2784 54.8295C79.5663 54.7273 79.8144 54.5758 80.0227 54.375C80.2311 54.1705 80.392 53.9167 80.5057 53.6136L81.8011 53.9773C81.6648 54.4167 81.4356 54.803 81.1136 55.1364C80.7917 55.4659 80.3939 55.7235 79.9205 55.9091C79.447 56.0909 78.9148 56.1818 78.3239 56.1818ZM83.9773 59.2727V47.2727H85.2727V48.6591H85.4318C85.5303 48.5076 85.6667 48.3144 85.8409 48.0795C86.0189 47.8409 86.2727 47.6288 86.6023 47.4432C86.9356 47.2538 87.3864 47.1591 87.9545 47.1591C88.6894 47.1591 89.3371 47.3428 89.8977 47.7102C90.4583 48.0777 90.8958 48.5985 91.2102 49.2727C91.5246 49.947 91.6818 50.7424 91.6818 51.6591C91.6818 52.5833 91.5246 53.3845 91.2102 54.0625C90.8958 54.7367 90.4602 55.2595 89.9034 55.6307C89.3466 55.9981 88.7045 56.1818 87.9773 56.1818C87.4167 56.1818 86.9678 56.089 86.6307 55.9034C86.2936 55.714 86.0341 55.5 85.8523 55.2614C85.6705 55.0189 85.5303 54.8182 85.4318 54.6591H85.3182V59.2727H83.9773ZM85.2955 51.6364C85.2955 52.2955 85.392 52.8769 85.5852 53.3807C85.7784 53.8807 86.0606 54.2727 86.4318 54.5568C86.803 54.8371 87.2576 54.9773 87.7955 54.9773C88.3561 54.9773 88.8239 54.8295 89.1989 54.5341C89.5777 54.2348 89.8617 53.8333 90.0511 53.3295C90.2443 52.822 90.3409 52.2576 90.3409 51.6364C90.3409 51.0227 90.2462 50.4697 90.0568 49.9773C89.8712 49.4811 89.589 49.089 89.2102 48.8011C88.8352 48.5095 88.3636 48.3636 87.7955 48.3636C87.25 48.3636 86.7917 48.5019 86.4205 48.7784C86.0492 49.0511 85.7689 49.4337 85.5795 49.9261C85.3902 50.4148 85.2955 50.9848 85.2955 51.6364ZM95.0682 44.3636V56H93.7273V44.3636H95.0682ZM100.092 56.2045C99.5393 56.2045 99.0374 56.1004 98.5866 55.892C98.1359 55.6799 97.7779 55.375 97.5128 54.9773C97.2476 54.5758 97.1151 54.0909 97.1151 53.5227C97.1151 53.0227 97.2135 52.6174 97.4105 52.3068C97.6075 51.9924 97.8707 51.7462 98.2003 51.5682C98.5298 51.3902 98.8935 51.2576 99.2912 51.1705C99.6927 51.0795 100.096 51.0076 100.501 50.9545C101.032 50.8864 101.462 50.8352 101.791 50.8011C102.125 50.7633 102.367 50.7008 102.518 50.6136C102.674 50.5265 102.751 50.375 102.751 50.1591V50.1136C102.751 49.553 102.598 49.1174 102.291 48.8068C101.988 48.4962 101.528 48.3409 100.911 48.3409C100.27 48.3409 99.7685 48.4811 99.4048 48.7614C99.0412 49.0417 98.7855 49.3409 98.6378 49.6591L97.3651 49.2045C97.5923 48.6742 97.8954 48.2614 98.2741 47.9659C98.6567 47.6667 99.0734 47.4583 99.5241 47.3409C99.9787 47.2197 100.426 47.1591 100.865 47.1591C101.145 47.1591 101.467 47.1932 101.831 47.2614C102.198 47.3258 102.553 47.4602 102.893 47.6648C103.238 47.8693 103.524 48.178 103.751 48.5909C103.979 49.0038 104.092 49.5568 104.092 50.25V56H102.751V54.8182H102.683C102.592 55.0076 102.441 55.2102 102.229 55.4261C102.017 55.642 101.734 55.8258 101.382 55.9773C101.03 56.1288 100.6 56.2045 100.092 56.2045ZM100.297 55C100.827 55 101.274 54.8958 101.638 54.6875C102.005 54.4792 102.282 54.2102 102.467 53.8807C102.657 53.5511 102.751 53.2045 102.751 52.8409V51.6136C102.695 51.6818 102.57 51.7443 102.376 51.8011C102.187 51.8542 101.967 51.9015 101.717 51.9432C101.471 51.9811 101.231 52.0152 100.996 52.0455C100.765 52.072 100.577 52.0947 100.433 52.1136C100.085 52.1591 99.759 52.233 99.456 52.3352C99.1567 52.4337 98.9143 52.5833 98.7287 52.7841C98.5469 52.9811 98.456 53.25 98.456 53.5909C98.456 54.0568 98.6283 54.4091 98.973 54.6477C99.3215 54.8826 99.7628 55 100.297 55ZM107.881 50.75V56H106.54V47.2727H107.835V48.6364H107.949C108.153 48.1932 108.464 47.8371 108.881 47.5682C109.297 47.2955 109.835 47.1591 110.494 47.1591C111.085 47.1591 111.602 47.2803 112.045 47.5227C112.489 47.7614 112.833 48.125 113.08 48.6136C113.326 49.0985 113.449 49.7121 113.449 50.4545V56H112.108V50.5455C112.108 49.8598 111.93 49.3258 111.574 48.9432C111.218 48.5568 110.729 48.3636 110.108 48.3636C109.68 48.3636 109.297 48.4564 108.96 48.642C108.627 48.8277 108.364 49.0985 108.17 49.4545C107.977 49.8106 107.881 50.2424 107.881 50.75ZM119.695 47.2727V48.4091H115.172V47.2727H119.695ZM116.49 45.1818H117.831V53.5C117.831 53.8788 117.886 54.1629 117.996 54.3523C118.109 54.5379 118.253 54.6629 118.428 54.7273C118.606 54.7879 118.793 54.8182 118.99 54.8182C119.138 54.8182 119.259 54.8106 119.354 54.7955C119.448 54.7765 119.524 54.7614 119.581 54.75L119.854 55.9545C119.763 55.9886 119.636 56.0227 119.473 56.0568C119.31 56.0947 119.104 56.1136 118.854 56.1136C118.475 56.1136 118.104 56.0322 117.74 55.8693C117.38 55.7064 117.081 55.4583 116.842 55.125C116.607 54.7917 116.49 54.3712 116.49 53.8636V45.1818Z" fill="#1E1E1E"/>
<path d="M217 48L221 52L225 48" stroke="#1E1E1E" stroke-width="1.6" stroke-linecap="round" stroke-linejoin="round"/>
</svg>
