<svg width="242" height="42" viewBox="0 0 242 42" fill="none" xmlns="http://www.w3.org/2000/svg">
<path d="M1 9C1 4.58172 4.58172 1 9 1H233C237.418 1 241 4.58172 241 9V33C241 37.4183 237.418 41 233 41H9.00001C4.58173 41 1 37.4183 1 33V9Z" fill="white"/>
<path d="M9 1.5H233V0.5H9V1.5ZM240.5 9V33H241.5V9H240.5ZM233 40.5H9.00001V41.5H233V40.5ZM1.5 33V9H0.5V33H1.5ZM9.00001 40.5C4.85787 40.5 1.5 37.1421 1.5 33H0.5C0.5 37.6944 4.30559 41.5 9.00001 41.5V40.5ZM240.5 33C240.5 37.1421 237.142 40.5 233 40.5V41.5C237.694 41.5 241.5 37.6944 241.5 33H240.5ZM233 1.5C237.142 1.5 240.5 4.85787 240.5 9H241.5C241.5 4.30558 237.694 0.5 233 0.5V1.5ZM9 0.5C4.30558 0.5 0.5 4.30558 0.5 9H1.5C1.5 4.85786 4.85786 1.5 9 1.5V0.5Z" fill="#D9D9D9"/>
<path d="M22.8636 15.3636H24.2727V23.6818C24.2727 24.4242 24.1364 25.0549 23.8636 25.5739C23.5909 26.0928 23.2064 26.4867 22.7102 26.7557C22.214 27.0246 21.6288 27.1591 20.9545 27.1591C20.3182 27.1591 19.7519 27.0436 19.2557 26.8125C18.7595 26.5777 18.3693 26.2443 18.0852 25.8125C17.8011 25.3807 17.6591 24.8674 17.6591 24.2727H19.0455C19.0455 24.6023 19.1269 24.8902 19.2898 25.1364C19.4564 25.3788 19.6837 25.5682 19.9716 25.7045C20.2595 25.8409 20.5871 25.9091 20.9545 25.9091C21.3598 25.9091 21.7045 25.8239 21.9886 25.6534C22.2727 25.483 22.4886 25.233 22.6364 24.9034C22.7879 24.5701 22.8636 24.1629 22.8636 23.6818V15.3636ZM29.483 27.2045C28.9299 27.2045 28.428 27.1004 27.9773 26.892C27.5265 26.6799 27.1686 26.375 26.9034 25.9773C26.6383 25.5758 26.5057 25.0909 26.5057 24.5227C26.5057 24.0227 26.6042 23.6174 26.8011 23.3068C26.9981 22.9924 27.2614 22.7462 27.5909 22.5682C27.9205 22.3902 28.2841 22.2576 28.6818 22.1705C29.0833 22.0795 29.4867 22.0076 29.892 21.9545C30.4223 21.8864 30.8523 21.8352 31.1818 21.8011C31.5152 21.7633 31.7576 21.7008 31.9091 21.6136C32.0644 21.5265 32.142 21.375 32.142 21.1591V21.1136C32.142 20.553 31.9886 20.1174 31.6818 19.8068C31.3788 19.4962 30.9186 19.3409 30.3011 19.3409C29.661 19.3409 29.1591 19.4811 28.7955 19.7614C28.4318 20.0417 28.1761 20.3409 28.0284 20.6591L26.7557 20.2045C26.983 19.6742 27.286 19.2614 27.6648 18.9659C28.0473 18.6667 28.464 18.4583 28.9148 18.3409C29.3693 18.2197 29.8163 18.1591 30.2557 18.1591C30.536 18.1591 30.858 18.1932 31.2216 18.2614C31.589 18.3258 31.9432 18.4602 32.2841 18.6648C32.6288 18.8693 32.9148 19.178 33.142 19.5909C33.3693 20.0038 33.483 20.5568 33.483 21.25V27H32.142V25.8182H32.0739C31.983 26.0076 31.8314 26.2102 31.6193 26.4261C31.4072 26.642 31.125 26.8258 30.7727 26.9773C30.4205 27.1288 29.9905 27.2045 29.483 27.2045ZM29.6875 26C30.2178 26 30.6648 25.8958 31.0284 25.6875C31.3958 25.4792 31.6723 25.2102 31.858 24.8807C32.0473 24.5511 32.142 24.2045 32.142 23.8409V22.6136C32.0852 22.6818 31.9602 22.7443 31.767 22.8011C31.5777 22.8542 31.358 22.9015 31.108 22.9432C30.8617 22.9811 30.6212 23.0152 30.3864 23.0455C30.1553 23.072 29.9678 23.0947 29.8239 23.1136C29.4754 23.1591 29.1496 23.233 28.8466 23.3352C28.5473 23.4337 28.3049 23.5833 28.1193 23.7841C27.9375 23.9811 27.8466 24.25 27.8466 24.5909C27.8466 25.0568 28.0189 25.4091 28.3636 25.6477C28.7121 25.8826 29.1534 26 29.6875 26Z" fill="#1E1E1E"/>
<path d="M217 19L221 23L225 19" stroke="#1E1E1E" stroke-width="1.6" stroke-linecap="round" stroke-linejoin="round"/>
</svg>
